<svg xmlns="http://www.w3.org/2000/svg" width="337" height="254" viewBox="0 0 337 254" fill="none"><path fill-rule="evenodd" clip-rule="evenodd" d="M177.313 224.61C199.437 218.422 229.9 234.46 250.282 224.75C274.356 213.281 288.235 187.007 300.008 166.156C314.158 141.094 332.39 110.475 316.816 87.1494C301.139 63.6693 279.32 61.6489 250.282 49.8476C222.912 38.7243 183.342 17.7973 152.349 20.3089C121.365 22.8197 84.4796 32.0102 61.0867 49.8476C37.2867 67.9955 21.2023 99.6886 14.31 125.566C7.41524 151.452 21.0306 160.681 34.6649 183.845C47.7463 206.07 71.7909 231.865 100.671 238.378C130.784 245.17 146.976 233.094 177.313 224.61Z" fill="#441A30"></path><mask id="mask0_7467_626" style="mask-type:alpha" maskUnits="userSpaceOnUse" x="12" y="20" width="311" height="221"><path fill-rule="evenodd" clip-rule="evenodd" d="M177.313 224.607C199.438 218.42 229.901 234.458 250.282 224.748C274.357 213.278 288.235 187.005 300.008 166.153C314.158 141.091 332.391 110.472 316.816 87.1468C301.139 63.6667 279.32 61.6462 250.282 49.845C222.912 38.7217 183.343 17.7946 152.349 20.3063C121.366 22.8171 84.4801 32.0075 61.0872 49.845C37.2872 67.9929 21.2028 99.686 14.3105 125.563C7.41573 151.45 21.0311 160.678 34.6654 183.843C47.7467 206.068 71.7914 231.863 100.671 238.376C130.785 245.167 146.976 233.091 177.313 224.607Z" fill="#441A30"></path></mask><g mask="url(#mask0_7467_626)"><rect x="147.485" y="67.4514" width="141.827" height="176.597" rx="4.21091" fill="#1F271B"></rect><rect x="153.21" y="60.3688" width="143.182" height="176.122" rx="3.97356" fill="#FEFEFE" stroke="#1F271B" stroke-width="0.474696"></rect><path d="M184.573 78.0682V86.0422H185.828V87.5536H181.739V86.0422H182.995V79.5796H181.739V78.0682H184.573ZM187.065 85.4642C187.065 84.5987 187.496 83.858 188.358 83.242C189.167 82.664 189.573 82.1807 189.576 81.7922V79.9681C189.576 79.6112 189.423 79.4327 189.117 79.4327H189.107C188.798 79.4327 188.643 79.6112 188.643 79.9681V81.3089H187.065V79.9681C187.065 78.6004 187.746 77.9165 189.107 77.9165C190.472 77.9165 191.154 78.6004 191.154 79.9681V81.8254C191.154 82.7067 190.721 83.4568 189.856 84.0759C189.047 84.654 188.643 85.1546 188.643 85.5779V86.0422H191.154V87.5536H187.065V85.4642ZM193.954 85.6489C193.964 86.0059 194.125 86.1843 194.437 86.1843C194.747 86.1843 194.906 86.0059 194.916 85.6489V84.0665C194.916 83.7664 194.865 83.5942 194.764 83.55C194.707 83.5247 194.609 83.5121 194.47 83.5121H193.897V82.0007H194.575C194.676 82.0007 194.748 81.9881 194.793 81.9628C194.875 81.9154 194.916 81.7512 194.916 81.47V79.9681C194.906 79.6112 194.747 79.4327 194.437 79.4327C194.125 79.4327 193.964 79.6112 193.954 79.9681V81.3089H192.39V79.9681C192.39 78.6036 193.073 77.9197 194.437 77.9165C195.799 77.9165 196.479 78.6004 196.479 79.9681V81.4795C196.479 82.1239 196.268 82.555 195.844 82.773C196.268 82.9909 196.479 83.4221 196.479 84.0665V85.6489C196.479 87.0166 195.799 87.7005 194.437 87.7005C193.073 87.6973 192.39 87.0135 192.39 85.6489V84.3081H193.954V85.6489Z" fill="#501537"></path><path d="M210.99 84.6872C210.99 83.8217 211.422 83.081 212.284 82.4651C213.093 81.887 213.498 81.4038 213.502 81.0152V79.1911C213.502 78.8342 213.348 78.6557 213.042 78.6557H213.033C212.723 78.6557 212.568 78.8342 212.568 79.1911V80.532H210.99V79.1911C210.99 77.8234 211.671 77.1396 213.033 77.1396C214.397 77.1396 215.079 77.8234 215.079 79.1911V81.0484C215.079 81.9297 214.647 82.6799 213.781 83.299C212.973 83.877 212.568 84.3776 212.568 84.8009V85.2652H215.079V86.7766H210.99V84.6872ZM217.879 84.872C217.889 85.2289 218.05 85.4074 218.363 85.4074C218.672 85.4074 218.832 85.2289 218.841 84.872V83.2895C218.841 82.9894 218.791 82.8173 218.69 82.773C218.633 82.7478 218.535 82.7351 218.396 82.7351H217.823V81.2237H218.5C218.601 81.2237 218.674 81.2111 218.718 81.1858C218.8 81.1384 218.841 80.9742 218.841 80.6931V79.1911C218.832 78.8342 218.672 78.6557 218.363 78.6557C218.05 78.6557 217.889 78.8342 217.879 79.1911V80.532H216.316V79.1911C216.316 77.8266 216.998 77.1427 218.363 77.1396C219.724 77.1396 220.405 77.8234 220.405 79.1911V80.7025C220.405 81.3469 220.193 81.7781 219.77 81.996C220.193 82.214 220.405 82.6451 220.405 83.2895V84.872C220.405 86.2397 219.724 86.9235 218.363 86.9235C216.998 86.9204 216.316 86.2365 216.316 84.872V83.5311H217.879V84.872ZM224.153 79.1911C224.153 78.8342 223.998 78.6557 223.688 78.6557C223.376 78.6557 223.219 78.8342 223.219 79.1911V81.0389C223.219 81.3295 223.268 81.4954 223.366 81.5364C223.42 81.5617 223.519 81.5743 223.665 81.5743C223.702 81.5743 223.745 81.5727 223.793 81.5696C224.033 81.5633 224.153 81.3864 224.153 81.0389V79.1911ZM221.641 79.1911C221.641 77.8266 222.324 77.1427 223.688 77.1396C225.05 77.1396 225.73 77.8234 225.73 79.1911V84.8767C225.73 86.2413 225.048 86.9235 223.684 86.9235C222.322 86.9235 221.641 86.2413 221.641 84.8767V83.5311H223.219V84.8767C223.219 85.2305 223.374 85.4089 223.684 85.4121H223.693C223.999 85.4121 224.153 85.2336 224.153 84.8767V82.8583C224.01 82.9847 223.737 83.0478 223.333 83.0478C223.27 83.0478 223.202 83.0447 223.129 83.0384C222.665 82.991 222.302 82.8252 222.039 82.5409C221.774 82.2503 221.641 81.7496 221.641 81.0389V79.1911ZM230.895 77.2912V82.9862H231.411V84.4977H230.895V86.7766H229.317V84.4977H226.597V83.2137L228.981 77.2912H230.895ZM228.199 82.9862H229.317V80.1482L228.199 82.9862Z" fill="#B6C647"></path><path d="M183.29 98.6449C183.299 99.0018 183.46 99.1803 183.773 99.1803C184.083 99.1803 184.242 99.0018 184.252 98.6449V97.0624C184.252 96.7624 184.201 96.5902 184.1 96.546C184.043 96.5207 183.945 96.5081 183.806 96.5081H183.233V94.9967H183.911C184.012 94.9967 184.084 94.984 184.128 94.9588C184.211 94.9114 184.252 94.7471 184.252 94.466V92.9641C184.242 92.6071 184.083 92.4287 183.773 92.4287C183.46 92.4287 183.299 92.6071 183.29 92.9641V94.3049H181.726V92.9641C181.726 91.5995 182.409 90.9157 183.773 90.9125C185.134 90.9125 185.815 91.5964 185.815 92.9641V94.4755C185.815 95.1199 185.604 95.551 185.18 95.769C185.604 95.9869 185.815 96.4181 185.815 97.0624V98.6449C185.815 100.013 185.134 100.696 183.773 100.696C182.409 100.693 181.726 100.009 181.726 98.6449V97.3041H183.29V98.6449ZM190.98 91.0641V96.7592H191.496V98.2706H190.98V100.55H189.402V98.2706H186.682V96.9866L189.065 91.0641H190.98ZM188.284 96.7592H189.402V93.9211L188.284 96.7592ZM196.466 98.6497C196.466 100.014 195.784 100.696 194.419 100.696C193.058 100.696 192.377 100.014 192.377 98.6497V92.9641C192.377 91.5964 193.058 90.9125 194.419 90.9125C195.784 90.9125 196.466 91.5964 196.466 92.9641V94.3049H194.888V92.9641C194.888 92.6071 194.734 92.4287 194.424 92.4287H194.415C194.108 92.4287 193.955 92.6071 193.955 92.9641V94.9777C194.091 94.8545 194.359 94.7929 194.761 94.7929C194.83 94.7929 194.903 94.7961 194.978 94.8024C195.443 94.8498 195.806 95.0156 196.068 95.2999C196.334 95.5873 196.466 96.088 196.466 96.8018V98.6497ZM193.955 98.6497C193.955 99.0066 194.11 99.1851 194.419 99.1851C194.732 99.1851 194.888 99.0066 194.888 98.6497V96.8018C194.888 96.5081 194.839 96.3423 194.742 96.3044C194.685 96.2759 194.582 96.2617 194.434 96.2617C194.396 96.2617 194.356 96.2633 194.315 96.2664C194.075 96.2759 193.955 96.4544 193.955 96.8018V98.6497Z" fill="#501537"></path><path d="M184.543 140.696C184.543 140.406 184.494 140.24 184.397 140.199C184.34 140.17 184.237 140.156 184.089 140.156C184.051 140.156 184.011 140.158 183.97 140.161C183.765 140.17 183.65 140.262 183.624 140.436L183.605 140.9H182.028L182.236 135.75H186.121V137.261H183.752L183.676 138.849C183.774 138.735 184.04 138.678 184.472 138.678C184.532 138.678 184.592 138.681 184.652 138.687C185.158 138.732 185.543 138.935 185.808 139.299C186.017 139.586 186.121 140.052 186.121 140.696V143.335C186.121 144.7 185.439 145.382 184.074 145.382C182.713 145.382 182.032 144.7 182.032 143.335V142.141H183.61V143.335C183.61 143.692 183.765 143.871 184.074 143.871C184.387 143.871 184.543 143.692 184.543 143.335V140.696ZM191.442 143.335C191.442 144.7 190.76 145.382 189.395 145.382C188.034 145.382 187.353 144.7 187.353 143.335V137.65C187.353 136.282 188.034 135.598 189.395 135.598C190.76 135.598 191.442 136.282 191.442 137.65V143.335ZM189.864 137.65C189.864 137.293 189.709 137.114 189.4 137.114H189.39C189.084 137.114 188.931 137.293 188.931 137.65V143.335C188.931 143.692 189.086 143.871 189.395 143.871C189.708 143.871 189.864 143.692 189.864 143.335V137.65ZM196.72 143.335C196.72 144.7 196.038 145.382 194.673 145.382C193.312 145.382 192.631 144.7 192.631 143.335V137.65C192.631 136.282 193.312 135.598 194.673 135.598C196.038 135.598 196.72 136.282 196.72 137.65V138.991H195.142V137.65C195.142 137.293 194.988 137.114 194.678 137.114H194.669C194.362 137.114 194.209 137.293 194.209 137.65V139.663C194.345 139.54 194.613 139.479 195.014 139.479C195.084 139.479 195.157 139.482 195.232 139.488C195.697 139.536 196.06 139.701 196.322 139.986C196.587 140.273 196.72 140.774 196.72 141.488V143.335ZM194.209 143.335C194.209 143.692 194.364 143.871 194.673 143.871C194.986 143.871 195.142 143.692 195.142 143.335V141.488C195.142 141.194 195.093 141.028 194.995 140.99C194.939 140.962 194.836 140.947 194.687 140.947C194.65 140.947 194.61 140.949 194.569 140.952C194.329 140.962 194.209 141.14 194.209 141.488V143.335ZM200.468 137.65C200.468 137.293 200.313 137.114 200.003 137.114C199.691 137.114 199.534 137.293 199.534 137.65V139.498C199.534 139.788 199.583 139.954 199.681 139.995C199.735 140.02 199.835 140.033 199.98 140.033C200.018 140.033 200.06 140.031 200.108 140.028C200.348 140.022 200.468 139.845 200.468 139.498V137.65ZM197.957 137.65C197.957 136.285 198.639 135.601 200.003 135.598C201.365 135.598 202.046 136.282 202.046 137.65V143.335C202.046 144.7 201.363 145.382 199.999 145.382C198.637 145.382 197.957 144.7 197.957 143.335V141.99H199.534V143.335C199.534 143.689 199.689 143.868 199.999 143.871H200.008C200.315 143.871 200.468 143.692 200.468 143.335V141.317C200.326 141.443 200.052 141.507 199.648 141.507C199.585 141.507 199.517 141.503 199.444 141.497C198.98 141.45 198.617 141.284 198.355 141C198.089 140.709 197.957 140.208 197.957 139.498V137.65ZM203.24 137.261V135.75H207.442V136.806L205.547 145.235H203.931L205.722 137.261H203.24Z" fill="#AD3279"></path><path d="M182.075 157.104C182.075 156.239 182.506 155.498 183.368 154.882C184.177 154.304 184.583 153.821 184.586 153.432V151.608C184.586 151.251 184.433 151.073 184.126 151.073H184.117C183.807 151.073 183.653 151.251 183.653 151.608V152.949H182.075V151.608C182.075 150.24 182.756 149.557 184.117 149.557C185.482 149.557 186.164 150.24 186.164 151.608V153.465C186.164 154.347 185.731 155.097 184.866 155.716C184.057 156.294 183.653 156.795 183.653 157.218V157.682H186.164V159.194H182.075V157.104ZM191.489 157.294C191.489 158.658 190.807 159.341 189.443 159.341C188.081 159.341 187.4 158.658 187.4 157.294V151.608C187.4 150.24 188.081 149.557 189.443 149.557C190.807 149.557 191.489 150.24 191.489 151.608V152.949H189.912V151.608C189.912 151.251 189.757 151.073 189.447 151.073H189.438C189.131 151.073 188.978 151.251 188.978 151.608V153.622C189.114 153.499 189.382 153.437 189.784 153.437C189.853 153.437 189.926 153.44 190.002 153.447C190.466 153.494 190.829 153.66 191.091 153.944C191.357 154.231 191.489 154.732 191.489 155.446V157.294ZM188.978 157.294C188.978 157.651 189.133 157.829 189.443 157.829C189.755 157.829 189.912 157.651 189.912 157.294V155.446C189.912 155.152 189.863 154.986 189.765 154.948C189.708 154.92 189.605 154.906 189.457 154.906C189.419 154.906 189.379 154.907 189.338 154.911C189.098 154.92 188.978 155.098 188.978 155.446V157.294ZM195.194 154.655C195.194 154.364 195.145 154.198 195.048 154.157C194.991 154.129 194.888 154.115 194.74 154.115C194.702 154.115 194.662 154.116 194.621 154.119C194.416 154.129 194.301 154.22 194.275 154.394L194.256 154.858H192.679L192.887 149.708H196.772V151.22H194.403L194.327 152.807C194.425 152.693 194.691 152.636 195.123 152.636C195.183 152.636 195.243 152.639 195.303 152.646C195.809 152.69 196.194 152.894 196.459 153.257C196.668 153.544 196.772 154.01 196.772 154.655V157.294C196.772 158.658 196.09 159.341 194.725 159.341C193.364 159.341 192.683 158.658 192.683 157.294V156.1H194.261V157.294C194.261 157.651 194.416 157.829 194.725 157.829C195.038 157.829 195.194 157.651 195.194 157.294V154.655Z" fill="#B6C647"></path><path d="M184.251 168.148C184.251 167.791 184.096 167.613 183.786 167.613C183.474 167.613 183.317 167.791 183.317 168.148V169.996C183.317 170.287 183.366 170.452 183.464 170.494C183.518 170.519 183.617 170.531 183.763 170.531C183.801 170.531 183.843 170.53 183.891 170.527C184.131 170.52 184.251 170.344 184.251 169.996V168.148ZM181.739 168.148C181.739 166.784 182.422 166.1 183.786 166.097C185.148 166.097 185.828 166.781 185.828 168.148V173.834C185.828 175.198 185.146 175.881 183.782 175.881C182.42 175.881 181.739 175.198 181.739 173.834V172.488H183.317V173.834C183.317 174.188 183.472 174.366 183.782 174.369H183.791C184.097 174.369 184.251 174.191 184.251 173.834V171.815C184.108 171.942 183.835 172.005 183.431 172.005C183.368 172.005 183.3 172.002 183.227 171.995C182.763 171.948 182.4 171.782 182.137 171.498C181.872 171.207 181.739 170.707 181.739 169.996V168.148ZM189.898 166.248V174.222H191.154V175.734H187.065V174.222H188.321V167.76H187.065V166.248H189.898ZM196.432 173.834C196.432 175.198 195.75 175.881 194.385 175.881C193.024 175.881 192.343 175.198 192.343 173.834V168.148C192.343 166.781 193.024 166.097 194.385 166.097C195.75 166.097 196.432 166.781 196.432 168.148V173.834ZM194.854 168.148C194.854 167.791 194.699 167.613 194.39 167.613H194.38C194.074 167.613 193.921 167.791 193.921 168.148V173.834C193.921 174.191 194.076 174.369 194.385 174.369C194.698 174.369 194.854 174.191 194.854 173.834V168.148ZM200.455 166.248V174.222H201.71V175.734H197.621V174.222H198.877V167.76H197.621V166.248H200.455ZM205.458 168.148C205.458 167.791 205.303 167.613 204.994 167.613C204.681 167.613 204.524 167.791 204.524 168.148V169.996C204.524 170.287 204.573 170.452 204.671 170.494C204.725 170.519 204.825 170.531 204.97 170.531C205.008 170.531 205.05 170.53 205.098 170.527C205.338 170.52 205.458 170.344 205.458 169.996V168.148ZM202.947 168.148C202.947 166.784 203.629 166.1 204.994 166.097C206.355 166.097 207.036 166.781 207.036 168.148V173.834C207.036 175.198 206.353 175.881 204.989 175.881C203.627 175.881 202.947 175.198 202.947 173.834V172.488H204.524V173.834C204.524 174.188 204.679 174.366 204.989 174.369H204.998C205.305 174.369 205.458 174.191 205.458 173.834V171.815C205.316 171.942 205.043 172.005 204.638 172.005C204.575 172.005 204.507 172.002 204.434 171.995C203.97 171.948 203.607 171.782 203.345 171.498C203.079 171.207 202.947 170.707 202.947 169.996V168.148ZM210.783 168.148C210.783 167.791 210.629 167.613 210.319 167.613C210.006 167.613 209.85 167.791 209.85 168.148V169.996C209.85 170.287 209.899 170.452 209.997 170.494C210.051 170.519 210.15 170.531 210.295 170.531C210.333 170.531 210.376 170.53 210.423 170.527C210.663 170.52 210.783 170.344 210.783 169.996V168.148ZM208.272 168.148C208.272 166.784 208.955 166.1 210.319 166.097C211.68 166.097 212.361 166.781 212.361 168.148V173.834C212.361 175.198 211.679 175.881 210.314 175.881C208.953 175.881 208.272 175.198 208.272 173.834V172.488H209.85V173.834C209.85 174.188 210.005 174.366 210.314 174.369H210.324C210.63 174.369 210.783 174.191 210.783 173.834V171.815C210.641 171.942 210.368 172.005 209.964 172.005C209.901 172.005 209.833 172.002 209.76 171.995C209.296 171.948 208.932 171.782 208.67 171.498C208.405 171.207 208.272 170.707 208.272 169.996V168.148ZM215.161 169.664C215.161 170.034 215.321 170.219 215.64 170.219C215.962 170.219 216.123 170.034 216.123 169.664V168.148C216.114 167.791 215.954 167.613 215.645 167.613C215.332 167.613 215.171 167.791 215.161 168.148V169.664ZM213.598 172.261C213.598 171.616 213.809 171.185 214.233 170.967C213.809 170.749 213.598 170.318 213.598 169.674V168.148C213.598 166.784 214.28 166.1 215.645 166.097C217.006 166.097 217.687 166.781 217.687 168.148V169.674C217.687 170.318 217.475 170.749 217.052 170.967C217.475 171.185 217.687 171.616 217.687 172.261V173.829C217.687 175.197 217.006 175.881 215.645 175.881C214.28 175.877 213.598 175.194 213.598 173.829V172.261ZM215.161 173.829C215.171 174.186 215.332 174.364 215.645 174.364C215.954 174.364 216.114 174.186 216.123 173.829V172.261C216.123 171.961 216.073 171.789 215.971 171.744C215.915 171.719 215.812 171.706 215.664 171.706C215.622 171.706 215.58 171.708 215.536 171.711C215.286 171.721 215.161 171.904 215.161 172.261V173.829Z" fill="#501537"></path><path d="M184.225 108.46C184.225 108.103 184.07 107.925 183.761 107.925C183.448 107.925 183.292 108.103 183.292 108.46V110.308C183.292 110.598 183.341 110.764 183.439 110.805C183.492 110.831 183.592 110.843 183.737 110.843C183.775 110.843 183.818 110.842 183.865 110.839C184.105 110.832 184.225 110.655 184.225 110.308V108.46ZM181.714 108.46C181.714 107.095 182.396 106.412 183.761 106.408C185.122 106.408 185.803 107.092 185.803 108.46V114.146C185.803 115.51 185.121 116.192 183.756 116.192C182.395 116.192 181.714 115.51 181.714 114.146V112.8H183.292V114.146C183.292 114.499 183.447 114.678 183.756 114.681H183.766C184.072 114.681 184.225 114.503 184.225 114.146V112.127C184.083 112.254 183.81 112.317 183.406 112.317C183.342 112.317 183.274 112.314 183.202 112.307C182.737 112.26 182.374 112.094 182.112 111.81C181.847 111.519 181.714 111.019 181.714 110.308V108.46ZM189.873 106.56V114.534H191.128V116.046H187.04V114.534H188.295V108.072H187.04V106.56H189.873ZM196.407 114.146C196.407 115.51 195.724 116.192 194.36 116.192C192.998 116.192 192.318 115.51 192.318 114.146V108.46C192.318 107.092 192.998 106.408 194.36 106.408C195.724 106.408 196.407 107.092 196.407 108.46V114.146ZM194.829 108.46C194.829 108.103 194.674 107.925 194.365 107.925H194.355C194.049 107.925 193.895 108.103 193.895 108.46V114.146C193.895 114.503 194.05 114.681 194.36 114.681C194.672 114.681 194.829 114.503 194.829 114.146V108.46ZM200.107 108.46C200.107 108.103 199.952 107.925 199.643 107.925C199.33 107.925 199.174 108.103 199.174 108.46V110.308C199.174 110.598 199.223 110.764 199.32 110.805C199.374 110.831 199.474 110.843 199.619 110.843C199.657 110.843 199.7 110.842 199.747 110.839C199.987 110.832 200.107 110.655 200.107 110.308V108.46ZM197.596 108.46C197.596 107.095 198.278 106.412 199.643 106.408C201.004 106.408 201.685 107.092 201.685 108.46V114.146C201.685 115.51 201.002 116.192 199.638 116.192C198.277 116.192 197.596 115.51 197.596 114.146V112.8H199.174V114.146C199.174 114.499 199.328 114.678 199.638 114.681H199.647C199.954 114.681 200.107 114.503 200.107 114.146V112.127C199.965 112.254 199.692 112.317 199.287 112.317C199.224 112.317 199.156 112.314 199.084 112.307C198.619 112.26 198.256 112.094 197.994 111.81C197.729 111.519 197.596 111.019 197.596 110.308V108.46ZM204.485 109.976C204.485 110.346 204.644 110.531 204.963 110.531C205.286 110.531 205.447 110.346 205.447 109.976V108.46C205.437 108.103 205.278 107.925 204.968 107.925C204.655 107.925 204.494 108.103 204.485 108.46V109.976ZM202.921 112.573C202.921 111.928 203.133 111.497 203.556 111.279C203.133 111.061 202.921 110.63 202.921 109.986V108.46C202.921 107.095 203.604 106.412 204.968 106.408C206.33 106.408 207.01 107.092 207.01 108.46V109.986C207.01 110.63 206.799 111.061 206.375 111.279C206.799 111.497 207.01 111.928 207.01 112.573V114.141C207.01 115.509 206.33 116.192 204.968 116.192C203.604 116.189 202.921 115.505 202.921 114.141V112.573ZM204.485 114.141C204.494 114.498 204.655 114.676 204.968 114.676C205.278 114.676 205.437 114.498 205.447 114.141V112.573C205.447 112.273 205.396 112.1 205.295 112.056C205.238 112.031 205.136 112.018 204.987 112.018C204.946 112.018 204.903 112.02 204.859 112.023C204.61 112.032 204.485 112.216 204.485 112.573V114.141Z" fill="#AD3279"></path><path d="M207.545 97.6014C207.545 96.7359 207.976 95.9952 208.839 95.3793C209.647 94.8012 210.053 94.3179 210.056 93.9294V92.1053C210.056 91.7484 209.903 91.5699 209.597 91.5699H209.587C209.278 91.5699 209.123 91.7484 209.123 92.1053V93.4462H207.545V92.1053C207.545 90.7376 208.226 90.0537 209.587 90.0537C210.952 90.0537 211.634 90.7376 211.634 92.1053V93.9626C211.634 94.8439 211.201 95.594 210.336 96.2131C209.527 96.7912 209.123 97.2918 209.123 97.7151V98.1794H211.634V99.6908H207.545V97.6014ZM214.434 93.6215C214.434 93.991 214.594 94.1758 214.913 94.1758C215.235 94.1758 215.396 93.991 215.396 93.6215V92.1053C215.387 91.7484 215.227 91.5699 214.917 91.5699C214.605 91.5699 214.444 91.7484 214.434 92.1053V93.6215ZM212.871 96.2179C212.871 95.5735 213.082 95.1424 213.506 94.9244C213.082 94.7065 212.871 94.2753 212.871 93.6309V92.1053C212.871 90.7408 213.553 90.0569 214.917 90.0537C216.279 90.0537 216.96 90.7376 216.96 92.1053V93.6309C216.96 94.2753 216.748 94.7065 216.325 94.9244C216.748 95.1424 216.96 95.5735 216.96 96.2179V97.7862C216.96 99.1539 216.279 99.8377 214.917 99.8377C213.553 99.8345 212.871 99.1507 212.871 97.7862V96.2179ZM214.434 97.7862C214.444 98.1431 214.605 98.3215 214.917 98.3215C215.227 98.3215 215.387 98.1431 215.396 97.7862V96.2179C215.396 95.9178 215.345 95.7457 215.244 95.7014C215.188 95.6762 215.085 95.6635 214.936 95.6635C214.895 95.6635 214.853 95.6651 214.808 95.6683C214.559 95.6777 214.434 95.861 214.434 96.2179V97.7862ZM222.124 90.2054V95.9004H222.64V97.4119H222.124V99.6908H220.546V97.4119H217.827V96.1279L220.21 90.2054H222.124ZM219.428 95.9004H220.546V93.0624L219.428 95.9004ZM223.479 91.7168V90.2054H227.682V91.2619L225.786 99.6908H224.171L225.962 91.7168H223.479ZM231.68 90.2054V98.1794H232.936V99.6908H228.847V98.1794H230.103V91.7168H228.847V90.2054H231.68Z" fill="#AD3279"></path><path d="M181.714 127.729C181.714 126.864 182.145 126.123 183.008 125.507C183.816 124.929 184.222 124.446 184.225 124.057V122.233C184.225 121.876 184.072 121.698 183.766 121.698H183.756C183.447 121.698 183.292 121.876 183.292 122.233V123.574H181.714V122.233C181.714 120.865 182.395 120.181 183.756 120.181C185.121 120.181 185.803 120.865 185.803 122.233V124.09C185.803 124.972 185.37 125.722 184.505 126.341C183.696 126.919 183.292 127.419 183.292 127.843V128.307H185.803V129.818H181.714V127.729ZM190.967 120.333V126.028H191.484V127.54H190.967V129.818H189.39V127.54H186.67V126.256L189.053 120.333H190.967ZM188.271 126.028H189.39V123.19L188.271 126.028ZM194.834 125.279C194.834 124.989 194.785 124.823 194.687 124.782C194.63 124.754 194.527 124.739 194.379 124.739C194.341 124.739 194.301 124.741 194.26 124.744C194.055 124.754 193.94 124.845 193.914 125.019L193.895 125.483H192.318L192.526 120.333H196.411V121.844H194.042L193.967 123.432C194.064 123.318 194.33 123.261 194.763 123.261C194.823 123.261 194.883 123.264 194.943 123.271C195.448 123.315 195.833 123.519 196.099 123.882C196.307 124.169 196.411 124.635 196.411 125.279V127.919C196.411 129.283 195.729 129.965 194.365 129.965C193.003 129.965 192.322 129.283 192.322 127.919V126.725H193.9V127.919C193.9 128.275 194.055 128.454 194.365 128.454C194.677 128.454 194.834 128.275 194.834 127.919V125.279ZM201.618 120.333V126.028H202.135V127.54H201.618V129.818H200.041V127.54H197.321V126.256L199.704 120.333H201.618ZM198.922 126.028H200.041V123.19L198.922 126.028ZM207.105 127.919C207.105 129.283 206.423 129.965 205.058 129.965C203.697 129.965 203.016 129.283 203.016 127.919V122.233C203.016 120.865 203.697 120.181 205.058 120.181C206.423 120.181 207.105 120.865 207.105 122.233V123.574H205.527V122.233C205.527 121.876 205.372 121.698 205.063 121.698H205.053C204.747 121.698 204.594 121.876 204.594 122.233V124.247C204.73 124.123 204.998 124.062 205.399 124.062C205.469 124.062 205.541 124.065 205.617 124.071C206.082 124.119 206.445 124.285 206.707 124.569C206.972 124.856 207.105 125.357 207.105 126.071V127.919ZM204.594 127.919C204.594 128.275 204.749 128.454 205.058 128.454C205.371 128.454 205.527 128.275 205.527 127.919V126.071C205.527 125.777 205.478 125.611 205.38 125.573C205.324 125.545 205.221 125.531 205.072 125.531C205.034 125.531 204.995 125.532 204.954 125.535C204.714 125.545 204.594 125.723 204.594 126.071V127.919Z" fill="#501537"></path><rect x="181.459" y="162.755" width="50.3255" height="0.91501" fill="black"></rect><circle cx="15.5552" cy="15.5552" r="15.5552" transform="matrix(-1 0 0 1 283.818 130.586)" fill="#B6C647"></circle><rect x="-0.474696" y="0.474696" width="72.2514" height="109.767" rx="4.27226" transform="matrix(-1 0 0 1 240.781 71.1127)" stroke="#D9D9D9" stroke-width="0.949392"></rect><path fill-rule="evenodd" clip-rule="evenodd" d="M32.4789 126.392C39.2396 119.003 59.6477 99.0352 73.9868 100.922L70.685 120.733C62.2454 123.623 50.9153 132.974 44.0085 140.722C53.8451 148.336 63.389 156.665 63.1416 159.883C62.9284 162.654 62.1369 163.788 61.3335 164.938C60.3596 166.333 59.3681 167.752 59.3681 172.146C59.3681 178.523 39.9488 159.169 31.5459 149.851C26.2316 146.626 22.0494 135.874 32.4789 126.392Z" fill="#B6C647"></path><path d="M73.9868 100.922L74.0187 100.679L74.2698 100.712L74.2282 100.962L73.9868 100.922ZM32.4789 126.392L32.6594 126.558L32.6518 126.566L32.6435 126.574L32.4789 126.392ZM70.685 120.733L70.9264 120.773L70.9024 120.917L70.7643 120.964L70.685 120.733ZM44.0085 140.722L43.8588 140.916L43.6514 140.755L43.8259 140.559L44.0085 140.722ZM63.1416 159.883L62.8976 159.864L63.1416 159.883ZM61.3335 164.938L61.1329 164.798L61.3335 164.938ZM31.5459 149.851L31.6728 149.642L31.7035 149.661L31.7276 149.687L31.5459 149.851ZM73.9549 101.165C70.4306 100.701 66.5132 101.578 62.4987 103.292C58.4866 105.004 54.3967 107.542 50.5357 110.376C42.8138 116.043 36.0337 122.869 32.6594 126.558L32.2983 126.227C35.6848 122.526 42.4891 115.674 50.2462 109.981C54.1248 107.135 58.248 104.574 62.3066 102.842C66.3627 101.111 70.3735 100.2 74.0187 100.679L73.9549 101.165ZM70.4437 120.692L73.7454 100.882L74.2282 100.962L70.9264 120.773L70.4437 120.692ZM43.8259 140.559C47.2896 136.674 51.86 132.388 56.6224 128.712C61.3815 125.038 66.3488 121.959 70.6058 120.501L70.7643 120.964C66.5817 122.396 61.664 125.438 56.9215 129.099C52.1822 132.758 47.6342 137.022 44.1912 140.885L43.8259 140.559ZM62.8976 159.864C62.9239 159.522 62.8205 159.084 62.5721 158.551C62.3253 158.022 61.945 157.417 61.4439 156.749C60.4419 155.412 58.9756 153.842 57.1872 152.128C53.6118 148.701 48.7746 144.721 43.8588 140.916L44.1583 140.529C49.079 144.338 53.932 148.33 57.5259 151.775C59.3222 153.496 60.8102 155.088 61.8355 156.455C62.3481 157.139 62.7496 157.773 63.0158 158.345C63.2804 158.912 63.4211 159.439 63.3855 159.901L62.8976 159.864ZM61.1329 164.798C61.535 164.222 61.9195 163.67 62.2332 162.924C62.5463 162.178 62.7926 161.228 62.8976 159.864L63.3855 159.901C63.2773 161.309 63.0213 162.311 62.6844 163.113C62.3483 163.913 61.9353 164.504 61.5341 165.078L61.1329 164.798ZM59.1234 172.146C59.1234 169.932 59.3732 168.45 59.7541 167.338C60.1358 166.224 60.645 165.497 61.1329 164.798L61.5341 165.078C61.0481 165.774 60.5746 166.453 60.2171 167.497C59.8588 168.542 59.6128 169.967 59.6128 172.146H59.1234ZM31.7276 149.687C35.925 154.341 42.8738 161.502 48.7699 166.7C51.7217 169.303 54.394 171.399 56.3196 172.448C56.7996 172.71 57.227 172.902 57.5961 173.022C57.9679 173.143 58.2646 173.184 58.4894 173.158C58.7053 173.133 58.8497 173.049 58.9475 172.909C59.0518 172.76 59.1234 172.519 59.1234 172.146H59.6128C59.6128 172.571 59.5327 172.926 59.3485 173.189C59.1577 173.462 58.8767 173.606 58.5452 173.644C58.2226 173.681 57.8499 173.619 57.4451 173.488C57.0377 173.356 56.5815 173.148 56.0855 172.878C54.1074 171.8 51.3997 169.671 48.4463 167.067C42.5319 161.853 35.5696 154.678 31.3641 150.015L31.7276 149.687ZM32.6435 126.574C27.4791 131.268 25.954 136.253 26.352 140.445C26.7514 144.649 29.0863 148.072 31.6728 149.642L31.4189 150.06C28.6911 148.405 26.2778 144.839 25.8648 140.491C25.4506 136.129 27.0491 130.998 32.3143 126.211L32.6435 126.574Z" fill="#87942C"></path><path d="M60.3131 105.174C65.5043 101.4 101.82 92.4388 112.197 108.947C120.459 132.113 116.28 170.804 109.705 190.293C100.758 193.981 59.9494 201.17 57.481 185.832C50.8769 144.795 53.4037 110.196 60.3131 105.174Z" fill="#DFDFDF"></path><path fill-rule="evenodd" clip-rule="evenodd" d="M132.388 166.943C132.417 166.95 132.446 166.956 132.476 166.962C138.169 168.142 143.538 155.13 148.885 142.169C150.136 139.137 151.386 136.107 152.639 133.263L139.647 123.712L131.393 140.524C124.946 130.493 120.689 123.467 117.625 118.41C110.403 106.49 109.806 105.505 102.762 101.87C92.2894 96.4651 92.3393 96.5336 95.9435 101.478C101.138 108.606 113.718 125.864 112.815 151.467C118.979 159.278 127.362 166.519 132.388 166.943Z" fill="#B6C647"></path><path d="M132.388 166.943L132.409 166.699L132.425 166.701L132.44 166.704L132.388 166.943ZM132.476 166.962L132.426 167.201H132.426L132.476 166.962ZM148.885 142.169L149.111 142.262L148.885 142.169ZM152.639 133.263L152.784 133.066L152.942 133.182L152.863 133.362L152.639 133.263ZM139.647 123.712L139.428 123.604L139.557 123.342L139.792 123.515L139.647 123.712ZM131.393 140.524L131.613 140.632L131.422 141.021L131.187 140.657L131.393 140.524ZM117.625 118.41L117.416 118.537L117.625 118.41ZM102.762 101.87L102.649 102.087L102.762 101.87ZM95.9435 101.478L95.7457 101.623L95.9435 101.478ZM112.815 151.467L112.623 151.618L112.567 151.548L112.57 151.458L112.815 151.467ZM132.44 166.704C132.469 166.71 132.497 166.716 132.526 166.722L132.426 167.201C132.396 167.195 132.366 167.189 132.336 167.182L132.44 166.704ZM132.526 166.722C133.84 166.995 135.166 166.458 136.525 165.227C137.885 163.996 139.241 162.101 140.598 159.746C143.311 155.038 145.983 148.561 148.659 142.076L149.111 142.262C146.44 148.737 143.754 155.248 141.022 159.99C139.657 162.361 138.27 164.308 136.854 165.59C135.438 166.872 133.958 167.519 132.426 167.201L132.526 166.722ZM148.659 142.076C149.91 139.044 151.161 136.012 152.415 133.165L152.863 133.362C151.611 136.203 150.363 139.23 149.111 142.262L148.659 142.076ZM152.494 133.461L139.502 123.909L139.792 123.515L152.784 133.066L152.494 133.461ZM139.867 123.82L131.613 140.632L131.174 140.416L139.428 123.604L139.867 123.82ZM131.187 140.657C124.738 130.622 120.48 123.595 117.416 118.537L117.834 118.283C120.898 123.34 125.153 130.363 131.599 140.392L131.187 140.657ZM117.416 118.537C113.799 112.567 111.858 109.365 109.943 107.195C108.043 105.04 106.167 103.902 102.649 102.087L102.874 101.652C106.401 103.472 108.346 104.645 110.31 106.871C112.261 109.083 114.229 112.333 117.834 118.283L117.416 118.537ZM102.649 102.087C100.03 100.735 98.0734 99.7282 96.6658 99.0538C95.9618 98.7165 95.3997 98.4647 94.9633 98.2951C94.519 98.1224 94.2303 98.0454 94.0623 98.0374C93.9775 98.0334 93.9622 98.0493 93.9739 98.0415C94.0013 98.0231 94.0008 97.9962 94.0002 98.0125C93.9993 98.0398 94.0078 98.0991 94.0471 98.2021C94.085 98.3014 94.145 98.4245 94.2288 98.5733C94.5678 99.1748 95.2354 100.091 96.1412 101.334L95.7457 101.623C94.8495 100.393 94.1592 99.4467 93.8025 98.8135C93.7124 98.6537 93.6398 98.5073 93.5899 98.3767C93.5415 98.2499 93.5069 98.1189 93.5111 97.9957C93.5157 97.8616 93.5686 97.7241 93.701 97.6352C93.8176 97.5569 93.9588 97.5425 94.0856 97.5486C94.3405 97.5607 94.6948 97.6656 95.1406 97.8389C95.5943 98.0152 96.1695 98.2733 96.8772 98.6124C98.2929 99.2907 100.257 100.302 102.874 101.652L102.649 102.087ZM96.1412 101.334C101.341 108.468 113.965 125.785 113.059 151.475L112.57 151.458C113.47 125.943 100.936 108.743 95.7457 101.623L96.1412 101.334ZM113.007 151.315C116.08 155.209 119.704 158.959 123.183 161.785C124.922 163.199 126.621 164.378 128.193 165.229C129.768 166.082 131.2 166.597 132.409 166.699L132.367 167.187C131.063 167.077 129.563 166.528 127.96 165.66C126.354 164.79 124.629 163.591 122.874 162.165C119.364 159.313 115.715 155.536 112.623 151.618L113.007 151.315Z" fill="#87942C"></path><path d="M96.164 104.23C90.8524 96.8962 90.1209 93.3897 93.8058 82.0601C85.2745 78.3895 71.5479 64.1363 74.3764 77.9338C76.2238 86.9459 77.6797 97.7443 71.5478 103.405C84.8413 114.135 101.476 111.563 96.164 104.23Z" fill="#DA9A6B" stroke="#B97A4C" stroke-width="0.489405"></path><path d="M72.9867 73.8888C73.4004 79.0158 75.335 82.4067 78.3789 84.9308C81.4275 87.4588 85.6012 89.1283 90.5332 90.7741C94.3464 90.4496 97.1583 88.2565 98.9261 84.8561C100.706 81.4324 101.423 76.7874 101.007 71.6278C100.592 66.4868 98.6363 61.9693 95.8212 58.82C93.0062 55.6709 89.3434 53.8999 85.5001 54.21C81.6568 54.5201 78.3254 56.8555 76.0517 60.4152C73.778 63.9751 72.5719 68.7478 72.9867 73.8888Z" fill="#DA9A6B" stroke="#B97A4C" stroke-width="0.489405"></path><path d="M106.565 296.101C106.185 283.249 114.957 219.248 111.316 188.854C111.316 188.854 101.819 191.893 84.7236 191.893C67.628 191.893 59.0825 180.169 59.0825 180.169C56.7081 228.8 61.4515 286.114 63.351 302.614C64.068 308.842 75.8561 306.232 82.3461 304.785L85.481 253.115L84.7236 304.785C93.9045 307.246 106.945 308.953 106.565 296.101Z" fill="#1F271B" stroke="#415636" stroke-width="0.489405"></path><path d="M114.562 199.978L116.449 157.999C116.449 118.755 106.072 109.258 100.412 108.472C118.336 153.282 103.714 199.978 107.016 204.223C109.657 207.619 113.147 202.808 114.562 199.978Z" fill="#B6C647"></path><path d="M113.619 129.226C113.619 129.226 116.449 149.98 116.449 156.112C116.449 162.244 114.562 199.978 114.562 199.978C113.147 202.808 109.657 207.619 107.016 204.223C106.701 203.437 106.261 199.978 107.016 192.431C107.959 182.998 115.506 148.093 100.412 108.472" stroke="#87942C" stroke-width="0.489405"></path><path d="M71.1592 204.223L73.0459 108.943C72.1025 87.7186 40.0282 120.736 54.6503 121.207C54.0214 141.489 50.8769 181.112 50.8769 191.015C52.3863 197.43 64.7129 202.493 71.1592 204.223Z" fill="#B6C647"></path><path d="M73.0459 108.944L71.1592 204.224C64.7129 202.494 52.3863 197.431 50.8769 191.016C52.4492 167.905 55.3107 121.021 54.1787 118.38" stroke="#87942C" stroke-width="0.489405"></path><path d="M92.8613 97.1566C93.9933 96.7792 97.7353 98.8861 99.4648 99.9866C99.4648 108.288 94.5908 110.992 90.9746 110.835C91.9179 106.747 91.7293 97.5339 92.8613 97.1566Z" fill="#DFDFDF" stroke="#B1B1B1" stroke-width="0.489405"></path><path d="M74.4678 98.0996C73.3358 97.7223 70.0654 99.3573 68.3359 100.458C68.8076 110.835 86.8887 110.992 90.5049 110.835C89.5616 106.747 75.5998 98.477 74.4678 98.0996Z" fill="#DFDFDF" stroke="#B1B1B1" stroke-width="0.489405"></path><path d="M90.4992 110.83C90.9709 112.245 99.9328 153.282 94.7444 191.959" stroke="#B1B1B1" stroke-width="0.489405"></path><path d="M78.4135 66.8376C78.7909 62.3095 76.0551 60.2341 74.1684 60.2341C68.9799 66.3659 72.2815 71.0827 71.8098 73.4411C71.3381 75.7995 76.9983 75.3279 78.4133 76.2712C79.8284 77.2146 77.9419 72.4978 78.4135 66.8376Z" fill="#727272" stroke="#535353" stroke-width="0.474696"></path><path d="M78.9894 56.3711L84.1778 60.6162C92.1964 54.9562 105.875 68.6348 96.4416 58.7295C88.8947 50.8053 81.6622 53.8555 78.9894 56.3711Z" fill="#727272" stroke="#535353" stroke-width="0.474696"></path><path d="M84.8087 87.5866C90.5797 91.3601 97.3171 87.472 98.5348 86.2142C103 92.346 91.285 93.3812 88.6163 93.3812C83.4361 93.3811 72.545 79.568 84.8087 87.5866Z" fill="#9C9C9C" stroke="#818181" stroke-width="0.489405"></path><path d="M98.8924 81.21C98.1382 80.0787 96.0641 79.4816 95.1213 79.3244C93.2361 78.9473 93.7073 79.7958 94.1786 80.2672C96.0641 81.0528 99.6466 82.3413 98.8924 81.21Z" fill="#727272"></path><path d="M87.2556 81.21C88.0098 80.0787 90.0839 79.4816 91.0266 79.3244C92.9119 78.9473 92.4406 79.7958 91.9694 80.2672C90.0839 81.0528 86.5014 82.3413 87.2556 81.21Z" fill="#727272"></path><path d="M100.877 175.453L94.2734 116.493H90.0283L91.915 175.453L96.1601 181.113L100.877 175.453Z" fill="#501537" stroke="#370C25" stroke-width="0.489405"></path><path d="M94.2662 110.363C93.1342 110.741 91.5934 110.835 90.9645 110.835C89.5494 110.678 87.0022 110.458 88.1343 110.835C89.5493 111.307 87.1971 117.438 88.6061 116.967C89.6063 116.632 96.1528 117.438 95.2096 115.552C94.613 114.359 95.6813 109.892 94.2662 110.363Z" fill="#501537" stroke="#370C25" stroke-width="0.489405"></path><path d="M150.964 108.477C148.436 108.218 144.664 119.349 142.858 125.924L149.934 131.113C152.492 127.879 155.658 121.024 156.381 119.472C157.283 117.531 154.123 108.8 150.964 108.477Z" fill="#DA9A6B"></path><path d="M149.936 113.192C149.464 114.607 147.577 116.022 147.105 116.493C146.791 117.594 147.577 125.455 144.275 123.097C141.917 121.412 144.275 113.663 146.634 113.192C148.992 112.72 150.407 111.777 149.936 113.192Z" fill="#DA9A6B"></path><path d="M142.858 125.924C143.236 125.547 143.644 123.566 143.802 122.623C143.33 119.95 143.33 114.321 147.103 113.189C147.732 111.302 149.651 107.812 152.292 108.944C154.933 110.076 156.223 116.019 156.537 118.849C154.808 122.308 151.066 129.604 149.934 131.113" stroke="#B97A4C" stroke-width="0.489405"></path><path d="M174.935 76.3972L150.408 115.075C148.898 115.83 149.15 114.761 149.464 114.132C156.539 102.654 171.067 79.2273 172.577 77.3406C174.086 75.4539 174.778 75.9255 174.935 76.3972Z" fill="#501537"></path><circle cx="15.5552" cy="15.5552" r="15.5552" transform="matrix(-1 0 0 1 199.64 189.145)" fill="#1F271B"></circle><circle cx="38.0365" cy="38.0365" r="38.0365" transform="matrix(-0.635456 0.772137 0.772137 0.635456 263.998 164.849)" fill="#1F271B"></circle><circle cx="14.0737" cy="14.0737" r="14.0737" transform="matrix(-1 0 0 1 198.162 190.623)" fill="#D9D9D9"></circle><circle cx="34.5469" cy="34.5469" r="34.5469" transform="matrix(-0.635456 0.772137 0.772137 0.635456 264.475 169.762)" fill="#D9D9D9"></circle><path d="M170.014 204.697C170.014 207.795 171.036 210.806 172.922 213.264C174.808 215.722 177.453 217.489 180.445 218.291C183.438 219.093 186.611 218.885 189.474 217.699C192.336 216.513 194.727 214.416 196.276 211.733C197.825 209.05 198.446 205.931 198.041 202.86C197.637 199.788 196.23 196.936 194.04 194.745C191.849 192.554 188.996 191.148 185.925 190.743C182.853 190.339 179.734 190.959 177.051 192.508L184.088 204.697H170.014Z" fill="#B6C647"></path><path d="M247.244 245.064C253.116 249.897 260.418 252.657 268.019 252.916C275.619 253.176 283.093 250.92 289.281 246.498C295.468 242.077 300.024 235.738 302.242 228.463C304.46 221.189 304.215 213.386 301.546 206.265C298.877 199.144 293.933 193.102 287.48 189.077C281.027 185.053 273.427 183.269 265.858 184.004C258.288 184.739 251.173 187.952 245.615 193.143C240.058 198.334 236.368 205.213 235.119 212.715L269.197 218.39L247.244 245.064Z" fill="#B6C647"></path><path d="M170.014 204.697C170.014 207.011 170.585 209.29 171.676 211.331C172.767 213.372 174.345 215.113 176.269 216.398C178.193 217.684 180.405 218.476 182.708 218.702C185.012 218.929 187.335 218.585 189.474 217.699C191.612 216.813 193.499 215.414 194.967 213.625C196.435 211.836 197.44 209.712 197.891 207.442C198.343 205.172 198.227 202.826 197.556 200.611C196.884 198.396 195.676 196.381 194.04 194.745L184.088 204.697H170.014Z" fill="#AD3279"></path><path d="M247.244 245.064C251.63 248.675 256.84 251.147 262.41 252.263C267.981 253.379 273.741 253.104 279.179 251.463C284.618 249.821 289.568 246.863 293.591 242.851C297.614 238.84 300.585 233.898 302.242 228.463C303.899 223.029 304.19 217.27 303.089 211.696C301.988 206.123 299.53 200.907 295.932 196.51C292.334 192.113 287.707 188.672 282.461 186.491C277.215 184.309 271.512 183.455 265.858 184.004L269.197 218.39L247.244 245.064Z" fill="#AD3279"></path><path d="M170.014 204.697C170.014 207.795 171.036 210.806 172.922 213.264C174.808 215.722 177.453 217.489 180.445 218.291L184.088 204.697H170.014Z" fill="#501537"></path><path d="M247.244 245.064C253.116 249.897 260.418 252.657 268.019 252.916C275.619 253.176 283.093 250.92 289.281 246.498L269.197 218.39L247.244 245.064Z" fill="#501537"></path><circle cx="13.7251" cy="13.7251" r="13.7251" transform="matrix(-1 0 0 1 281.992 132.418)" fill="#AD3279"></circle><path d="M254.541 146.143C254.541 149.011 255.44 151.806 257.11 154.137C258.781 156.468 261.139 158.218 263.855 159.14C266.57 160.061 269.506 160.109 272.251 159.277C274.995 158.444 277.41 156.773 279.155 154.498C280.901 152.223 281.891 149.458 281.984 146.592C282.078 143.726 281.272 140.902 279.679 138.517C278.085 136.133 275.785 134.307 273.101 133.297C270.417 132.287 267.484 132.143 264.714 132.885L268.267 146.143H254.541Z" fill="#501537"></path></g><rect x="264.511" y="48.993" width="41.1754" height="45.7505" rx="2.84818" fill="#501537"></rect><rect x="267.487" y="52.8917" width="40.7007" height="45.2758" rx="0.712044" fill="#AD3279" stroke="#501537" stroke-width="0.474696"></rect><path d="M290.807 70.1485V64.9299C288.189 64.5433 282.954 64.1181 282.954 65.5097C282.954 67.2493 281.833 73.0479 285.759 73.6277C289.685 74.2076 291.928 73.0479 291.928 75.9471C291.928 78.8464 292.489 85.2247 288.563 84.6449C284.637 84.065 283.515 83.4852 283.515 82.3255C283.515 81.3977 283.889 78.4598 284.076 77.1068" stroke="#501537" stroke-width="1.89878" stroke-linecap="round"></path><path d="M287.378 62.7197L288.293 87.4249" stroke="#501537" stroke-width="1.89878" stroke-linecap="round"></path></svg>