<svg xmlns="http://www.w3.org/2000/svg" width="312" height="233" viewBox="0 0 312 233" fill="none"><path fill-rule="evenodd" clip-rule="evenodd" d="M150.288 208.549C129.507 203.244 101.427 219.08 82.1957 210.415C59.4798 200.179 45.9571 175.751 34.5176 156.382C20.7681 133.102 3.08784 104.683 17.115 82.3334C31.2349 59.8357 72.2358 65.3261 99.0781 53.516C124.378 42.3844 140.167 13.8124 169.146 15.443C198.114 17.073 230.877 24.474 253.096 40.7267C275.7 57.2622 293.258 87.1276 300.252 111.348C307.249 135.577 294.744 144.597 282.523 166.748C270.799 188.002 248.92 212.88 222.111 219.703C194.156 226.818 178.783 215.823 150.288 208.549Z" fill="#B6C647"></path><rect x="105.482" y="26.0056" width="185.005" height="148.278" rx="1.44759" fill="#1F271B" stroke="#FEFEFE" stroke-width="0.193012"></rect><rect x="96.1031" y="33.819" width="185.005" height="148.278" rx="1.44759" fill="#FEFEFE" stroke="#1F271B" stroke-width="0.193012"></rect><circle cx="136.639" cy="113.428" r="24.1278" stroke="#1F271B" stroke-width="0.193012"></circle><mask id="path-5-inside-1_7467_1514" fill="white"><path d="M160.863 113.428C160.863 108.096 159.104 102.912 155.857 98.6816C152.611 94.4509 148.06 91.4097 142.909 90.0295L136.639 113.428H160.863Z"></path></mask><path d="M160.863 113.428C160.863 108.096 159.104 102.912 155.857 98.6816C152.611 94.4509 148.06 91.4097 142.909 90.0295L136.639 113.428H160.863Z" fill="#AD3279" stroke="#1F271B" stroke-width="0.386025" mask="url(#path-5-inside-1_7467_1514)"></path><path d="M158.678 123.102C157.333 126.119 155.384 128.827 152.951 131.059L136.845 113.512L148.753 112.744L160.765 112.744C160.732 116.063 160.021 120.089 158.678 123.102Z" fill="#B6C647" stroke="#1F271B" stroke-width="0.193012"></path><rect x="112.418" y="50.1332" width="45.3228" height="3.90714" rx="1.93012" fill="#B6C647"></rect><rect width="35.1643" height="3.90714" rx="1.93012" transform="matrix(1 0 0 -1 112.418 81.3895)" fill="#1F271B"></rect><rect x="112.418" y="55.602" width="45.3228" height="3.90714" rx="1.93012" fill="#B6C647"></rect><rect width="45.3228" height="3.90714" rx="1.93012" transform="matrix(1 0 0 -1 112.418 75.9207)" fill="#1F271B"></rect><rect x="112.418" y="61.0709" width="32.82" height="3.90714" rx="1.93012" fill="#B6C647"></rect><rect width="45.3228" height="3.90714" rx="1.93012" transform="matrix(1 0 0 -1 112.418 70.4491)" fill="#1F271B"></rect><rect x="189.092" y="50.2282" width="81.8569" height="81.8569" stroke="#1F271B" stroke-width="0.193012"></rect><rect x="189.044" y="50.1799" width="81.9535" height="16.3135" stroke="#1F271B" stroke-width="0.0965061"></rect><rect x="189.044" y="66.5919" width="81.9535" height="16.3135" stroke="#1F271B" stroke-width="0.0965061"></rect><rect x="189.044" y="83.0038" width="81.9535" height="16.3135" stroke="#1F271B" stroke-width="0.0965061"></rect><rect x="189.044" y="99.4131" width="81.9535" height="16.3135" stroke="#1F271B" stroke-width="0.0965061"></rect><rect x="189.044" y="115.822" width="81.9535" height="16.3135" stroke="#1F271B" stroke-width="0.0965061"></rect><rect x="189.044" y="132.135" width="81.9535" height="16.3135" transform="rotate(-90 189.044 132.135)" stroke="#1F271B" stroke-width="0.0965061"></rect><rect x="205.455" y="132.135" width="81.9535" height="16.3135" transform="rotate(-90 205.455 132.135)" stroke="#1F271B" stroke-width="0.0965061"></rect><rect x="221.868" y="132.135" width="81.9535" height="16.3135" transform="rotate(-90 221.868 132.135)" stroke="#1F271B" stroke-width="0.0965061"></rect><rect x="238.277" y="132.135" width="81.9535" height="16.3135" transform="rotate(-90 238.277 132.135)" stroke="#1F271B" stroke-width="0.0965061"></rect><rect x="254.679" y="132.135" width="81.9535" height="16.3135" transform="rotate(-90 254.679 132.135)" stroke="#1F271B" stroke-width="0.0965061"></rect><path d="M190.103 121.178C190.066 121.216 190.066 121.277 190.104 121.315C190.142 121.352 190.203 121.352 190.241 121.314L190.103 121.178ZM216.741 94.2868L216.817 94.2278L216.75 94.1403L216.672 94.219L216.741 94.2868ZM227.29 107.962L227.214 108.021L227.332 108.174L227.383 107.987L227.29 107.962ZM232.76 88.0353L232.684 87.9755L232.672 87.9909L232.667 88.0098L232.76 88.0353ZM244.481 73.1882L244.555 73.1261L244.479 73.0354L244.406 73.1284L244.481 73.1882ZM252.686 82.9561L252.612 83.0181L252.717 83.142L252.776 82.9916L252.686 82.9561ZM260.11 64.2018L260.189 64.1467L260.086 63.999L260.02 64.1663L260.11 64.2018ZM265.847 73.1882C265.847 73.4725 266.077 73.7029 266.361 73.7029C266.646 73.7029 266.876 73.4725 266.876 73.1882C266.876 72.9039 266.646 72.6735 266.361 72.6735C266.077 72.6735 265.847 72.9039 265.847 73.1882ZM190.241 121.314L216.809 94.3545L216.672 94.219L190.103 121.178L190.241 121.314ZM216.664 94.3457L227.214 108.021L227.366 107.903L216.817 94.2278L216.664 94.3457ZM227.383 107.987L232.853 88.0609L232.667 88.0098L227.197 107.936L227.383 107.987ZM232.836 88.0951L244.557 73.248L244.406 73.1284L232.684 87.9755L232.836 88.0951ZM244.407 73.2503L252.612 83.0181L252.76 82.894L244.555 73.1261L244.407 73.2503ZM252.776 82.9916L260.2 64.2373L260.02 64.1663L252.597 82.9205L252.776 82.9916ZM260.031 64.2569L266.282 73.2433L266.441 73.1331L260.189 64.1467L260.031 64.2569Z" fill="#AD3279"></path><mask id="mask0_7467_1514" style="mask-type:alpha" maskUnits="userSpaceOnUse" x="10" y="15" width="291" height="208"><path fill-rule="evenodd" clip-rule="evenodd" d="M148.589 208.55C127.808 203.245 99.7278 219.081 80.4967 210.416C57.7809 200.18 44.2581 175.752 32.8186 156.383C19.0691 133.103 1.38887 104.684 15.416 82.3342C29.5359 59.8365 70.5368 65.3269 97.3791 53.5168C122.679 42.3852 138.469 13.8133 167.447 15.4438C196.415 17.0739 229.178 24.4749 251.397 40.7275C274.001 57.263 291.559 87.1284 298.553 111.349C305.55 135.578 293.045 144.598 280.824 166.749C269.1 188.003 247.221 212.88 220.412 219.704C192.457 226.819 177.084 215.824 148.589 208.55Z" fill="#B6C647"></path></mask><g mask="url(#mask0_7467_1514)"><path d="M83.8302 132.195C89.5576 124.446 99.1314 120.543 103.202 119.561C109.941 120.824 103.623 122.509 98.9908 133.879C94.3583 145.25 50.9817 202.103 56.8776 186.942C62.7734 171.781 42.9801 175.572 54.7719 169.254C66.5637 162.937 76.6709 141.881 83.8302 132.195Z" fill="#501537" stroke="#380D26" stroke-width="0.0965061"></path><path d="M100.517 128.688L128.118 127.81V163.783H95.6545L100.517 128.688Z" fill="#DFDFDF"></path><path d="M212.841 125.225C210.391 124.387 200.066 126.493 191.731 135.705C191.277 138.268 189.974 147.386 192.424 147.945C195.487 148.644 209.098 140.605 209.438 138.508C209.779 136.41 208 138.857 203.576 138.508C199.152 138.158 215.904 126.274 212.841 125.225Z" fill="#F6C598" stroke="#D9A16E" stroke-width="0.0965061"></path><path d="M80.7459 234.409C81.6957 223.924 84.4006 205.309 86.4478 197.121C102.241 195.22 130.44 195.19 130.791 199.753C131.229 205.456 136.46 266.434 136.021 281.788C135.67 294.071 122.422 289.831 114.525 290.562C113.94 273.453 112.595 235.111 111.893 230.9C111.015 225.635 109.265 227.94 106.63 241.867C103.559 258.099 101.364 286.614 100.487 290.562C99.6097 294.51 82.5002 293.633 79.4294 292.317C76.3585 291.001 79.3949 249.325 80.7459 234.409Z" fill="#DFDFDF" stroke="#B1B1B1" stroke-width="0.0965061"></path><path d="M143.948 134.392C139.386 129.128 130.641 129.274 126.839 130.005C128.155 134.977 131.051 145.798 132.104 149.307C133.42 153.694 148.335 164.662 157.109 167.733C165.883 170.803 198.785 151.501 196.591 148.43C194.836 145.973 193.228 136.001 192.643 131.321C187.525 134.684 175.534 142.376 168.515 146.237C159.741 151.062 149.651 140.972 143.948 134.392Z" fill="#AD3279" stroke="#501537" stroke-width="0.0965061"></path><path d="M136.845 100.189C136.845 106.688 134.167 112.889 130.094 117.464C126.022 122.04 120.559 124.987 114.994 124.987C109.419 124.987 104.274 123.62 100.576 120C96.8776 116.38 94.6167 110.5 94.8269 101.454C95.6678 88.0007 104.701 79.6014 115.837 79.6014C126.978 79.6014 136.845 87.1946 136.845 100.189Z" fill="#501537" stroke="#380D26" stroke-width="0.0965061"></path><path d="M101.026 96.4328C102.975 90.3185 108.579 87.5534 112.5 86.5115C121.72 84.0622 133.612 100.78 122.984 113.382C113.967 124.074 104.112 118.069 101.097 112.12C99.1343 107.61 99.0774 102.547 101.026 96.4328Z" fill="#F6C598" stroke="#42102D" stroke-width="0.0926438"></path><path d="M126.843 99.9241C116.753 82.6223 103.918 92.3704 100.183 99.9243C102.56 91.6959 106.421 86.1318 115.437 86.1317C123.667 86.1317 125.729 95.5525 126.843 99.9241Z" fill="#DFDFDF" stroke="#42102D" stroke-width="0.0926438"></path><path d="M116.744 156.324C114.15 156.763 100.512 129.125 100.512 129.125C97.0023 135.705 85.9986 154.989 85.9986 165.975C85.9986 179.136 80.1487 196.537 84.2431 205.019C84.2431 205.019 95.2131 194.929 110.567 199.316C125.922 203.703 130.747 200.632 130.747 200.632C129.694 196.42 132.098 183.669 132.537 178.259C141.311 163.782 136.486 162.027 135.169 152.376C133.853 142.725 143.031 141.409 143.469 135.267C143.82 130.354 129.429 127.37 124.164 127.809C124.164 127.809 119.339 155.885 116.744 156.324Z" fill="#AD3279" stroke="#501537" stroke-width="0.0965061"></path><path d="M102.263 204.815C101.972 201.517 98.5048 199.885 96.8074 199.481C93.623 199.485 87.2081 199.913 87.0239 201.591C86.7937 203.688 93.8985 208.877 94.0441 210.526C94.1589 211.826 91.0593 212.608 89.5135 214.23C89.0998 214.665 89.8078 214.857 89.5135 215.497C88.1195 218.528 97.2451 218.551 100.094 217.884C102.943 217.217 102.627 208.937 102.263 204.815Z" fill="#F6C598"></path><path d="M89.5135 214.23C89.0998 214.665 89.8078 214.857 89.5135 215.497C88.1195 218.528 97.2451 218.551 100.094 217.884C102.943 217.217 102.627 208.937 102.263 204.815C101.972 201.517 98.5048 199.885 96.8074 199.481C93.623 199.485 87.2081 199.913 87.0239 201.591C86.7937 203.688 93.8985 208.877 94.0441 210.526C94.1589 211.826 91.0593 212.608 89.5135 214.23ZM89.5135 214.23C89.6835 214.658 90.4022 215.944 91.707 215.497C93.3379 214.937 94.0262 214.25 94.7778 213.353" stroke="#D9A16E" stroke-width="0.0910316"></path><path d="M95.1115 218.151C96.6108 217.88 99.716 216.664 100.143 213.968" stroke="#D9A16E" stroke-width="0.0910316"></path><path d="M89.5104 216.863C93.0199 217.741 97.148 215.816 97.6328 213.779" stroke="#D9A16E" stroke-width="0.0910316"></path><path d="M82.0958 139.652C88.2458 129.402 97.8887 127.369 100.082 129.123C111.927 146.232 83.8131 160.709 83.8131 171.677C83.8131 182.644 101.799 197.12 101.799 198.875C101.799 200.63 92.1486 206.333 88.6388 207.649C85.1289 208.965 70.6881 187.469 68.056 180.889C65.4238 174.309 74.1991 152.812 82.0958 139.652Z" fill="#AD3279"></path><path d="M85.5658 134.83C75.9146 146.236 65.4217 174.313 68.0538 180.893C70.686 187.474 85.1265 208.969 88.6364 207.653C92.1462 206.337 101.797 200.634 101.797 198.879C101.797 197.124 83.8107 181.77 83.8107 170.803C84.5419 166.562 89.6015 160.801 93.462 157.642" stroke="#501537" stroke-width="0.0965061"></path><path d="M132.951 146.237L139.093 147.553C154.885 132.198 133.828 130.444 132.512 130.005C131.459 129.654 129.149 129.859 128.125 130.005L132.951 146.237Z" fill="#AD3279"></path><path d="M101.097 124.299C100.423 122.952 99.9736 120.913 101.097 120.351C101.097 120.351 110.328 123.351 112.855 123.351C115.382 123.351 124.259 122.088 124.259 122.088C124.399 123.07 124.512 125.288 123.838 126.299C122.996 127.562 125.101 128.826 123.838 129.668C122.575 130.51 102.36 129.668 101.096 128.826C99.8331 127.983 101.939 125.984 101.097 124.299Z" fill="#501537" stroke="#380D26" stroke-width="0.0926438"></path><path d="M116.09 104.746C115.721 104.729 114.581 102.662 112.166 102.549C111.077 102.498 110.157 102.455 108.054 104.37" stroke="#501537" stroke-width="0.0965061"></path><circle cx="118.1" cy="103.061" r="3.97396" transform="rotate(2.67871 118.1 103.061)" fill="#ECD0B6" stroke="#501537" stroke-width="0.0965061"></circle><circle cx="106.053" cy="103.061" r="3.97396" transform="rotate(2.67871 106.053 103.061)" fill="#ECD0B6" stroke="#501537" stroke-width="0.0965061"></circle></g></svg>