<svg xmlns="http://www.w3.org/2000/svg" xmlns:xlink="http://www.w3.org/1999/xlink" id="Layer_1" x="0px" y="0px" viewBox="0 0 337 254" style="enable-background:new 0 0 337 254;" xml:space="preserve"><style type="text/css">	.st0{fill-rule:evenodd;clip-rule:evenodd;fill:#CCD74D;}	.st1{clip-path:url(#SVGID_00000005987784264095739180000002685120907038193849_);}	.st2{fill:#1F271B;}	.st3{fill:none;stroke:#1F271B;stroke-width:1.2676;}	.st4{fill:none;stroke:#F9FBE9;stroke-width:1.2676;}	.st5{fill:#F9FBE9;}	.st6{fill-rule:evenodd;clip-rule:evenodd;fill:#1F271B;}	.st7{fill:#B5B5B5;stroke:#1F271B;stroke-width:0.6948;}	.st8{fill:#FFFFFF;stroke:#1F271B;stroke-width:0.6948;}	.st9{fill:#C0C733;}	.st10{fill:#20281C;}	.st11{fill:none;stroke:#1F271B;stroke-width:2.5098;}	.st12{fill:#FBFF4A;}	.st13{fill:#AD3279;}	.st14{fill:#CCCCCC;}	.st15{fill:#CB6B12;stroke:#965111;stroke-width:0.3663;}	.st16{fill:#FFDBBA;stroke:#D7B392;stroke-width:0.7518;}	.st17{fill:#CB6B12;}	.st18{fill:#F9FBE9;stroke:#C2C69C;stroke-width:0.7518;}	.st19{fill:#DFDFDF;stroke:#B1B1B1;stroke-width:0.7518;}	.st20{fill:none;stroke:#965111;stroke-width:0.3663;}	.st21{fill:none;stroke:#C2C69C;stroke-width:0.7518;}	.st22{fill:none;}	.st23{fill-rule:evenodd;clip-rule:evenodd;fill:#00ABFF;}	.st24{fill:#001F38;}	.st25{fill:#31A8FF;}</style><path class="st0" d="M177.3,29.9c22.1,6.2,52.6-9.9,73-0.1c24.1,11.5,38,37.7,49.7,58.6c14.1,25.1,32.4,55.7,16.8,79 c-15.7,23.5-59.5,16.6-88.5,28.4c-27.4,11.1-45,41-76,38.5s-47-32.5-70.4-50.4c-23.8-18.1-60.7-29-67.6-54.9 C7.4,103.1,21,93.9,34.6,70.7c13.1-22.2,37.1-48,66-54.5C130.8,9.4,147,21.5,177.3,29.9z"></path><g>	<defs>		<path id="SVGID_1_" d="M177.3,29.9c22.1,6.2,52.6-9.9,73-0.1c24.1,11.5,38,37.7,49.7,58.6c14.1,25.1,32.4,55.7,16.8,79   c-15.7,23.5-59.5,16.6-88.5,28.4c-27.4,11.1-45,41-76,38.5s-47-32.5-70.4-50.4c-23.8-18.1-60.7-29-67.6-54.9   C7.4,103.1,21,93.9,34.6,70.7c13.1-22.2,37.1-48,66-54.5C130.8,9.4,147,21.5,177.3,29.9z"></path>	</defs>	<clipPath id="SVGID_00000021091703948401321410000011024979987279987122_">		<use xlink:href="#SVGID_1_" style="overflow:visible;"></use>	</clipPath>	<g style="clip-path:url(#SVGID_00000021091703948401321410000011024979987279987122_);">		<rect x="143.7" y="52.3" class="st2" width="40.3" height="1.6"></rect>		<rect x="136.3" y="49.7" class="st3" width="6.8" height="6.8"></rect>		<path class="st4" d="M147,72.3L147,72.3c1.4,0,2.6,1.2,2.6,2.6l0,0c0,1.4-1.2,2.6-2.6,2.6l0,0c-1.4,0-2.6-1.2-2.6-2.6l0,0   C144.4,73.5,145.5,72.3,147,72.3z"></path>		<path class="st4" d="M180.8,72.3L180.8,72.3c1.4,0,2.6,1.2,2.6,2.6l0,0c0,1.4-1.2,2.6-2.6,2.6l0,0c-1.4,0-2.6-1.2-2.6-2.6l0,0   C178.3,73.5,179.4,72.3,180.8,72.3z"></path>		<rect x="184.7" y="49.7" class="st3" width="6.8" height="6.8"></rect>		<path class="st5" d="M182.5,72.5c0-4.9-2-9.6-5.4-13.1c-3.5-3.5-8.2-5.4-13.1-5.4c-4.9,0-9.6,2-13.1,5.4   c-3.5,3.5-5.4,8.2-5.4,13.1h1.5c0-4.5,1.8-8.9,5-12.1c3.2-3.2,7.5-5,12.1-5c4.5,0,8.9,1.8,12.1,5c3.2,3.2,5,7.5,5,12.1H182.5z"></path>		<path class="st6" d="M167.8,81c0.1-0.1,0.1-4,0-4.3c-0.1-0.2-0.2-0.4-0.4-0.5c-0.1,0-7.7,0-7.8,0c-0.2,0.1-0.3,0.3-0.4,0.5   c-0.1,0.3,0,4.1,0,4.3c0.1,0.2,0.3,0.4,0.4,0.4c0.2,0,7.5,0,7.7,0S167.7,81.2,167.8,81z M168.3,71.8c0.7-2.1,1.1-3.2,1-3.3   c0-0.1-5.2-12.3-5.3-12.3c0,0,0,2.4,0,5.3v5.3l0.2,0.1c0.2,0.1,0.3,0.2,0.5,0.3c0.5,0.5,0.7,1.2,0.4,1.9c-0.1,0.3-0.1,0.4-0.4,0.6   c-0.4,0.4-0.9,0.6-1.4,0.6s-0.9-0.2-1.3-0.6c-0.2-0.2-0.3-0.3-0.4-0.6c-0.2-0.7-0.1-1.4,0.4-1.9c0.2-0.2,0.3-0.3,0.5-0.3l0.2-0.1   v-5.3c0-2.9,0-5.3,0-5.3c-0.1,0.1-5.2,12.2-5.3,12.3c0,0.1,0.4,1.3,1.1,3.3l1.1,3.2h3.7c2.1,0,3.7,0,3.8,0   C167.3,75,167.8,73.5,168.3,71.8z M164.1,68.7c0.1-0.3,0-0.4-0.2-0.6c-0.2-0.1-0.2-0.2-0.4-0.2s-0.2,0-0.4,0.2s-0.3,0.4-0.2,0.6   c0.1,0.3,0.4,0.5,0.7,0.5C163.8,69.1,164.1,68.9,164.1,68.7z"></path>		<rect x="85.2" y="101.7" class="st7" width="87.9" height="63.5"></rect>		<rect x="104.8" y="112.8" class="st8" width="48" height="52.4"></rect>		<path class="st9" d="M137.4,141.3c-0.7-0.1-1.4-0.1-2.1-0.2c-1.4,0.4-2.6,1.5-3.9,2.2c-0.1,0.1-0.1,0.1-0.2,0.2   c-2.7,1.7-8.9-1.7-10.1-3.8c-1.8-2.9-3.1-10.5,0-13.2c2.1-1.9,12-1.9,14.5-0.8c2.9,1.2,3.2,5.4,2.7,8.6c2.5,0-2.8,3.2-3.1,3.9   c0.1-0.1,0.3-0.1,0.4-0.1c0.7,0.1,1.4,0.3,2,0.4c0.6,0.1,1.3,0.2,1.9,0.3c1.7-5,0.6-9.2-3.3-12.6c-0.5-0.5-1.4-1.1-2.6-1.8   c-5.7-2.2-10.2-1.5-13.3,2.1c-0.4,0.4-0.9,1.2-1.7,2.5c-1.8,5.5-0.9,9.7,2.4,12.7l4.5,4l-0.1,0.1l-0.9,0.2   c-3.9-0.4-6.7,0.4-8.4,2.4l0.1,0.4l0.8,0.7c6.8,3.1,12.5,2.1,17.1-3.2l3.6-4.1c0.2-0.2,0.3-0.4,0.5-0.6   C138.1,141.5,137.8,141.4,137.4,141.3L137.4,141.3z"></path>		<path class="st10" d="M115.6,133c0-7.8,6.5-11.7,13.3-11.7c6.8,0,13.3,4.2,13.3,11.9c0,7.6-6.4,12-13.2,12   C122.1,145.1,115.6,140.6,115.6,133L115.6,133z M120.2,133c0,4.9,4.3,7.5,8.5,7.5s8.6-2.3,8.6-7.4c0-5.1-4.2-7.4-8.6-7.4   C124.6,125.8,120.3,128,120.2,133L120.2,133z"></path>		<rect x="77.9" y="92.3" class="st2" width="95.6" height="16.1"></rect>		<path class="st11" d="M80.1,91.6h92.1c1.2,0,2.2,1,2.2,2.2v69.7c0,1.2-1,2.2-2.2,2.2H80.1c-1.2,0-2.2-1-2.2-2.2V93.8   C77.9,92.6,78.9,91.6,80.1,91.6z"></path>		<circle class="st5" cx="87.9" cy="100.3" r="3.3"></circle>		<circle class="st12" cx="99" cy="100.3" r="3.3"></circle>		<circle class="st13" cx="110" cy="100.3" r="3.3"></circle>		<rect x="78" y="108" class="st2" width="13.3" height="57.5"></rect>		<rect x="84.6" y="115.7" class="st14" width="6.6" height="1.1"></rect>		<rect x="84.6" y="124.6" class="st14" width="6.6" height="1.1"></rect>		<rect x="84.6" y="133.4" class="st14" width="6.6" height="1.1"></rect>		<rect x="84.6" y="142.3" class="st14" width="6.6" height="1.1"></rect>		<rect x="84.6" y="151.1" class="st14" width="6.6" height="1.1"></rect>		<path class="st15" d="M216.3,99.9c0-15.4,13.5-27,20.7-22.9c12-6.1,29.5,12.2,26.4,25.2c-5.1,21.9,0.5,8.8,12.1,36.4   c6.8,16.2-4.7,22.3-9.8,25.2c-14.2,1-39-12.8-45.9-11.6c-8.5,1.4-24-7-12.1-20C219.7,119.2,216.3,113.4,216.3,99.9z"></path>		<path class="st16" d="M225.4,102.2c0,4.6,1.1,8.4,3.1,10.8c1,1.2,2.1,2,3.4,2.4c1.3,0.4,2.8,0.3,4.5-0.2   c4.5-1.6,11.2-7.4,11.2-16.5c0-4.6-0.9-7.3-2.6-8.9c-1.7-1.7-4.2-2.4-7.6-3c-4.3,0-7.3,1.6-9.2,4.3   C226.3,93.6,225.4,97.5,225.4,102.2z"></path>		<path class="st17" d="M237.4,83.4c0,5.3,5.4,14.7,11.5,16.3C256.6,101.6,248.9,81.5,237.4,83.4z"></path>		<path class="st18" d="M212.1,138.1c5.5-7.7,12.9-10.8,14.7-11.3c3.7,0,12.7-0.6,19.4-2.8c8.3-2.8,16.6,2.8,19.4,12.4   c2.8,9.7,12.4,41.5,18,51.2c4.4,7.7,2.8,13.4,1.4,15.2c-3.2,0.5-10.8,1.4-15.2,1.4c-5.5,0-13.8-37.3-13.8-31.8   c0,4.4-0.9,14.8-1.4,19.4c-1.8-0.5-7.7-1.4-16.6-1.4c-11.1,0-26.4-3.2-21.5-5.7c7.7-3.8,6.7-9.6,5.7-15.3   c-0.6-3.5-6.8-6.5-4.9-14.1c-2.9,6.7-11,14.7-15.2,16c-4.1,1.4-38.8-8.6-40.2-10s6.9-13.8,9.7-15.2s19.4,8.3,26.3,11.1   C204.7,160.1,205.1,147.8,212.1,138.1z"></path>		<path class="st18" d="M226.8,120c-1.1-3.3,0.5-4.1,1.4-4.1c11.1,1.4,12.4-4.1,16.6-4.1s0,4.1,1.4,5.5s1.4,5.5,0,6.9   s-18,3.7-19.4,2.3C225.4,125.1,228.2,124.1,226.8,120z"></path>		<path class="st19" d="M225.4,272.9l-13.8-63.2c0-5.5-11.1-6.8-16.6-4c-4.4,2.2-1.1,6.1,0.3,10.7c0.5,8.3,0.5,41.3,3.8,46.8   C202.5,268.7,218,272,225.4,272.9z"></path>		<path class="st16" d="M266.6,214.7c3.6-1.8,4.7-6.6,5.8-10l8-0.8c4.4,7.8,19.7,9.2,14.2,12.6c-5.6,3.3-18.5-4.5-21.9-1.8   C269.4,217.4,262.2,216.9,266.6,214.7z"></path>		<path class="st16" d="M153.3,140c6.1-2.6,13.3,4.5,15.5,7.7c0,0.9-4,4.7-6.9,10.4c-2.2-0.4-9-3.4-10.7-4.2   c-1.7-0.9-1.4-3.2-1.1-4.3c1.8,0.4,5.6,0.9,6.5,0c1.1-1.1-1.1-5.3-3.2-5.3c-2.2,0-2.2,1.1-5.4,4.3c-2.6,2.6-4.7,1.1-5.4,0   C143.5,146.7,147.2,142.5,153.3,140z"></path>		<path class="st19" d="M148.8,148.3l31.8-30.4l2.8,2.8l-30.1,28.8c0,0-2.9,0-3.8,1c-1,1,1.9,3.8,1.9,3.8l-6.7-0.4L148.8,148.3z"></path>		<path class="st19" d="M185.8,201.1c5.5-11.1,7.1-16.3,29.1-18.2c25.2-2.2,41,0,41,15.9c-6.4,21.4-55.8,1.6-55.8,7.1   c0,11.5-19.6,69.6-22.6,64.7c-4.2-7-14.4-30.3-14.4-33.1S178.8,214.9,185.8,201.1z"></path>		<path class="st20" d="M237.4,76.7c-1.9,9.6,3.8,20.1,11.5,23"></path>		<path class="st21" d="M256.6,173.3c0-1-4.8-19.1-3.8-25.8"></path>		<rect x="96.8" y="160.9" class="st14" width="5.7" height="1"></rect>		<path class="st21" d="M217.2,155.4c1.4-3.3,2.3-5.1,4.7-12.1"></path>	</g></g><g>	<rect x="16.1" y="142.9" class="st22" width="51" height="54"></rect>	<path class="st23" d="M66.8,143.8H27l-10.2,9.5l14.1,18.6l-2.2,1.7l7.9,5.9l6.3,8.3l1.4-2.6l14.7,11l7.8-10.7v-40.9l-0.7,0.5  L66.8,143.8z"></path>	<g>		<path class="st24" d="M68.2,144.6l-1.4-0.8l-1-0.5l1,1.3v0.9l1,0.5v-0.1l0.7-1.2L68.2,144.6z M65.1,144.6l1,0.5l-0.4-0.5H65.1z    M67.8,145.9l-1-1.3v0.9l-0.7-0.4l0.5,0.6l0.7,0.9l0.7-0.5L67.8,145.9z M65.5,143.2l0.2,0.1L65.5,143.2L65.5,143.2z M66.8,144.6   v0.9l-0.7-0.4l-0.4-0.5h-0.8v40.9h3.7v-40.9H66.8z M66.8,185.5l-1.5-1.1l-0.4,0.5l-6.3,8.7l-1.1,1.5l3,2.2l7.8-10.7L66.8,185.5z    M58.6,193.5l-13.1-9.8l-1.1,1.5l-0.5,0.7l-0.6,0.8l0.6,0.4l1.2,0.9l12.9,9.6l2.2-3L58.6,193.5z M44.4,185.3l-1.6-0.9l0,0   l-1.4,2.5l1.6,0.9l1.7,0.9l0.4-0.7l1-1.9L44.4,185.3z M43.9,185.9l-1.2-1.5l-4.6-6l-3,2.3l0.2,0.2l6.2,8.1l1.5-1.1l0,0l0.8-0.6   l0.6-0.5L43.9,185.9z M31.8,173.6l-1.6-1.2l-0.4-0.3l-0.6,0.8l-0.5,0.7l0,0l-1.1,1.5l7.7,5.8l0.2,0.2l2.2-3L31.8,173.6z    M29.8,170.4l-1.5,1.1l-0.7,0.5l1.1,1.5l0,0l1.1,1.5l2-1.5l0.2-0.2L29.8,170.4z M19.3,153.6l-1-1.4l-1.5,1.1l-1.5,1.1l13,17.1   l1,1.3l0.1,0.2l0.9-0.7l0.6-0.5l1.5-1.1L19.3,153.6z M27,143.8l-1.3-1.4L15.5,152l1.3,1.4l1.3,1.4l1.2-1.1l8.4-7.9l0.5-0.5   L27,143.8z M27,142v3.7h39.8v-0.2l-0.7-0.4l-0.4-0.5h-0.6l-0.7-0.4l0.7-1.3l0.4,0.2l0.2,0.1l1,1.3V142H27z M42.7,184.4L42.7,184.4   l1.1,1.5l0.5-0.7l1.1-1.5l-1.7-1.3L42.7,184.4z M37.8,178l-1.1,1.5l1.5-1.1l-0.2-0.2L37.8,178z M30.9,171.9l-0.6,0.5l1.6,1.2   l0.2-0.2l1.5-1.1l-1.1-1.5L30.9,171.9z M67.1,142l-0.4,0.3l-1.1,0.9l0.1,0.2l1,1.3h1.9v-3.8L67.1,142z M66.8,185.5l1.5,1.1   l0.4-0.5v-0.6H66.8z M59,196.2l-1.1,1.5l1.5,1.1l1.1-1.5L59,196.2z M43.8,182.5l-1,1.9l1.6,0.9l1.1-1.5L43.8,182.5z M43,187.8   L43,187.8l-1.5,1.1l1.8,2.3l1.4-2.5L43,187.8z M38,178.2l-0.2-0.2l-1.1,1.5l1.5-1.1L38,178.2z M27.6,172.1l-2,1.5l2,1.5l1.1-1.5   L27.6,172.1z M32.4,170.8l-1.5,1.1l1.1,1.5l1.5-1.1L32.4,170.8z M15.5,152l-1.2,1.1l1,1.3l1.5-1.1L15.5,152z M66.8,142v2.6h1.4   l0.3,0.1l0.1-0.1l0.1-0.3l1.3-2.4L66.8,142L66.8,142z M26.3,142l-0.5,0.5l1.3,1.4V142H26.3z"></path>		<polygon class="st24" points="66.8,144.6 66.8,145.5 66.1,145.1 65.7,144.6 65.1,144.6 64.4,144.2 65.1,142.9 65.5,143.2    65.8,143.3   "></polygon>	</g>	<path class="st24" d="M59.6,153.3H16.8v42.8h42.8V153.3z"></path>	<path class="st25" d="M52.1,178.3c0,2.6-2.1,4.6-6.1,4.6c-1.9,0-3.5-0.4-4.6-1l0.8-3.2c0.8,0.5,2.5,1.1,3.8,1.1s1.9-0.5,1.9-1.2  s-0.4-1.1-2.1-1.6c-2.9-1-4.1-2.6-4-4.3c0-2.6,2.3-4.6,5.8-4.6c1.7,0,3.1,0.4,4,0.8l-0.8,3c-0.6-0.4-1.9-0.8-3.1-0.8  c-1.1,0-1.7,0.4-1.7,1.2c0,0.7,0.5,1,2.3,1.6C50.9,174.9,52,176.2,52.1,178.3z"></path>	<path class="st25" d="M39,164.5c-1.3-1-3.2-1.6-6-1.6c-2.7,0-4.6,0.2-6,0.4v19.3h4.4v-7c0.5,0.1,1,0.1,1.5,0.1  c2.6,0,4.8-0.6,6.4-2.1c1.2-1.1,1.8-2.7,1.8-4.6S40.3,165.5,39,164.5z M32.9,172.3c-0.6,0-1.1,0-1.5-0.1v-5.8  c0.3-0.1,0.9-0.2,1.8-0.2c2.2,0,3.5,1.1,3.5,2.9C36.7,171.1,35.3,172.3,32.9,172.3z"></path></g></svg>