<svg xmlns="http://www.w3.org/2000/svg" xmlns:xlink="http://www.w3.org/1999/xlink" x="0px" y="0px" viewBox="0 0 810 554" style="enable-background:new 0 0 810 554;" xml:space="preserve"><style type="text/css">	.st0{fill:#868F3B;}	.st1{fill:none;stroke:#FFFFFF;stroke-width:0.3743;stroke-linecap:round;stroke-linejoin:round;}	.st2{fill:#17200E;}	.st3{fill:#DFE3F0;}	.st4{fill:#FFFFFF;}	.st5{fill:#3A4D27;}	.st6{fill:#FFFFFF;stroke:#3F5E22;stroke-width:3.71;stroke-miterlimit:10;}	.st7{fill:#FFAC26;}	.st8{fill:#DBEA62;}	.st9{fill:#C0CE48;}	.st10{fill:#F9FBE9;}	.st11{fill:none;stroke:#F9FBE9;stroke-width:2.2293;stroke-linecap:round;stroke-linejoin:round;}	.st12{fill:#3F5E22;}	.st13{fill:none;stroke:#DBEA62;stroke-width:3.71;stroke-linecap:round;stroke-linejoin:round;}	.st14{fill:none;stroke:#BFC1FE;stroke-width:2.2293;stroke-miterlimit:10;}	.st15{fill:none;stroke:#3F5E22;stroke-width:11.1382;stroke-miterlimit:10;}	.st16{fill:none;stroke:#F9FBE9;stroke-width:5.1989;stroke-linecap:round;stroke-miterlimit:10;}	.st17{fill:#1C2C0D;}	.st18{fill:none;stroke:#3F5E22;stroke-width:4.4586;stroke-linecap:round;stroke-miterlimit:10;}	.st19{fill:none;stroke:#1C2C0D;stroke-width:5.1989;stroke-linecap:round;stroke-linejoin:round;}	.st20{fill:#441A30;}	.st21{fill:none;stroke:#F9FBE9;stroke-width:0.7403;stroke-linecap:round;stroke-linejoin:round;}	.st22{fill:#70782B;}	.st23{fill:none;stroke:#601C43;stroke-width:0.7403;stroke-linecap:round;stroke-linejoin:round;}	.st24{fill:#AD3279;}	.st25{fill:none;stroke:#441A30;stroke-width:0.7403;stroke-linecap:round;stroke-linejoin:round;}	.st26{fill:#3A1421;}	.st27{fill:#B55586;}	.st28{fill:#EF9D79;}	.st29{fill:#110326;}	.st30{fill:#DE7266;}	.st31{fill:none;stroke:#B55586;stroke-width:0.7403;stroke-linecap:round;stroke-linejoin:round;}	.st32{fill:#522627;}	.st33{fill:#381A19;}	.st34{fill:none;stroke:#C0CE48;stroke-width:0.7403;stroke-linecap:round;stroke-linejoin:round;}	.st35{fill:none;stroke:#F5F5F7;stroke-width:0.7403;stroke-linecap:round;stroke-linejoin:round;}	.st36{fill:none;stroke:#B04C4F;stroke-width:0.7403;stroke-linecap:round;stroke-linejoin:round;}	.st37{fill:#B04C4F;}	.st38{fill:none;stroke:#70782B;stroke-width:0.7403;stroke-linecap:round;stroke-linejoin:round;}	.st39{fill:none;stroke:#441A30;stroke-width:1.1147;stroke-linecap:round;stroke-linejoin:round;}	.st40{fill:#8F1563;}	.st41{fill:none;stroke:#441A30;stroke-width:1.489;stroke-linecap:round;stroke-linejoin:round;}	.st42{fill:#E56E60;}	.st43{fill:none;stroke:#78243D;stroke-width:0.7403;stroke-linecap:round;stroke-linejoin:round;}	.st44{fill:#F8BB71;}	.st45{fill:none;stroke:#110326;stroke-width:0.7403;stroke-linecap:round;stroke-linejoin:round;}	.st46{fill:#912B4A;}	.st47{fill:none;stroke:#912B4A;stroke-width:0.7403;stroke-linecap:round;stroke-linejoin:round;}	.st48{fill:#A65B43;}	.st49{fill:none;stroke:#F9FBE9;stroke-width:1.1147;stroke-linecap:round;stroke-linejoin:round;}	.st50{fill:none;stroke:#BFC1FE;stroke-width:1.1147;stroke-linecap:round;stroke-linejoin:round;}	.st51{fill:#D8DCE8;}	.st52{fill:none;}	.st53{fill:#229D79;}	.st54{clip-path:url(#SVGID_00000057146118632886036450000004817333735352663221_);}	.st55{fill:url(#SVGID_00000042005132919890175470000017406634268156109719_);}	.st56{fill:#121826;}	.st57{fill:url(#SVGID_00000066474263179320357560000008520078563929070764_);}	.st58{fill:url(#SVGID_00000163761703916373500910000011859959504181557672_);}	.st59{fill:url(#SVGID_00000161629762383212062770000004013993295700900250_);}	.st60{fill:url(#SVGID_00000160905408644253516730000007788271776956679059_);}	.st61{fill:url(#SVGID_00000031166959336753507370000012362266114540846263_);}	.st62{fill:url(#SVGID_00000042015180992643404170000013924296876898637455_);}	.st63{fill:#33405E;}	.st64{fill:#34405F;}	.st65{fill:#ED4078;}</style><g id="Layer_1">	<g>		<path class="st0" d="M210.2,329.5l24.2,20.9L219,379.2l-32.9-28.4L210.2,329.5z"></path>		<path class="st1" d="M670.3,447c-6-1.5-11.5-4-16.2-3.9c4.7-4.4,8.4-10,16-13.6"></path>		<path class="st1" d="M684.5,402.3c-3-0.9-17-0.9-19.7,0.3c3.1-5,7.2-18.1,11.3-21.4"></path>		<path class="st2" d="M177.5,419.2l-28.3-24.5l18.1-33.8l38.6,33.4L177.5,419.2z"></path>		<path class="st3" d="M355.1,377.3l-23.2,29.4l-32.6-19.2l31.6-40L355.1,377.3z"></path>		<path class="st4" d="M447.2,203.6l-4.5-46.7l43.9-12.7l6.1,63.7L447.2,203.6z"></path>		<path class="st4" d="M637.5,328.5l-44.7,4.3l-12.6-46l61-5.8L637.5,328.5z"></path>		<path class="st2" d="M339.4,299.9l-41.1,3.9l-11.5-42.2l55.9-5.3L339.4,299.9z"></path>		<path class="st5" d="M447.7,118.5l4.1,42.9l-40.3,11.7l-5.6-58.5L447.7,118.5z"></path>		<path class="st6" d="M616.2,269h-26.9c-4.5,0-8.2,3.7-8.2,8.2l0,0c0,4.5-3.7,8.2-8.2,8.2h-14c-4.5,0-8.2-3.7-8.2-8.2l0,0   c0-4.5-3.7-8.2-8.2-8.2h-26.9c-7.6,0-13.9,6.3-13.9,13.9v26.9c0,4.5-3.7,8.2-8.2,8.2l0,0c-4.5,0-8.2,3.7-8.2,8.2v14   c0,4.5,3.7,8.2,8.2,8.2l0,0c4.5,0,8.2,3.7,8.2,8.2v26.9c0,7.6,6.2,13.8,13.9,13.8h26.9c4.5,0,8.2-3.7,8.2-8.2l0,0   c0-4.5,3.7-8.2,8.2-8.2h14c4.5,0,8.2,3.6,8.2,8.2l0,0c0,4.5,3.7,8.2,8.2,8.2h26.9c7.6,0,13.8-6.1,13.8-13.8V282.9   C630,275.3,623.8,269,616.2,269L616.2,269z"></path>		<path class="st7" d="M566.6,300l8,24.7c0.1,0.3,0.4,0.6,0.8,0.6h25.9c0.8,0,1.1,1,0.5,1.4l-21,15.2c-0.3,0.2-0.4,0.6-0.3,0.9   l8,24.7c0.2,0.7-0.6,1.3-1.2,0.9l-21-15.2c-0.3-0.2-0.7-0.2-0.9,0l-21,15.2c-0.6,0.5-1.5-0.2-1.2-0.9l8-24.7   c0.1-0.3,0-0.7-0.3-0.9l-21-15.2c-0.6-0.5-0.3-1.4,0.5-1.4h25.9c0.3,0,0.6-0.2,0.8-0.6l8-24.7C565.3,299.3,566.3,299.3,566.6,300   L566.6,300z"></path>		<path class="st6" d="M501.6,181.5v-26.9c0-7.6-6.1-13.9-13.8-13.9H387.2c-7.6,0-13.9,6.3-13.9,13.9v26.9c0,4.5-3.6,8.2-8.2,8.2   l0,0c-4.5,0-8.2,3.7-8.2,8.2v14c0,4.5,3.7,8.2,8.2,8.2l0,0c4.5,0,8.2,3.7,8.2,8.2v26.9c0,7.6,6.3,13.8,13.9,13.8h26.9   c4.5,0,8.2-3.6,8.2-8.2l0,0c0-4.5,3.7-8.2,8.2-8.2h14c4.5,0,8.2,3.7,8.2,8.2l0,0c0,4.5,3.7,8.2,8.2,8.2h26.9   c7.6,0,13.8-6.1,13.8-13.8v-26.9c0-4.5,3.7-8.2,8.2-8.2l0,0c4.5,0,8.2-3.7,8.2-8.2v-14c0-4.5-3.7-8.2-8.2-8.2l0,0   C505.3,189.7,501.6,186.1,501.6,181.5L501.6,181.5z"></path>		<path class="st8" d="M436,163c-16.6,0-22.7,13.5-22.7,20.6c0,15.7,12,18,12,31.7c0,8.1,21.2,8.1,21.2,0c0-13.7,12-16,12-31.7   C458.6,176.6,452.6,163,436,163z"></path>		<path class="st9" d="M425.8,214.4h20.4c0.7,0,1.2,0.5,1.2,1.2v6c0,5.2-4.2,9.5-9.5,9.5h-4c-5.2,0-9.4-4.2-9.4-9.4v-6.1   C424.5,215,425.1,214.4,425.8,214.4z"></path>		<path class="st10" d="M431.6,231.1h8.6l0,0c0,1.2-1,2.2-2.2,2.2h-4.1C432.6,233.4,431.6,232.4,431.6,231.1L431.6,231.1   L431.6,231.1z"></path>		<path class="st11" d="M440.3,214.5c-1.3-7.4,3.3-36.2,7.1-36.7c3.8-0.5,0,10.6-3.1,11.1s-8.1-10.2-5.1-11.1   c3-0.9-0.6,11.4-4.1,11.5c-3.6,0.1-8.2-11.3-4.7-11.5s0.9,9.8-3.2,9.8"></path>		<path class="st11" d="M427.2,184.3c4.1,2.5,8.3,22.3,6.8,30.2"></path>		<path class="st12" d="M485.3,340.2v-14c0-4.5,3.7-8.2,8.2-8.2l0,0c4.5,0,8.2-3.7,8.2-8.2v-26.9c0-7.6-6.1-13.9-13.8-13.9H461   c-4.5,0-8.2-3.6-8.2-8.2l0,0c0-4.5-3.7-8.2-8.2-8.2h-14c-4.5,0-8.2,3.7-8.2,8.2l0,0c0,4.5-3.7,8.2-8.2,8.2h-26.9   c-7.6,0-13.9,6.3-13.9,13.9v26.9c0,4.5,3.7,8.2,8.2,8.2l0,0c4.5,0,8.2,3.7,8.2,8.2v14c0,4.5-3.7,8.2-8.2,8.2l0,0   c-4.5,0-8.2,3.7-8.2,8.2v26.9c0,7.6,6.3,13.8,13.9,13.8h26.9c4.5,0,8.2,3.7,8.2,8.2l0,0c0,4.5,3.7,8.2,8.2,8.2h14   c4.5,0,8.2-3.7,8.2-8.2l0,0c0-4.5,3.7-8.2,8.2-8.2h26.9c7.6,0,13.8-6.1,13.8-13.8v-26.9c0-4.5-3.7-8.2-8.2-8.2l0,0   C489,348.4,485.3,344.7,485.3,340.2z"></path>		<path class="st9" d="M417.5,330.3H409v39.9h8.5V330.3z"></path>		<path class="st9" d="M430,313.1h-8.5v57.1h8.5V313.1z"></path>		<path class="st9" d="M442.5,328.3H434v41.9h8.5V328.3z"></path>		<path class="st9" d="M455,315.7h-8.5v54.5h8.5V315.7z"></path>		<path class="st9" d="M467.5,302.3H459v67.9h8.5V302.3z"></path>		<path class="st13" d="M405.8,350.3l19.9-11.8l12.3,11.8l39.7-47.9"></path>		<path class="st12" d="M373.3,438.1v-26.9c0-7.6-6.1-13.9-13.8-13.9h-26.9c-4.5,0-8.2-3.7-8.2-8.2l0,0c0-4.5-3.7-8.2-8.2-8.2h-14   c-4.5,0-8.2,3.6-8.2,8.2l0,0c0,4.5-3.7,8.2-8.2,8.2h-26.9c-7.6,0-13.9,6.2-13.9,13.9v100.6c0,7.6,6.3,13.8,13.9,13.8h100.7   c7.6,0,13.8-6.2,13.8-13.8v-26.9c0-4.5-3.6-8.2-8.2-8.2l0,0c-4.5,0-8.2-3.7-8.2-8.2v-14c0-4.5,3.7-8.2,8.2-8.2l0,0   C369.6,446.3,373.3,442.6,373.3,438.1L373.3,438.1z"></path>		<path class="st11" d="M322.5,498.4h-43.9v-72h54v62.3L322.5,498.4z"></path>		<path class="st11" d="M324.1,487.5l-1.6,10.9l10.1-9.8L324.1,487.5z"></path>		<path class="st12" d="M302.8,485.9c3-3,3-7.9,0-10.9s-7.9-3-10.9,0s-3,7.9,0,10.9S299.8,488.9,302.8,485.9z"></path>		<path class="st14" d="M297.3,485.4c2.7,0,4.9-2.2,4.9-4.9c0-2.7-2.2-4.9-4.9-4.9c-2.7,0-4.9,2.2-4.9,4.9   C292.4,483.2,294.6,485.4,297.3,485.4z"></path>		<path class="st11" d="M286.8,438.7h37.9"></path>		<path class="st11" d="M286.8,445.1h37.9"></path>		<path class="st11" d="M286.8,451.6h37.9"></path>		<path class="st11" d="M286.8,458h37.9"></path>		<path class="st11" d="M286.8,464.5h37.9"></path>		<path class="st11" d="M286.8,470.9h37.9"></path>		<path class="st11" d="M286.8,477.3h37.9"></path>		<path class="st10" d="M501.6,438.1v-26.9c0-7.6-6.1-13.9-13.8-13.9h-26.9c-4.5,0-8.2,3.7-8.2,8.2l0,0c0,4.5-3.7,8.2-8.2,8.2h-14   c-4.5,0-8.2-3.7-8.2-8.2l0,0c0-4.5-3.7-8.2-8.2-8.2h-26.9c-7.6,0-13.9,6.2-13.9,13.9v26.9c0,4.5-3.6,8.2-8.2,8.2l0,0   c-4.5,0-8.2,3.7-8.2,8.2v14c0,4.5,3.7,8.2,8.2,8.2l0,0c4.5,0,8.2,3.7,8.2,8.2v26.9c0,7.6,6.3,13.8,13.9,13.8h100.7   c7.6,0,13.8-6.2,13.8-13.8v-26.9c0-4.5,3.7-8.2,8.2-8.2l0,0c4.5,0,8.2-3.7,8.2-8.2v-14c0-4.5-3.7-8.2-8.2-8.2l0,0   C505.3,446.3,501.6,442.6,501.6,438.1L501.6,438.1z"></path>		<path class="st15" d="M431.9,486.5c14.1,0,25.5-11.4,25.5-25.5s-11.4-25.5-25.5-25.5S406.4,447,406.4,461   C406.4,475.1,417.8,486.5,431.9,486.5z"></path>		<path class="st16" d="M446.2,452.7c1.3,2.4,2.1,5.3,2.1,8.3c0,7.7-5,14.2-11.8,16.3"></path>		<path class="st16" d="M436.5,444.7c1,0.3,2,0.7,3,1.2"></path>		<path class="st12" d="M463.7,500.6l-16-19.4c-0.9-1.1-0.8-2.8,0.4-3.8c1-0.8,2.5-0.8,3.5,0.1l18.9,16.6c2,1.7,2.1,4.7,0.4,6.6   c-1.7,2-4.7,2.1-6.6,0.4C464,501,463.9,500.8,463.7,500.6L463.7,500.6z"></path>		<path class="st12" d="M616.2,397.3h-26.9c-4.5,0-8.2-3.7-8.2-8.2l0,0c0-4.5-3.7-8.2-8.2-8.2h-14c-4.5,0-8.2,3.6-8.2,8.2l0,0   c0,4.5-3.7,8.2-8.2,8.2h-26.9c-7.6,0-13.9,6.2-13.9,13.9v26.9c0,4.5,3.7,8.2,8.2,8.2l0,0c4.5,0,8.2,3.7,8.2,8.2v14   c0,4.5-3.7,8.2-8.2,8.2l0,0c-4.5,0-8.2,3.7-8.2,8.2v26.9c0,7.6,6.2,13.8,13.9,13.8h100.7c7.6,0,13.8-6.2,13.8-13.8V411.2   C630,403.5,623.8,397.3,616.2,397.3L616.2,397.3z"></path>		<path class="st9" d="M602.7,459.9c1.1,1.2,4.3,0.7,4.4,1.8c0.4,2.2-5.1,9-6.7,9.1c-1.6,0.1-3.6-3.5-3.6-3.5L602.7,459.9   L602.7,459.9z"></path>		<path class="st9" d="M589.6,466.9c-0.8,3.3-4.3,9.4-8.7,15.2c-4.6,6.2-11.7,11.2-11.7,12.5s8.2,5,11.6,3.7   c3.4-1.3,14.5-28,14.5-28.9S590,465.4,589.6,466.9L589.6,466.9z"></path>		<path class="st17" d="M559.5,420.8c3.5,14.5,19.4,26.1,28.7,30.9c2.4,1.2,13.1,6,14.3,6.4c3.4,1.1-1.9,14.4-4.8,13.4   c-2.5-0.9-9.9-3.7-12.1-4.5c-10.7-3.8-28.4-3-40.9,2.8c-7.6,3.6-5.7-14-1.3-29C548.4,423.3,558,414.9,559.5,420.8L559.5,420.8z"></path>		<path class="st12" d="M557,421.3c-4.1,0-9.9,13-12.3,22.1c-3.4,12.9-3.7,24.4-1.8,25.1c2,0.7,9.2-16,11.4-23.1   C556.4,438.4,559.9,421.4,557,421.3L557,421.3z"></path>		<path class="st9" d="M554.4,440.2c-0.4,3.3-3.4,11.2-4,11.9c-1.3,1.4-12.5-6.2-10.7-11.2S554.5,439.2,554.4,440.2L554.4,440.2z"></path>		<path class="st18" d="M590.3,452.8c1.5,3-0.7,12.8-4.8,14.2"></path>		<path class="st19" d="M538.2,426.2l3.3,6.5"></path>		<path class="st19" d="M529.1,435.9l7.2,4.1"></path>		<path class="st19" d="M527.2,448.1h7.2"></path>		<path class="st20" d="M637.5,545.6c0,0,14.9,0.1,19.8,0.1c0.7,0,1.9,0.2,1.8-0.7c-0.2-2-1.5-5.6-0.8-7.8c-1.4-1.3-6.6-1.9-6.6-1.9   s0.1,3.6-1.2,4.9c-1.5,1.5-6.9,2.5-10.2,2.9C638.3,543.5,637.5,545.6,637.5,545.6L637.5,545.6z"></path>		<path class="st10" d="M636.5,546.3c-0.1,0-0.2-0.1-0.3-0.4c-0.2-0.6-0.1-1.5,0.4-2c0.2-0.2,2.2-0.4,3.5-0.6v1.2   c0,0.1,0,0.1,0.1,0.1l0.1,0.1l18.6-0.1c0.1,0.6,0.1,1.1-0.1,1.3c-0.1,0.2-0.3,0.2-0.5,0.2h-21.8V546.3z"></path>		<path class="st20" d="M639.9,543.6v1c0,0.1,0,0.2,0.1,0.3s0.2,0.1,0.3,0.1l18.4-0.1c0.1,0.7,0,0.9-0.1,1s-0.2,0.2-0.4,0.2h-21.8   c0,0-0.2-0.2-0.2-0.6c-0.1-0.5,0.1-1.1,0.4-1.4C637,544,638.7,543.8,639.9,543.6 M640.3,543.2c-2,0.3-3.6,0.5-3.8,0.7   c-0.9,0.7-0.7,2.6,0,2.6h21.8c0.7,0,1.1-0.7,0.8-1.9l-18.7,0.1L640.3,543.2L640.3,543.2z"></path>		<path class="st21" d="M647.4,541.4l0.5,1.1"></path>		<path class="st21" d="M646.6,541.7l0.4,1.1"></path>		<path class="st21" d="M645.7,541.9l0.4,1.1"></path>		<path class="st21" d="M644.8,542.1l0.5,1.1"></path>		<path class="st20" d="M678.1,545.6c0,0,6,0.1,10.9,0.1c0.7,0,1.9,0.2,1.8-0.7c-0.2-2-2.2-4.7-1.3-8c-1.4-1.3-4.7-2.4-5.9-1.5   c0,3.1-1.7,7.8-5,8.2C677.6,544.6,678.1,545.6,678.1,545.6L678.1,545.6z"></path>		<path class="st10" d="M677.1,546.3c-0.1,0-0.2-0.2-0.2-0.3c-0.2-0.6,0-1.6,0.7-2c0.2-0.1,1.7-0.2,4.6-0.2c1.5,0,2.8,0,3.1,0.1   c0.5,0.1,1.3,0.3,2.1,0.5c0.6,0.2,1.2,0.3,1.6,0.4c0.3,0,0.6,0.1,0.9,0.1c0.3,0,0.5,0,0.7,0c0.1,0.6,0.1,1.1-0.1,1.3   c-0.1,0.2-0.3,0.2-0.5,0.2L677.1,546.3L677.1,546.3z"></path>		<path class="st20" d="M682.2,544c1.5,0,2.8,0,3.1,0.1c0.5,0.1,1.3,0.3,2.1,0.5c0.6,0.2,1.2,0.3,1.6,0.4c0.3,0,0.6,0.1,1,0.1   c0.2,0,0.4,0,0.5,0c0.1,0.6,0,0.9-0.1,1s-0.2,0.2-0.4,0.2h-12.8c0-0.1-0.1-0.3-0.1-0.7c0.1-0.6,0.3-1,0.6-1.2   C677.9,544.1,679.5,544,682.2,544 M682.2,543.6c-2,0-4.4,0.1-4.7,0.2c-1,0.6-1,2.6-0.4,2.6H690c0.7,0,1.1-0.7,0.8-1.9   c0,0-0.3,0.1-0.8,0.1c-0.3,0-0.6,0-0.9-0.1c-0.8-0.1-2.9-0.7-3.7-0.8C685,543.6,683.6,543.6,682.2,543.6z"></path>		<path class="st21" d="M681.1,543.2c0.8,0,2.2,0.1,2.7,0.2"></path>		<path class="st21" d="M681.7,542.6c0.8,0,2.2,0.1,2.7,0.2"></path>		<path class="st21" d="M682.2,542.1c0.8,0,2.2,0.1,2.7,0.2"></path>		<path class="st21" d="M682.9,541.4c0.8-0.1,1.9,0.1,2.3,0.3"></path>		<path class="st12" d="M706.9,166.8l-99.8-13.4c-7.6-1-14.6,4.4-15.6,11.9l-3.6,26.7c-0.6,4.5,2.6,8.6,7.1,9.2l0,0   c4.5,0.6,7.7,4.7,7.1,9.2l-1.9,13.9c-0.6,4.5-4.8,7.6-9.3,7l0,0c-4.5-0.6-8.7,2.5-9.3,7L578,265c-1,7.6,4.4,14.5,11.9,15.5   l26.7,3.6c4.5,0.6,7.6,4.8,7,9.3l0,0c-0.6,4.5,2.5,8.7,7,9.3l13.9,1.9c4.5,0.6,8.6-2.6,9.2-7.1l0,0c0.6-4.5,4.7-7.7,9.2-7.1   l26.7,3.6c7.6,1,14.5-4.2,15.5-11.8l13.4-99.7C719.7,174.8,714.5,167.8,706.9,166.8L706.9,166.8z"></path>		<path class="st8" d="M648.6,259.2c19.6,0,35.5-15.9,35.5-35.5s-15.9-35.5-35.5-35.5s-35.5,15.9-35.5,35.5   C613,243.3,629,259.2,648.6,259.2z"></path>		<path class="st10" d="M670.3,245.4c12-12,12-31.4,0-43.4s-31.5-12-43.5,0s-12,31.4,0,43.4C638.9,257.4,658.3,257.4,670.3,245.4z"></path>		<path class="st8" d="M661.2,214.2c-0.5,0.7-1.6,0.8-2.3,0.3c-1.9-1.6-5.4-3.6-8.9-4.1c-3.4-0.4-6.4,0.2-6.8,3.6   c-0.5,3.4,3.1,4.8,8.2,6.8c6.8,2.8,12.1,5.7,11.1,13.3c-1.1,8.1-7.9,10.8-16.1,9.7c-5.4-0.7-10.7-3-14.7-6.4   c-0.6-0.5-0.7-1.4-0.3-2.1l2.4-3.5c0.5-0.8,1.6-0.9,2.3-0.3c2.1,1.8,6.3,4.7,11.3,5.4c4.2,0.6,6.5-0.5,6.9-3.2   c0.5-3.7-4.5-5.4-9.4-7.5c-6.2-2.6-10.6-5.6-9.7-12.1c1.1-8,8-11.5,16-10.4c4.5,0.6,8.6,2.5,12,5.3c0.6,0.5,0.8,1.5,0.3,2.1   L661.2,214.2L661.2,214.2z"></path>		<path class="st8" d="M648.6,203.1l-5.5,40.6c-0.1,0.9,0.5,1.7,1.4,1.8l2.9,0.4c0.9,0.1,1.7-0.5,1.8-1.4l5.5-40.6   c0.1-0.9-0.5-1.7-1.4-1.8l-2.9-0.4C649.6,201.5,648.8,202.2,648.6,203.1z"></path>		<path class="st22" d="M658.5,540.2c-0.2,0.6-7.6-0.5-7.5-1.6c0.6-5.5-1.2-49.5-3.6-62.8c-1.5-8.5-2.9-47.6-1.3-70.1   c0,0,11.7,1,23.3,2.7c1,9-0.4,33.4-2.5,58.7c-0.7,9.1,3.9,19.4,3.5,28.1C669.9,508.1,659,538.7,658.5,540.2L658.5,540.2z"></path>		<path class="st22" d="M689.5,539.4c-0.1,0.7-6.4,0.3-6.6-0.3c-1.9-9.5-6.7-35.3-15.3-63c-5.8-18.6-14-67.6-14-68.6   c0,0,27.8,0,31.7,2c0.1,2.7,1.7,28.6,3.4,56.6c0.3,5.5,4.8,17.2,5.5,22.7C696.3,505.2,689.7,538.2,689.5,539.4z"></path>		<path class="st23" d="M667.6,476.1c-0.3-1.2-2.2-5.2-3.1-9.1c-3.1-12.8-7.3-34.8-8.1-41.1"></path>		<path class="st24" d="M686.6,387.7c1.1-8.2,10.2-34.9,5.2-39.4c-5.2-4-10.1-7.2-19.4-11c0.1,0.3-9,3.4-12.6,2.5   c-2.3,0.8-10.8,6.8-13.8,12.2c-0.7,1.3,1,38.4,0.6,43.1c-0.8,11.1-2.1,16-0.8,17.4c3.6,3.9,28,3.6,39.6-0.9   C687.2,411,684.9,400.8,686.6,387.7L686.6,387.7z"></path>		<path class="st24" d="M663.7,340.2c-1.5-0.6-6.3-2.7-9.2-3.3c-1.6-0.4-3.9-0.5-5.2-1.2c-5.2-2.7-8.4-7.1-9.7-8.6   c-2.7-3.1-15.6-22.5-19.8-28.5c-0.7-1.1-4.7-0.9-5.1,0.6c-1.1,4.1,3.2,30.4,9.5,40c5.8,8.9,23.2,26.1,25.8,26.4   C652.6,365.7,663.7,340.2,663.7,340.2z"></path>		<path class="st24" d="M677.2,339.2c0.9-0.7,9.5-2.3,11.2-3.7c5.3-4.2,9.4-10.8,10.3-12.9c1.7-3.7,8.3-28.5,9.8-34   c0.4-1.5,5.8-1,6.1,0.5c2.8,12,4.7,30.5,2.3,40.8c-2.5,10.3-23.3,36.6-25.7,37.6C688.8,368.4,677.2,339.2,677.2,339.2L677.2,339.2   z"></path>		<path class="st25" d="M646.2,409.5c-0.1,1.1-0.3,1.7-0.2,3"></path>		<path class="st25" d="M647.2,410.2c-0.1,1.1-0.3,1.7-0.2,2.9"></path>		<path class="st25" d="M648.8,410.8c-0.1,1.1-0.3,1.7-0.2,3"></path>		<path class="st25" d="M649.9,411.1c-0.1,1.1-0.3,1.7-0.2,3"></path>		<path class="st25" d="M651.4,411.4c-0.1,1.1-0.3,1.7-0.2,3"></path>		<path class="st25" d="M653.3,411.7c-0.1,1.1-0.3,1.7-0.2,3"></path>		<path class="st25" d="M654.4,411.9c-0.1,1.1-0.3,1.7-0.2,2.9"></path>		<path class="st25" d="M656.4,412c-0.1,1.1-0.3,1.7-0.2,3"></path>		<path class="st25" d="M657.7,412.1c-0.1,1.1-0.3,1.7-0.2,2.9"></path>		<path class="st25" d="M660.3,412.2c-0.1,1.1-0.3,1.7-0.2,2.9"></path>		<path class="st25" d="M662.4,412.2c-0.1,1.1-0.3,1.7-0.2,2.9"></path>		<path class="st25" d="M663.9,412.1c-0.1,1.1-0.3,1.7-0.2,2.9"></path>		<path class="st25" d="M666.9,412c-0.1,1.1-0.2,1.7,0,3"></path>		<path class="st25" d="M665.1,412c-0.1,1.1-0.2,1.7,0,3"></path>		<path class="st25" d="M668.2,411.9c0,1.1,0,1.7,0.3,2.9"></path>		<path class="st25" d="M670.4,411.6c0,1.1,0,1.7,0.3,2.9"></path>		<path class="st25" d="M671.5,411.5c0,1.1,0,1.7,0.3,2.9"></path>		<path class="st25" d="M673.3,411.3c0,1.1,0,1.7,0.3,2.9"></path>		<path class="st25" d="M676.3,410.8c0,1.1,0,1.7,0.3,2.9"></path>		<path class="st25" d="M678.7,410.4c0,1.1,0,1.7,0.3,2.9"></path>		<path class="st25" d="M680,410.3c0,1.1,0,1.4,0.3,2.6"></path>		<path class="st25" d="M681.2,410c0,1.1,0,1.4,0.3,2.6"></path>		<path class="st25" d="M683,409.5c0,1.1,0,1.4,0.3,2.6"></path>		<path class="st25" d="M685,408.8c0,1.1,0.1,2.1,0,2.9"></path>		<path class="st25" d="M686,408.2c-8.4,3.1-18.7,3.9-29.9,3.3c-7.5-0.4-9.9-2.1-10.6-3.1"></path>		<path class="st25" d="M659.2,412.2c-0.1,1.1-0.3,1.7-0.2,2.9"></path>		<path class="st25" d="M685.4,411.8c-3.7,1.9-19.9,4.3-30.1,3.5c-8.7-0.7-9.5-2.8-9.5-2.8"></path>		<path class="st25" d="M645.9,362.7c0-2.2,0.5-7.7,1.2-10.3"></path>		<path class="st26" d="M674.2,330.7c0.3,0.8,3.4,0,3.8-1.3c0.4-1.3-2.4,0.8-1.3-3.4c1.1-4.2,3.5-5.9,5.3-7.9   c1.9-2.1-10.3,2.1-10.3,2.1L674.2,330.7z"></path>		<path class="st27" d="M660.8,336.8l7.6-1.9l6.5,0.3l2.3,4l-17.7,0.7L660.8,336.8z"></path>		<path class="st28" d="M674.8,339.9c0.9,2.2-7.6,2.9-12.2,2.2c-0.5-0.1-1.6,2-2,1.8c-1.7-0.7,3.9-15.7,3.9-15.7l0,0l11.8-4.2   C676.2,324,672.7,334.8,674.8,339.9z"></path>		<path class="st28" d="M677.7,318c-0.2,0.8-0.4,1.7-0.6,2.6c-0.7,2.7-1.9,5.9-3.1,7.9c-2.6,4.3-8,6.9-13,5.7   c-3.8-1-5.1-4.1-4.8-7.2c0-0.1,0-0.3,0-0.4c0.2-1.6,0.9-3.3,1.6-5c0.6-1.4,1.3-2.8,1.7-4c0.5-1.5,1-3.1,1.4-4.5   c0.4-1.5,0.6-2.7,1.3-3.1c1-0.5,2.6-0.9,4.1-1.2c1.7-0.4,3.6-0.6,5-0.2c1.5,0.4,3,1.6,4.2,3c0.7,0.8,1.2,1.6,1.7,2.3   c0.3,0.5,0.5,0.9,0.7,1.3C678.1,315.6,678,316.6,677.7,318L677.7,318z"></path>		<path class="st28" d="M679.5,321.8c1.2,1.7-3.6,7.2-4.7,3.8C673.8,322.2,678,319.7,679.5,321.8z"></path>		<path class="st26" d="M662.6,301.4c-1.4,1.5-2,5.6-0.5,8.6c-0.6-0.4-1.2-0.5-1.6-0.3c-1.1,0.6-0.6,6.9-1.3,8.9   c0.4-0.6,2.7-5.8,3.2-8.4c1.2,1.3,6.2,3.5,11.6,2.8c0.4,0.7-0.6,2.8-0.7,3.3c0,0.6,1.2,1.8,1.7,3.2c0.5,1.5-0.3,4.5-0.2,4.7   c0.4,0.3,1.9-2.8,2.8-3.1c1-0.3,1.8-0.1,2.5-0.7c0.4-0.4,6.6-5.8,1.6-10.6c-2-1.9-8-3-12.6-4.3   C665.4,304.4,662.8,301.2,662.6,301.4L662.6,301.4z"></path>		<path class="st25" d="M670.5,324c-0.9,1.8-3.1,2.6-4.8,1.7s-2.4-3.1-1.5-4.9s3.1-2.6,4.8-1.7S671.4,322.1,670.5,324z"></path>		<path class="st25" d="M670.9,322.6c3.8-1.1,7-1.7,7.7-1.6"></path>		<path class="st25" d="M662.1,320.8c-0.9,1.7-2.7,2.5-4.2,1.8c-1.4-0.7-1.8-2.7-1-4.4c0.9-1.7,2.7-2.5,4.2-1.8   S663,319.1,662.1,320.8z"></path>		<path class="st25" d="M662.6,319.2c1-0.9,2,0.2,2,0.9"></path>		<path class="st10" d="M674.9,335.1l-12.4,7l0.5,7.8c0,0.4,0.5,0.6,0.8,0.3l13.8-10.9L674.9,335.1L674.9,335.1z"></path>		<path class="st10" d="M660.8,336.8l-1.7,3.1l-0.5,6.6c-0.1,0.5,0.6,0.8,0.9,0.3l3.1-4.7L660.8,336.8z"></path>		<path class="st28" d="M615.5,299.2c-0.1-3.1-1.8-8.7-1.4-10.1c0.4-1.5,7.8-6.8,8.1-6.4c0.6,0.7-2.7,3.3-2.7,3.3s5.3-2.6,6-1.9   c0.3,0.3-0.2,1.1-0.7,1.5c1-0.3,1,0.8-0.1,1.8c0.4,0.2-0.2,1.1-0.4,1.4c-0.6,0.7-3.6,2.5-3.7,3.2c-0.1,0.8,0.3,2.5,0.1,3.8   c-0.2,1.2-1.5,1.9-1.8,3C618.5,300.2,615.5,300.1,615.5,299.2L615.5,299.2z"></path>		<path class="st10" d="M624.9,285.7c0,0-0.1,0-0.3,0.1s-0.4,0.2-0.7,0.3c-0.6,0.2-1.3,0.6-2,1s-1.5,0.8-2,1.1   c-0.3,0.2-0.5,0.3-0.6,0.4s-0.2,0.2-0.2,0.2H619v-0.1c0,0,0.1-0.1,0.2-0.2c0.1-0.1,0.3-0.3,0.6-0.5s0.6-0.4,0.9-0.6   c0.3-0.2,0.7-0.4,1.1-0.6c0.4-0.2,0.7-0.4,1.1-0.5c0.4-0.2,0.7-0.3,1-0.4c0.6-0.2,1-0.3,1-0.3S625,285.6,624.9,285.7L624.9,285.7   L624.9,285.7z"></path>		<path class="st10" d="M621.6,284.2c0,0,0,0.1-0.1,0.2s-0.2,0.3-0.4,0.4c-0.3,0.3-0.8,0.7-1.2,1.1c-0.5,0.3-1,0.7-1.3,0.9   c-0.4,0.2-0.6,0.4-0.6,0.4h-0.1v-0.1c0,0,0.2-0.2,0.6-0.5c0.3-0.3,0.8-0.6,1.3-1c0.5-0.3,0.9-0.7,1.3-1c0.2-0.1,0.3-0.3,0.4-0.3   C621.6,284.2,621.6,284.2,621.6,284.2L621.6,284.2C621.6,284.1,621.6,284.2,621.6,284.2L621.6,284.2z"></path>		<path class="st10" d="M624.8,287.5c0,0-0.1,0-0.2,0.1c-0.2,0.1-0.4,0.2-0.6,0.3c-0.2,0.1-0.5,0.3-0.8,0.4   c-0.3,0.2-0.6,0.4-0.9,0.6c-0.6,0.4-1.2,0.8-1.7,1.2c-0.4,0.3-0.7,0.6-0.7,0.6h-0.1v-0.1c0,0,0.3-0.3,0.7-0.6   c0.4-0.4,1-0.8,1.6-1.2c0.3-0.2,0.6-0.4,1-0.6c0.3-0.2,0.6-0.3,0.9-0.4c0.3-0.1,0.5-0.2,0.6-0.2   C624.8,287.6,624.8,287.5,624.8,287.5C624.9,287.5,624.9,287.5,624.8,287.5C624.9,287.4,624.8,287.5,624.8,287.5L624.8,287.5z"></path>		<path class="st25" d="M622.2,303.4c-0.2-0.6-2-3.9-2.9-4.7"></path>		<path class="st25" d="M620.7,304.3c-0.2-0.7-1.8-4.4-2-4.9"></path>		<path class="st25" d="M618.5,305c-0.1-0.7-1-4.4-1.2-4.9"></path>		<path class="st25" d="M617.2,305.2c0-0.7-0.6-4.7-0.7-5.3"></path>		<path class="st25" d="M616,305.5c-0.2-1-0.3-5.9-0.3-5.7"></path>		<path class="st25" d="M615.2,305.4c-0.2-0.8-0.2-4.6-0.2-6.1"></path>		<path class="st25" d="M622.8,303.1c-1.9,2.3-6.3,2.7-8,2.3"></path>		<path class="st25" d="M615.1,299.1c0.5,0.7,2.9,1.6,4.3-0.8"></path>		<path class="st28" d="M713.4,289.2c-0.2-4.5,1.8-9.4,1.1-11c-0.6-1.6-8.9-6.7-9.2-6.2c-0.6,0.8,3.1,3.4,3.1,3.4s-5.9-2.3-6.6-1.6   c-0.3,0.3,0.3,1.2,0.8,1.5c-1.1-0.3-1,0.9,0.2,1.9c-0.4,0.3,0.3,1.2,0.6,1.5c0.7,0.7,3.6,1.9,4.1,2.8c0.3,0.5-0.1,3,0.2,4.4   c0.3,1.3,1.5,2,1.9,3.1C710.2,290.5,713.4,290.1,713.4,289.2L713.4,289.2z"></path>		<path class="st10" d="M702.6,275.2c0,0,0.4,0.1,1.1,0.2c0.3,0.1,0.7,0.2,1.1,0.3c0.4,0.1,0.8,0.3,1.2,0.5s0.8,0.4,1.2,0.5   c0.4,0.2,0.7,0.4,1,0.5c0.3,0.2,0.5,0.3,0.7,0.4s0.2,0.2,0.2,0.2v0.1H709c0,0-0.1-0.1-0.3-0.2s-0.4-0.2-0.7-0.4   c-0.6-0.3-1.4-0.7-2.2-1s-1.6-0.7-2.3-0.9c-0.2-0.1-0.3-0.1-0.4-0.1c-0.1,0-0.2-0.1-0.3-0.1c-0.2-0.1-0.3-0.1-0.3-0.1l-0.1-0.1   C702.5,275.2,702.6,275.2,702.6,275.2L702.6,275.2z"></path>		<path class="st10" d="M705.6,272.8c0,0,0.1,0.1,0.2,0.2c0.1,0.1,0.3,0.3,0.5,0.4c0.2,0.2,0.5,0.4,0.7,0.6c0.3,0.2,0.6,0.4,0.9,0.6   c0.6,0.4,1.2,0.8,1.7,1.1c0.2,0.2,0.4,0.3,0.5,0.4s0.2,0.2,0.2,0.2v0.1h-0.1c0,0-0.3-0.2-0.8-0.5s-1.1-0.7-1.7-1.1   c-0.3-0.2-0.6-0.4-0.9-0.6c-0.3-0.2-0.5-0.4-0.7-0.6c-0.1-0.1-0.2-0.2-0.3-0.3c-0.1-0.1-0.1-0.2-0.2-0.2c-0.1-0.1-0.1-0.2-0.1-0.2   L705.6,272.8C705.5,272.7,705.6,272.8,705.6,272.8L705.6,272.8z"></path>		<path class="st10" d="M702.9,277.1c0,0,0.1,0,0.3,0.1c0.2,0,0.4,0.1,0.7,0.2s0.6,0.2,1,0.4c0.3,0.2,0.7,0.3,1.1,0.5   c0.7,0.4,1.4,0.8,1.9,1.2c0.5,0.4,0.8,0.6,0.8,0.6v0.1h-0.1c0,0-0.3-0.2-0.8-0.5s-1.2-0.7-1.9-1.1c-0.3-0.2-0.7-0.4-1-0.5   c-0.3-0.2-0.7-0.3-0.9-0.4c-0.3-0.1-0.5-0.2-0.7-0.2c-0.2-0.1-0.3-0.1-0.3-0.1c-0.1,0-0.1-0.1-0.1-0.1   C702.8,277.1,702.8,277.1,702.9,277.1L702.9,277.1z"></path>		<path class="st25" d="M707.8,294.5c0.1-0.7,1.1-4.3,1.7-5.2"></path>		<path class="st25" d="M709.4,295c0-0.7,0.7-4.7,0.8-5.2"></path>		<path class="st25" d="M711.6,295.2c-0.1-0.7,0-4.5,0-5"></path>		<path class="st25" d="M713,295.1c-0.2-0.7-0.5-4.3-0.6-4.9"></path>		<path class="st25" d="M714.2,295.1c0-1-0.8-5.4-0.8-5.2"></path>		<path class="st25" d="M715,294.8c-0.2-0.6-0.6-4.1-1-5.5"></path>		<path class="st25" d="M715.6,294.5c0-0.8-0.7-4.3-1.1-5.6"></path>		<path class="st25" d="M707.1,294.3c2.4,1.8,7.2,1.1,8.5,0.2"></path>		<path class="st25" d="M713.9,289c-0.3,0.8-2.7,1.9-4.7-0.1"></path>		<path class="st20" d="M489,513.7c-0.8,0.6-5.5,10.4-6.3,11.6c-0.6,0.8-17-3.6-17.5-2.4c-1.1,2.5,31.5,32,51.4,27.3   c14.3-3.3,33-19.7,32.7-31.1c0-2-7.6,6.9-21.9,10.1c-5.7-9.1-13-19.4-15.5-21.5C507.9,504.6,489,513.7,489,513.7L489,513.7z"></path>		<path class="st29" d="M500.6,544.2c3.5,0.7,10.1,4,10.4,6.4c0.4,2.5-7.2,4.3-10,2.9c-2.9-1.4-10.1-6.5-10.1-6.5L500.6,544.2z"></path>		<path class="st30" d="M492.4,546.3c3.6,3.4,8.2,4.7,9.6,4.2c1.3-0.5,3.8-3.4,2-4.6C502.2,544.8,492.4,546.3,492.4,546.3z"></path>		<path class="st20" d="M548.5,519.2c5.3,15-73.3,34.7-73.6,30.6c-0.3-4.8-2.6-5.6-2.6-5.6S541.6,499.7,548.5,519.2z"></path>		<path class="st20" d="M437.2,531.5c1.7,14.2,43.4,14.5,53.2,16.2c2.3-4.2,8.9-3.3,8.9-3.3s-10.4-10.2-25-16.7   C457.2,520.2,435.5,517.1,437.2,531.5L437.2,531.5z"></path>		<path class="st31" d="M520.6,519.2c-7,1.5-41.1,24.7-44.2,25.6"></path>		<path class="st31" d="M503.2,544.8c8.2-0.5,25.9-3.8,29.8-8.5"></path>		<path class="st31" d="M489.1,536.4c-2.6-1.5-5.9-3-9.1-4"></path>		<path class="st30" d="M475.6,549.7c-2.6,0.3-4.9,0.8-6.7,1c-4,0.3-6-0.1-7.4,0.2c-0.1,0-0.7,0.2-1.5,0.4c-2.4,0.5-3.2-3.1-1.8-3.5   c2-0.6,10.4-4.9,11.7-5.2c1.8-0.4,2.8,0.1,3.9,1c0.9,0.7,1.1,1.5,2.6,1.7C477.5,545.4,476.7,549.6,475.6,549.7L475.6,549.7z"></path>		<path class="st29" d="M473.8,543.3c0.2,0.1,0.1,0.3,0,0.4c-1.4,0.7-4.4,1.2-6.1,1.6c-2.2,0.5-7.5,2.5-8,4.8   c-0.1,0.4,0.2,0.7,0.5,1c0.1,0.1,0,0.3-0.1,0.3c-2.5,0.5-6.9,1-6.7-0.9c0.1-0.7,2.7-4,4.1-4.4c2-0.6,4.5-0.9,6.3-1.5   c2.1-0.7,5.1-2.7,6.4-2.9C471.9,541.3,472.7,542.5,473.8,543.3L473.8,543.3z"></path>		<path class="st32" d="M476.6,468.4c0.1,1.3,0.9,2.4,1.7,3.4c4,5,8.4,10.3,14.5,12.3c1.9,0.6,3.9,0.9,5.7,1.9   c5.1,2.8,2.2,9.8,6.4,13c1.6,1.2,3.8,1.3,5.6,0.6c1.9-0.6,3.5-1.9,4.9-3.2c6.5-5.6,2.3-7.8,2.7-11.6c0.3-2.7,3.1-4.4,4.9-6.5   c2.8-3.3,3-8.6,0.5-12.1c-0.4-0.6-0.9-1.2-0.9-1.9c0-0.8,0.8-1.4,1.1-2.1c0.7-1.5-0.2-3.2-1.3-4.5c-1.1-1.2-2.4-2.5-2.5-4.2   c0-1,0.4-2,0.5-3c0.3-2.5-2.5-3.4-4.1-5.3c-1.5-1.7-0.9-5.6-1.6-7c-0.7-1.6-3.2-1.2-4.7-1.8c-1.5-0.6-3-3.8-4.2-4.5   c-1-0.5-4.6,0.9-5.6,0.1c-1.6-1.3-2.4-2.9-4.7-3.2c-3.3-0.5-4.5,0.7-6.5,1.2c-1.9,0.5-13.7-0.2-14.7,8.2c-0.3,2.7,2.3,6.2,2.6,9   c0.2,2.3-0.1,4.5-1,6.8c-0.5,1.2-1.2,2.5-0.7,3.6c0.6,1.3,2.4,1.7,3.2,2.9C480,463.1,476.5,465.7,476.6,468.4z"></path>		<path class="st33" d="M488.3,462.6c0.2,0.2,0.4,0.4,0.5,0.7c1.3,1.4,2.6,2.6,3.7,4.1c2.2,3.1,3.7,6.6,4.8,10.1   c1.9,5.9,2.9,12,4.9,17.9c0.2,0.7,0.5,1.4,1,1.9s1.2,0.7,1.9,0.8c2.8,0.4,5.6-1.6,6.9-4.1c1.4-2.5,1.6-5.5,1.9-8.3   c0.3-3,0.6-6,0.8-9.1c0.1-1.3,0.2-2.7-0.3-3.9c-0.6-1.6-2.2-2.7-2.7-4.3c-0.7-2.1,0.5-4.8-0.9-6.6c-0.9-1.2-2.1-1.6-2.8-3   c-0.4-0.9-0.5-2.1-0.7-3.1c-0.8-3.3-2.2-2.8-4.6-4.7c-1.5-1.2-1-2.7-1.6-4.3c-0.6-1.6-2-3-3.3-4.1l-5.3,1c0,0-12.8-4.7-11.3,4.3   c0.8,4.7-1.4,6.8,0.2,9.2c1,1.5,2.8,1,4.2,2.1C486.8,460.2,487.5,461.5,488.3,462.6L488.3,462.6z"></path>		<path class="st4" d="M473.5,513c2.5-1.4,12.6-23.2,14.7-28.5c5.5-13.9,0.2-21.6-4.4-16.6c-3.4,3.7-13.5,28-17.5,37.5   C465.1,507.9,469.2,515.4,473.5,513z"></path>		<path class="st4" d="M480.9,488.4c0.7,3.3,3.8,4.6,4.3,5.9c0.1,0.1,2.4,12.5,3.8,19.4c0.2,1.2,19.2-0.4,24.2-4.5   c-0.7-8.9-1.6-12.8-0.4-20.8c0.3-1.7,0.5-2.1,0.9-3.6c2.3-8.3,3.9-14.5,1.8-16.8c-3.1-3.2-16-6.6-18.6-6.2   c-2.1,0.3-5.9,1.2-8.3,2.8c-2,1.4-3.1,0.9-4.8,3.5c-0.9,1.4-0.5,9.7-0.5,11.5C483.2,481.7,480.1,485.3,480.9,488.4L480.9,488.4z"></path>		<path class="st9" d="M480.9,488.4c0.7,3.3,3.8,4.6,4.3,5.9c7.8,0.4,19.8,0.7,19-0.3c-1.3-1.6-3.2-3.2-6.1-4.3   C494.1,488.1,482.3,490.5,480.9,488.4L480.9,488.4z"></path>		<path class="st34" d="M483.2,475.7c0,1.4,0.1,2.7,0.1,3.4c0,2.3-3.1,6.2-2.4,9.4c0.5,2.1,1.9,3.4,3,4.4"></path>		<path class="st30" d="M488.5,464.4c-0.9,3,0.6,5.1,2.9,5.4c3.2,0.5,8.8-1.3,12.7-6.9c-2.6-0.7-4.5-1.5-7.3-1.3   C491.6,462.2,488.8,464.3,488.5,464.4z"></path>		<path class="st30" d="M501.2,462.2c1.4,1-7.6,4.9-10.4,2.7c-0.3-0.2,0-1.4,0.2-2.8c0.2-2.3-0.7-6.4-1.2-7.6l6.8-10.8l1.9,1.4   C496.6,453,498.8,460.5,501.2,462.2L501.2,462.2z"></path>		<path class="st30" d="M479,442.7c0.1,1.9,1,4.1,1.7,6.5c0.2,0.7,0.3,1.4,0.5,2.2c0,0.2,0.1,0.4,0.1,0.6c0.2,1.2,0.4,2.4,0.9,3.4   c0,0.1,0.1,0.1,0.1,0.2s0.1,0.2,0.2,0.3c1.4,2.7,4.2,5,7.2,4.8c5.9-0.4,9.2-8.3,8.3-16.1c-0.3-1.1-0.8-2.2-1.5-3.2   c-0.4,0.6-1.9,1.7-3.5,0.4c-1.9-1.5-2.8-4-4.8-4.1C486.6,443.6,479.6,438.2,479,442.7L479,442.7z"></path>		<path class="st35" d="M492.6,448.1l3.8-6.8"></path>		<path class="st35" d="M485.4,449.8c-0.5-1.3-2-0.9-1.7,0"></path>		<path class="st35" d="M484.1,450.7c0.5,1.8-0.2,3.7-1.6,4.1s-3.1-0.7-3.6-2.5s0.2-3.7,1.6-4.1C482,447.7,483.6,448.8,484.1,450.7z   "></path>		<path class="st35" d="M492.3,451c1-1.8,0.3-4-1.5-5s-4-0.3-5,1.5s-0.3,4,1.5,5C489.1,453.5,491.4,452.8,492.3,451z"></path>		<path class="st36" d="M491,460.4c2-0.8,4.7-3,6-7.1"></path>		<path class="st30" d="M498.9,440c1.9,1,0.5,8.1-1.8,4.7c-1-1.4-1.1-2.4-0.7-3.4C497.1,439.9,498.3,439.6,498.9,440L498.9,440z"></path>		<path class="st36" d="M498.7,441.1c-0.5,0-1.3,0.5-1,1.6c0.1,0.3,0.3,0.3,0.4,0.6c0,0.2-0.2,0.5-0.3,0.5"></path>		<path class="st36" d="M498.6,442c-0.3-0.4-0.9-0.2-1,0.2"></path>		<path class="st34" d="M504.1,462.9c-3.2,6.4-10.6,8-13.6,7c-3.2-1.1-2.4-4.3-2.1-5.2"></path>		<path class="st4" d="M516,468.7c8.2,11.1,18.1,33.7,16.5,39.1c-2.8,9.6-25.7,15.6-36,12.6c-0.9-0.3-0.8-3.7,0-3.7   c8.5-0.7,24.7-8.9,25.1-11.7c0.2-1.1-5.9-10.6-8.9-16.6c-3.6-7.3-2.7-15.6-1-18.3C512.8,468.4,513.9,465.8,516,468.7L516,468.7z"></path>		<path class="st34" d="M512.7,488.3c-0.6-0.9-2.3-4-3.5-5.4"></path>		<path class="st30" d="M487.9,528c0.8,0.4,2.2-2.8,2.6-3.1c0.3-0.2,1.8-0.4,3.8-1l0,0c1.2-0.4,2.6-0.9,3.9-1.7   c3.7-2.2,0.5-6.2-1.7-5.6c-0.2,0-0.4,0.1-0.5,0.2c-4,2.8-9.3,5.4-9.8,5.9s-1.2,3-1.1,3c0.5,0.2,1.4-1.9,1.7-1.9   C486.9,523.9,486.7,527.4,487.9,528L487.9,528z"></path>		<path class="st37" d="M487.5,527.4c0,0,0-0.3,0-0.8s0-1.2,0.1-1.8c0-0.3,0.1-0.7,0.2-1c0.1-0.2,0.1-0.3,0.3-0.4   c0.1-0.1,0.3-0.2,0.4-0.3c0.2-0.1,0.4-0.2,0.6-0.2s0.2-0.1,0.2-0.1c0.1,0,0.1,0,0.1,0.1v0.1c0,0-0.1,0-0.2,0.1s-0.3,0.2-0.5,0.3   c-0.1,0.1-0.2,0.1-0.3,0.2c-0.1,0.1-0.1,0.2-0.2,0.3c-0.1,0.3-0.1,0.6-0.2,0.9c-0.1,0.6-0.2,1.3-0.2,1.8c-0.1,0.5-0.1,0.8-0.1,0.8   C487.7,527.5,487.6,527.5,487.5,527.4C487.5,527.5,487.5,527.4,487.5,527.4L487.5,527.4z"></path>		<path class="st37" d="M488.1,527.7c0,0,0-0.3,0.1-0.7c0-0.2,0.1-0.5,0.2-0.8s0.2-0.6,0.2-0.9c0.1-0.3,0.2-0.6,0.3-0.8   c0.1-0.1,0.1-0.3,0.2-0.4c0.1-0.1,0.1-0.1,0.2-0.1s0.1-0.1,0.2-0.1c0.4-0.2,0.8-0.3,0.8-0.3c0.1,0,0.1,0,0.1,0.1   c0,0,0,0.1-0.1,0.1c0,0-0.3,0.1-0.6,0.3l-0.1,0.1l-0.1,0.1c-0.1,0.1-0.1,0.2-0.2,0.3c-0.1,0.2-0.2,0.5-0.3,0.8   c-0.2,0.6-0.4,1.1-0.5,1.6c-0.1,0.4-0.2,0.7-0.2,0.7C488.2,527.8,488.2,527.8,488.1,527.7C488.1,527.8,488,527.7,488.1,527.7   L488.1,527.7z"></path>		<path class="st37" d="M486.7,523.9c0,0,0-0.1,0.1-0.3s0.2-0.4,0.3-0.6c0.2-0.2,0.4-0.3,0.6-0.3s0.3,0,0.3,0l0,0   c0.1,0,0.1,0,0.1,0.1c0,0,0,0.1-0.1,0.1c0,0-0.1,0-0.2,0.1s-0.3,0.2-0.4,0.3s-0.2,0.3-0.3,0.4c-0.1,0.1-0.2,0.2-0.2,0.2   C486.8,524,486.8,524,486.7,523.9L486.7,523.9z"></path>		<path class="st4" d="M468.8,503.8l10.8,25.5c0.1,0.3,0.5,0.6,0.8,0.6l12.6-0.1c0.6,0,1,0.5,0.9,1.1l-0.1,0.5   c-0.1,0.4-0.5,0.7-0.9,0.7l-51.4,0.1c-0.8,0-1.5-0.4-1.8-1.1l-13.4-25.4c-0.3-0.6,0.1-1.3,0.8-1.3l40.8-1.1   C468.3,503.2,468.7,503.4,468.8,503.8L468.8,503.8z"></path>		<path class="st38" d="M447.9,514.8c0.5,0.7,1.8,1.3,3,1.3s1.8-0.6,1.3-1.3s-1.8-1.3-3-1.3C448.1,513.5,447.5,514.1,447.9,514.8z"></path>		<path class="st38" d="M449.4,528.6h-6.7"></path>		<path class="st38" d="M460.1,528.6h-6.4"></path>		<path class="st38" d="M467.9,528.6h-3.5"></path>		<path class="st38" d="M467.7,503.1l10.8,25.5c0.1,0.3,0.5,0.6,0.8,0.6L492,529c0.6,0,1,0.5,0.9,1.1l-0.1,0.5   c-0.1,0.4-0.5,0.7-0.9,0.7l-51.4,0.1c-0.8,0-1.5-0.4-1.8-1.1L425.3,505c-0.3-0.6,0.1-1.3,0.8-1.3l40.8-1.1   C467.2,502.5,467.5,502.7,467.7,503.1L467.7,503.1z"></path>		<path class="st8" d="M220.7,543.7c-0.3-0.2-1.9-0.5-4-0.7c-3.5-0.5-9.2-1.5-10.8-3.1c-1.3-1.3-1.2-5.2-1.2-5.2s-5.5,0.6-6.9,2   c0.7,2.1-0.5,5.5-0.8,7.7c-0.3,1.3,0.1,2.1,0.8,2.1h23C221.5,546.5,221.7,544.5,220.7,543.7L220.7,543.7z"></path>		<path class="st39" d="M205.6,539.7c3.7-2.5,6.5-2.8,6.7-1.4C212.5,540,209.3,540.6,205.6,539.7z"></path>		<path class="st39" d="M205.6,539.7c2.3-3.8,5-4.8,5.7-3.7C212.2,537.5,209.3,539,205.6,539.7z"></path>		<path class="st39" d="M211,541.5c-2.5,0.5-5.4-1.7-5.4-1.7s1.7,3.3,4.6,3.7"></path>		<path class="st8" d="M177.4,543.7c-0.1-0.1-0.5-0.1-1.1-0.2l0,0c-3.5-0.5-5.3-5.4-5.3-8.7c-1.3-1-4.7,0.2-6.2,1.6   c0.8,3.2-1,5.9-1.4,8l0,0c-0.3,1.3,0.1,2.1,0.8,2.1h13.6C178.5,546.5,178.4,544.3,177.4,543.7z"></path>		<path class="st8" d="M218.7,434.3c1-0.6-4.5-81.7-6.8-88.3h-12.4l12.7,89.3C212.2,435.3,218,434.7,218.7,434.3z"></path>		<path class="st40" d="M197.5,539.8c0.2,0.7,8-0.6,7.9-1.7c-0.6-5.8,1.3-52.3,3.8-66.3c1.6-8.9,3.1-50.3,1.3-74.1   c0,0-12.3,1.1-24.6,2.8c-1,9.5,0.5,35.2,2.6,62.1c0.8,9.6-4.1,20.5-3.7,29.7C185.4,505.9,197,538.2,197.5,539.8z"></path>		<path class="st40" d="M164.7,538.9c0.1,0.7,6.8,0.4,7-0.4c2-10,7.1-37.3,16.2-66.5c6.1-19.7,14.8-71.4,14.8-72.5   c0,0-29.3-0.1-33.5,2.1c-0.1,2.8-1.8,30.2-3.6,59.8c-0.4,5.8-5.1,18.2-5.8,24C157.5,502.8,164.6,537.7,164.7,538.9L164.7,538.9z"></path>		<path class="st41" d="M186.5,476.6c1.8-5.9,5.6-19.5,7.4-27.3c2.6-10.9,4.9-22.3,6.1-29.9"></path>		<path class="st39" d="M170.3,540.6c1.2-2.5,3.5-3.8,4.2-2.7C175.3,539.2,173.8,540.5,170.3,540.6z"></path>		<path class="st39" d="M170.3,540.6c-2.4,1.1-4.7-0.4-4.5-1.7C166.1,537.2,169,539.3,170.3,540.6z"></path>		<path class="st39" d="M173.8,542.3c-2.1-0.3-3.6-1.7-3.6-1.7s-1.6,1.6-3.2,1.8"></path>		<path class="st8" d="M236.5,355c-3.5,3.4-14.8,2.9-22.3,2.7c-2,0-10.4-2.9-12-4.2c-6.3-4.6-18-24.3-8.4-24.5   c1.8,0,7.7,1.1,10.3,1.9c5,1.5,18,8,20.3,6.2c2.6-2,5.7-25.3,7.9-26.5c0.6-0.3,10.5,0.8,11,2.8C244.4,318.4,243.1,348.8,236.5,355   L236.5,355z"></path>		<path class="st10" d="M209.8,404.6c-3.1,3.5-22.6,3.6-35.1,0.4c-1.7-0.4-0.4-71.8,5.4-74.5c3.9-1.8,11.4-1.9,15.7,0.1   c2.2,1.1,10.8,7.9,13.8,13.2c0.7,1.3-1,38.5-0.6,43.2C209.8,398.2,211.1,403.1,209.8,404.6L209.8,404.6z"></path>		<path class="st8" d="M157.9,431.5c0.6,1.5,24.2,6,25.5,4.7c0.7-0.7,7.1-71.1,6.7-81.2c-0.3-7.3-7.1-20.5-9.6-24.8   c-0.1-0.1-0.3-0.2-0.4-0.1c-3.1,1.3-13.8,8.4-16.6,14.7c-4.1,9.1,1.5,37.4,1.7,44.2C165.6,404.8,157.6,430.6,157.9,431.5   L157.9,431.5z"></path>		<path class="st42" d="M181.8,330.1c-0.8,2.5,8.3,7.3,12.4,6.3c1.8-0.4,1.5-4.7,0.6-7.1c-1.5-4-1.7-9.1-1.7-9.1l0,0l-10.9-6.3   C182.2,314,183.4,324.9,181.8,330.1z"></path>		<path class="st42" d="M201.9,316.8c2.4,9.8-11.3,11.8-17.4,4c-2.9-3.7-5.8-11.7-5.5-12.7c0.4-1.3,1.2-2.7,2-3.9   c2.3-3.4,4.5-4.3,8.9-3.9c1.5,0.2,2.9,1,4,1.3c1.7,0.5,1.9,2.7,3.8,6.6c0.3,0.7,0.8,1.4,1.2,2.2c0.8,1.3,1.6,2.7,2.3,4.1   C201.4,315.3,201.7,316.1,201.9,316.8L201.9,316.8z"></path>		<path class="st42" d="M178.2,314.7c-1,1.8,4.4,6.7,5.1,3.2C183.9,314.5,179.4,312.5,178.2,314.7z"></path>		<path class="st43" d="M181.8,316.4c-0.6-1.2-2.7-1.3-3-1.1"></path>		<path class="st43" d="M180.3,316.9c0-0.6,0.5-1,0.9-1.1"></path>		<path class="st44" d="M196.2,301.9c-0.2-0.4-1.1-0.9-2.1-0.9c0.2-0.6-0.2-3.9-0.5-4.4c-2.4-3.6-16.4,6.6-16.7,7.2   c-1.1,1.8-0.2,9,0.6,9.6c0.7,0.6,1.5,0.2,2.6,0.4c0.4,0.1,1.2,0.5,1.8,1.3c0.4,0.5,1.1,2.2,1.5,2.9c0.3,0.6,1.7,0.2,1.8,0.1   c0.3-0.3-1.7-4-1.8-5.3c-0.1-0.6,1.6-3.9-0.6-7.4c5.4,0.1,10.4-2.1,11.4-3.5c0.8,2.6,3.5,6.8,3.9,7.4   C197.1,307.2,196.9,303.2,196.2,301.9L196.2,301.9z"></path>		<path class="st45" d="M186.9,316c1.2,1.8,3.5,2.3,5.2,1.1c1.7-1.1,2.1-3.5,0.9-5.2c-1.2-1.8-3.5-2.3-5.2-1.1   C186.2,311.9,185.8,314.3,186.9,316z"></path>		<path class="st45" d="M186.4,314.7c-4-0.6-7.4-0.9-8.1-0.7"></path>		<path class="st45" d="M195.1,311.8c1.1,1.7,3.1,2.3,4.5,1.4s1.6-3,0.5-4.7s-3.1-2.3-4.5-1.4C194.2,308.1,194,310.1,195.1,311.8z"></path>		<path class="st45" d="M194.5,310.2c-1.2-0.8-2,0.4-1.9,1.1"></path>		<path class="st43" d="M193.7,325.7c-3.1-0.1-6.9-1.2-8.6-4.1"></path>		<path class="st42" d="M235.6,311.3c-0.1-1.2-1.5-2.6-1.7-3.8c-0.3-1.8,0.9-4.7,1.2-5.7c0.3-1.1,0.3-2.5,0.7-2.4   c0.3,0,0.9,0.5,1.1,1c0.4,1.8-0.9,3.2,0.2,3.9c0.3,0.2,1.4-1.8,2.2-4.6c0.4-1.5,0.8-2.8,1.4-4.6c0.3-0.8,1.6-0.9,1.4,0.3   c-0.3,2.1-1.2,5.7-0.8,6c0.3,0.2,2-4.3,3.1-6.5c0.4-0.8,1.1-0.5,1.4,0.3c0.4,1,1,5.3,0.6,7.2c-0.8,3.8-2.3,6.1-3.6,7.9   c-0.4,0.6-1.8,1.5-2.2,2c-0.2,0.2-0.3,0.5-0.5,0.9C239.6,313.7,235.7,312.8,235.6,311.3L235.6,311.3z"></path>		<path class="st46" d="M236.7,304.4c0,0,0.1,0,0.2,0c0.1,0,0.3,0.1,0.5,0.1c0.2,0.1,0.4,0.2,0.6,0.3c0.1,0.1,0.2,0.1,0.3,0.2   s0.2,0.2,0.3,0.3c0.1,0.1,0.2,0.2,0.3,0.3c0.1,0.1,0.2,0.2,0.2,0.3c0.1,0.2,0.2,0.5,0.2,0.6s0,0.2,0,0.3c0,0.1,0,0.2,0,0.2   c0,0.1,0,0.2,0,0.2s0,0.1-0.1,0.1c0,0-0.1,0-0.1-0.1l0,0c0,0,0-0.1,0-0.2s0-0.1,0-0.2s0-0.2-0.1-0.2c-0.1-0.2-0.1-0.4-0.3-0.5   c-0.1-0.2-0.3-0.4-0.4-0.5c-0.1-0.1-0.2-0.2-0.3-0.2c-0.1-0.1-0.2-0.1-0.3-0.2c-0.2-0.1-0.4-0.2-0.5-0.3c-0.2-0.1-0.3-0.1-0.4-0.2   c-0.1,0-0.2-0.1-0.2-0.1c-0.1,0-0.1-0.1-0.1-0.1C236.6,304.4,236.6,304.3,236.7,304.4z"></path>		<path class="st46" d="M239.2,301.7c0,0,0.1,0,0.3,0s0.5,0,0.8,0.1s0.7,0.2,1,0.3c0.4,0.2,0.8,0.3,1.1,0.5c0.4,0.2,0.7,0.5,1,0.7   c0.2,0.1,0.3,0.3,0.4,0.4c0.1,0.1,0.2,0.3,0.3,0.4s0.2,0.3,0.3,0.4s0.1,0.2,0.2,0.3c0.1,0.2,0.1,0.3,0.1,0.3v0.1h-0.1l0,0   c0,0-0.1-0.1-0.2-0.2c-0.1-0.1-0.1-0.2-0.2-0.3c-0.1-0.1-0.2-0.2-0.3-0.3c-0.1-0.1-0.2-0.2-0.4-0.3c-0.1-0.1-0.3-0.2-0.4-0.4   c-0.3-0.2-0.6-0.5-1-0.7s-0.7-0.4-1.1-0.5c-0.4-0.2-0.7-0.3-1-0.4s-0.5-0.1-0.7-0.2c-0.2,0-0.3,0-0.3,0   C239.1,301.9,239.1,301.9,239.2,301.7C239.1,301.8,239.2,301.7,239.2,301.7L239.2,301.7z"></path>		<path class="st46" d="M245.6,296.5C245.6,296.5,245.5,296.5,245.6,296.5c-0.1,0.1-0.1,0.1-0.2,0.2c-0.1,0.1-0.2,0.4-0.3,0.6   c-0.2,0.5-0.5,1.3-0.8,2.1c-0.1,0.4-0.3,0.8-0.5,1.1c-0.1,0.4-0.3,0.7-0.4,0.9c-0.3,0.5-0.5,0.9-0.5,0.9h-0.1v-0.1   c0,0,0-0.1,0.1-0.2c0.1-0.2,0.2-0.4,0.3-0.7c0.1-0.3,0.2-0.6,0.4-1c0.1-0.4,0.3-0.7,0.4-1.1c0.2-0.4,0.3-0.7,0.5-1.1   c0.2-0.3,0.3-0.7,0.4-0.9c0.1-0.3,0.3-0.5,0.4-0.6c0.1-0.1,0.1-0.1,0.1-0.2l0.1-0.1h0.1C245.6,296.4,245.6,296.4,245.6,296.5   L245.6,296.5z"></path>		<path class="st46" d="M246,298.5c0,0-0.1,0.1-0.1,0.2s-0.1,0.1-0.1,0.2s-0.1,0.2-0.1,0.3c-0.2,0.4-0.3,1-0.4,1.6   c-0.1,0.3-0.2,0.6-0.3,0.9s-0.2,0.5-0.3,0.8c-0.1,0.2-0.2,0.4-0.3,0.5s-0.1,0.2-0.1,0.2s-0.1,0.1-0.1,0c0,0-0.1-0.1,0-0.1   c0,0,0-0.1,0.1-0.2s0.1-0.3,0.2-0.5c0.1-0.2,0.2-0.5,0.3-0.7c0.1-0.3,0.2-0.6,0.3-0.9s0.2-0.6,0.3-0.9s0.2-0.5,0.3-0.8   c0-0.1,0.1-0.2,0.2-0.3c0.1-0.1,0.1-0.2,0.2-0.2c0.1-0.1,0.2-0.1,0.2-0.1l0,0h0.1C246,298.4,246,298.5,246,298.5L246,298.5z"></path>		<path class="st10" d="M234.7,310.1c-0.4,0.2-0.8,1.6-0.9,2c0.1,0.1,5.1,1.4,7.1,1.4C241.2,313.5,235,309.9,234.7,310.1z"></path>		<path class="st21" d="M232.9,311.4c0.7,0.8,7.3,2.5,9.6,2"></path>		<path class="st8" d="M207.1,366.2c0.5,12.3,0.2,50.6-0.8,69.4c0,0,4.4,0,5.9-0.3c4.6-1,0.7-59.1,0.7-59.1l-0.7-29l-1.5-8.2   c0,0-12-9.4-14.9-8.4C200.2,333.1,206.5,351.1,207.1,366.2z"></path>		<path class="st21" d="M211.8,348.6c0.9,3,1.5,6.2,1.9,9.3"></path>		<path class="st6" d="M368.3,315.1l3.4-26.7c1-7.6-4.3-14.6-11.9-15.5l-26.7-3.4c-4.5-0.6-8.6,2.6-9.2,7.1l0,0   c-0.6,4.5-4.7,7.7-9.2,7.1l-13.9-1.8c-4.5-0.6-7.7-4.7-7.1-9.2l0,0c0.6-4.5-2.6-8.6-7.1-9.2L260,260c-7.6-1-14.6,4.4-15.6,12   l-12.9,99.8c-1,7.6,4.5,14.5,12,15.5l26.7,3.4c4.5,0.6,8.6-2.6,9.2-7.1l0,0c0.6-4.5,4.7-7.6,9.2-7.1l13.9,1.8   c4.5,0.6,7.7,4.7,7.1,9.2l0,0c-0.6,4.5,2.6,8.6,7.1,9.2l26.7,3.4c7.6,1,14.4-4.3,15.4-11.9l3.4-26.7c0.6-4.5,4.7-7.7,9.2-7.1l0,0   c4.5,0.6,8.6-2.6,9.2-7.1l1.8-13.9c0.6-4.5-2.6-8.6-7.1-9.2l0,0C370.9,323.7,367.7,319.6,368.3,315.1L368.3,315.1z"></path>		<path class="st9" d="M288.3,295.6l6.2,0.2l0.9,6.5L287,302L288.3,295.6z"></path>		<path class="st9" d="M273.6,303.8l4.5-4.4l5,3.9l-6.1,6L273.6,303.8z"></path>		<path class="st9" d="M268.8,320.4l0.2-6.4l6.2-1l-0.3,8.8L268.8,320.4z"></path>		<path class="st9" d="M276.6,335.7l-4.2-4.7l3.7-5.3l5.7,6.4L276.6,335.7z"></path>		<path class="st9" d="M292.5,340.8l-6.2-0.2l-0.9-6.5l8.4,0.3L292.5,340.8z"></path>		<path class="st9" d="M307.2,332.6l-4.5,4.4l-5-3.9l6.1-6L307.2,332.6z"></path>		<path class="st9" d="M312,315.9l-0.2,6.4l-6.2,1l0.3-8.8L312,315.9z"></path>		<path class="st9" d="M304.2,300.6l4.2,4.7l-3.7,5.3l-5.7-6.4L304.2,300.6z"></path>		<path class="st9" d="M291,300.2c-9.5-0.3-17.5,7.5-17.8,17.4s7.1,18.2,16.6,18.6c9.5,0.3,17.5-7.5,17.8-17.4   C307.9,308.8,300.5,300.5,291,300.2z M290.2,324.8c-3.5-0.1-6.2-3.2-6.1-6.8c0.1-3.7,3.1-6.5,6.5-6.4c3.5,0.1,6.2,3.2,6.1,6.8   S293.7,324.9,290.2,324.8z"></path>		<path class="st9" d="M310.1,301.1l8.4,0.3l1.2,8.8l-11.5-0.4L310.1,301.1z"></path>		<path class="st9" d="M290.1,312.3l6.2-6l6.9,5.3l-8.4,8.2L290.1,312.3z"></path>		<path class="st9" d="M283.5,335l0.3-8.8l8.5-1.3l-0.4,12L283.5,335z"></path>		<path class="st9" d="M294.1,355.8l-5.7-6.4l5.1-7.2l7.8,8.7L294.1,355.8z"></path>		<path class="st9" d="M315.8,362.7l-8.4-0.3l-1.2-8.8l11.5,0.4L315.8,362.7z"></path>		<path class="st9" d="M335.8,351.5l-6.2,6l-6.9-5.3l8.4-8.2L335.8,351.5z"></path>		<path class="st9" d="M342.4,328.8l-0.3,8.8l-8.5,1.3l0.4-12L342.4,328.8z"></path>		<path class="st9" d="M331.8,308l5.7,6.4l-5.1,7.2l-7.8-8.7L331.8,308z"></path>		<path class="st9" d="M313.8,307.4c-13-0.4-23.8,10.2-24.3,23.7s9.7,24.9,22.6,25.3c13,0.4,23.8-10.2,24.3-23.7   C336.9,319.1,326.7,307.8,313.8,307.4z M312.5,344c-6.4-0.2-11.4-5.8-11.2-12.5c0.2-6.7,5.6-11.9,12-11.7   c6.4,0.2,11.4,5.8,11.2,12.5C324.3,339,318.9,344.2,312.5,344z"></path>		<path class="st17" d="M290.9,327.2l4.6,0.2l0.7,4.8L290,332L290.9,327.2z"></path>		<path class="st17" d="M280,333.3l3.3-3.3l3.7,2.9l-4.5,4.5L280,333.3z"></path>		<path class="st17" d="M276.4,345.6l0.2-4.8l4.6-0.7l-0.2,6.5L276.4,345.6z"></path>		<path class="st17" d="M282.2,357l-3.1-3.5l2.8-3.9l4.2,4.7L282.2,357z"></path>		<path class="st17" d="M294,360.7l-4.6-0.2l-0.7-4.8l6.2,0.2L294,360.7z"></path>		<path class="st17" d="M304.9,354.6l-3.3,3.3l-3.7-2.9l4.6-4.5L304.9,354.6z"></path>		<path class="st17" d="M308.5,342.3l-0.2,4.8l-4.6,0.7l0.2-6.5L308.5,342.3z"></path>		<path class="st17" d="M302.7,331l3.1,3.5l-2.8,3.9l-4.2-4.7L302.7,331z"></path>		<path class="st17" d="M292.9,330.7c-7-0.2-12.9,5.5-13.2,12.9c-0.2,7.4,5.3,13.5,12.3,13.7s12.9-5.5,13.2-12.9   C305.4,337,299.9,330.9,292.9,330.7z M292.3,348.9c-2.6-0.1-4.6-2.3-4.5-5.1c0.1-2.7,2.3-4.8,4.9-4.7c2.6,0.1,4.6,2.3,4.5,5.1   C297.1,346.8,294.9,349,292.3,348.9z"></path>		<path class="st8" d="M163.4,355.8c0.3,8.9,21,28.6,27.6,32.5c10.3,6.1,38.9-3.9,38.8-4.4c-0.3-1.9-0.3-9.9-1.9-11.1   c-1.3-0.9-24.7-1.3-26.4-2.6c-6.7-4.7-12.9-13.3-15.6-16.2C176.9,344.5,162.9,342,163.4,355.8L163.4,355.8z"></path>		<path class="st10" d="M228.6,382.9l3.4-0.3l-2.1-8.3L227,375v3.2L228.6,382.9z"></path>		<path class="st21" d="M180.6,349.4c6.5,4.5,12.7,15.1,20.8,20.8c1.1,0.8,22.2,1.7,25.3,2.1"></path>		<path class="st21" d="M229.6,384.4c-1.6,0.6-28.3,9-36.6,4.8c-13-6.5-22.9-20.8-25.2-22.9"></path>		<path class="st21" d="M227.5,373.7c-1.9,0.5,0.4,9,1.5,9.8"></path>		<path class="st42" d="M229.6,376c7.5-1.8,9.8,0,11.4,1.5c1.6,1.5,4.5,2.4,3.9,3c-1.6,1.5-4.1-1.5-4.9-0.9   c-0.7,0.7,10.6,7.6,10.7,8.5c0.1,0.9-5.6,1.2-7.4,1c-1.9-0.2-12.6-7.9-12.6-7.9L229.6,376z"></path>		<path class="st47" d="M249.7,388.7c-1.6-0.4-5.7-3-6.7-3.7"></path>		<path class="st47" d="M242,386.4c0.8,0.8,4.2,2.5,5.2,2.7"></path>		<path class="st47" d="M241.6,387.9c1,0.5,2.4,1.2,2.9,1.2"></path>		<path class="st9" d="M330.6,128.2c2.4-0.2,23.8-17.5,30.6-24.9c5.9-6.4,11.4-15,18.7-27.8c8.5-14.9,4.2-32.9-7.8-24.1   c-10.1,7.4-21.9,32-25.7,38.8c-2.4,4.2-17.5,26.8-21,33.9C325.1,124.9,327.9,128.4,330.6,128.2L330.6,128.2z"></path>		<path class="st48" d="M329.7,127.6c-0.3,1.1,0.6,2.9,0.4,4.1c-0.2,1.8-2.3,4.2-2.9,5c-0.6,0.9-1.1,2.2-1.4,2.1   c-0.3-0.1-0.7-0.8-0.7-1.3c0.2-1.8,2.2-3.6,1.5-4.6c-0.4-0.5-5.2,4.7-6.8,9.1c-0.2,0.6-1,0.9-1.5-0.6c-0.8-2.4-0.9-4-0.2-6.5   c0.8-2.8,3.6-6.1,5.4-8.2c0.5-0.6,1.4-1.2,1.9-1.6c0.2-0.1,0.5-0.3,0.8-0.7C326.7,124.1,330.1,126.3,329.7,127.6L329.7,127.6z"></path>		<path class="st20" d="M319.2,142c0,0,0-0.1-0.1-0.3c0-0.1,0-0.2,0-0.4s0-0.3,0-0.5s0-0.4,0.1-0.6c0-0.2,0.1-0.4,0.1-0.7   c0.1-0.2,0.1-0.5,0.2-0.7s0.2-0.5,0.3-0.7c0.2-0.5,0.4-0.9,0.7-1.3c0.2-0.4,0.5-0.8,0.7-1.1s0.4-0.6,0.6-0.7   c0.1-0.1,0.1-0.2,0.2-0.2l0.1-0.1h0.1v0.1c0,0-0.1,0.1-0.2,0.3s-0.3,0.4-0.5,0.8c-0.2,0.3-0.4,0.7-0.6,1.1   c-0.2,0.4-0.4,0.9-0.6,1.3c-0.1,0.2-0.2,0.5-0.3,0.7c-0.1,0.2-0.2,0.5-0.2,0.7c-0.1,0.2-0.1,0.4-0.2,0.6c0,0.2-0.1,0.4-0.1,0.6   c0,0.2,0,0.3,0,0.5c0,0.1,0,0.3,0,0.4c0,0.2,0,0.3,0,0.3c0,0.1,0,0.1-0.1,0.1C319.2,142.1,319.2,142.1,319.2,142L319.2,142z"></path>		<path class="st20" d="M318.3,140.6c0,0,0-0.1,0-0.3s0-0.5,0-0.8s0.1-0.8,0.2-1.2s0.2-0.9,0.3-1.3c0.1-0.4,0.3-0.9,0.5-1.3   c0.2-0.4,0.4-0.8,0.5-1.1c0.2-0.3,0.3-0.5,0.5-0.7c0.1-0.1,0.1-0.1,0.2-0.2l0.1-0.1h0.1v0.1l0,0c0,0,0,0,0,0.1   c0,0-0.1,0.1-0.1,0.2c-0.1,0.1-0.1,0.2-0.2,0.3s-0.1,0.3-0.2,0.4c-0.3,0.6-0.6,1.4-0.9,2.3c-0.1,0.4-0.2,0.9-0.3,1.3   c-0.1,0.4-0.2,0.8-0.2,1.1s-0.1,0.6-0.1,0.8s0,0.3,0,0.3C318.5,140.7,318.4,140.7,318.3,140.6   C318.3,140.7,318.3,140.7,318.3,140.6L318.3,140.6z"></path>		<path class="st20" d="M317.8,137.2c0,0,0-0.1,0-0.2c0-0.1,0-0.3,0.1-0.5c0-0.2,0.1-0.5,0.2-0.7c0.1-0.3,0.2-0.5,0.3-0.8   c0.1-0.3,0.2-0.5,0.4-0.8c0.1-0.2,0.3-0.5,0.4-0.7s0.2-0.3,0.3-0.4c0.1-0.1,0.2-0.2,0.2-0.2h0.1v0.1c0,0,0,0.1-0.1,0.2   c-0.1,0.1-0.2,0.3-0.3,0.4c-0.2,0.4-0.4,0.9-0.7,1.4c-0.2,0.5-0.4,1.1-0.5,1.5c-0.1,0.2-0.1,0.4-0.1,0.5s0,0.2,0,0.2   c0,0.1-0.1,0.1-0.1,0.1C317.8,137.3,317.8,137.3,317.8,137.2L317.8,137.2z"></path>		<path class="st49" d="M328,120.5c-0.4,0.6-1.3,2.4-1.5,2.9"></path>		<path class="st49" d="M329.4,121.1c-0.4,0.6-1.5,2.3-1.8,2.8"></path>		<path class="st49" d="M331.3,122.3c-0.5,0.5-1.8,2.1-2.1,2.5"></path>		<path class="st49" d="M332.2,123.2c-0.6,0.5-2,1.8-2.4,2.2"></path>		<path class="st49" d="M332.9,124.3c-0.6,0.4-2.2,1.6-2.7,1.9"></path>		<path class="st49" d="M333.7,125.9c-0.6,0.4-1.9,1.3-2.7,1.7"></path>		<path class="st49" d="M328,119.8c3.8,0.8,6.4,5.1,6.6,6.1"></path>		<path class="st49" d="M330.2,127.7c-0.4-1.1-2.6-3.6-4.2-3.5"></path>		<path class="st29" d="M321.3,203.2c0.3-0.1,1.8,0,3.8,0.1c3.2,0.2,8.6,0.4,10.3-0.8c1.4-0.9,2.1-4.4,2.1-4.4s4.8,1.6,5.9,3.1   c-1,1.8-0.6,5-0.7,7.1c0.1,1.3-0.4,1.8-1.1,1.7c-4.7-1-15.6-3.2-20.7-4.3C320.1,205.6,320.3,203.7,321.3,203.2L321.3,203.2z"></path>		<path class="st29" d="M397.1,226.9c2.8-1.6,7.3-4.5,8.1-6.4c0.7-1.6-0.8-4.8-0.8-4.8s4.8-1.4,6.6-0.8c0.1,2,2.4,4.5,3.4,6.2   c0.8,1,0.7,1.8,0.1,2c-4.4,1.8-14.7,6.2-19.5,8.2c-0.6,0.2-1.5-1.4-1-2.4C394.1,228.7,395.4,227.9,397.1,226.9L397.1,226.9z"></path>		<path class="st22" d="M337.4,198.1c-0.1,1,6.4,3.5,6.8,3c0.5-0.9,11.8-20.6,18.1-35.6c2.8-6.6,3.3-15.4,3.7-16   c4.8-5.9,37.3-8.6,44.9-17.3c1.2-1.4,8.5-26.9,9-32.5c-10.7-3.8-21.6-7.1-21.6-7.1c-1.5,5.3-0.6,5.2-3,11.5   c-0.8,2.1-46.5,20.1-49.1,25.8C339.7,144.6,339.4,181.1,337.4,198.1z"></path>		<path class="st22" d="M410.9,214.9c0,0.7-6.3,1.4-6.6,0.8c-6-11-30.5-48.4-31-55.2c-0.9-13.1,32.9-48.6,33.3-49.5   c0,0,27.8-2.4,30.1,1.2c-0.4,0.7,3.1,15.1,0.1,22.4c-5.7,13.8-41,24.5-40.8,27.1c0.1,0.8,7.1,10,9.3,16   C410.6,191.8,411.2,209.9,410.9,214.9L410.9,214.9z"></path>		<path class="st50" d="M380.3,143.8c3.7-5.4,15-15.7,19-19"></path>		<path class="st9" d="M386.1,110.3c5.3,5.3,42.2,12.5,50.7,4c1.3-1.3-10.7-52.2-20.4-61.8c-8.8-8.8-22.8-11.8-26.3-10.9   c-1.5,0.4-2.9,0.5-4.2,0.9c-4.6,1.4-8.6,4.1-11.8,7.1c-4.2,4-9.9,9.4-10.2,12.8c-0.1,1.4,19.5,35,20.8,39.5   C385.7,105.7,384.5,108.8,386.1,110.3z"></path>		<path class="st49" d="M375.2,83.6c-0.9-1.6-3.4-5.4-4.4-8"></path>		<path class="st51" d="M380.4,59.4c0.9,0.2,1.8,0.1,8.2-7.9c4.5-5.7,4-8.4,3-10.1c-1.7,0.2-3.3,0.5-4.7,1c-5.2,1.6-9.6,4-13.3,7.5   C374.5,54.2,379.6,59.3,380.4,59.4z"></path>		<path class="st48" d="M388.9,42c2.2,1.7-5.1,12.6-8.4,13.9c-1,0.4-4.7-5.6-4.7-6.8c0-0.4-0.2-1.5-0.2-1.9   c-0.4-4.5-2.3-9.7-2.3-9.7l0,0l8-10.8C381.3,26.7,385.4,39.3,388.9,42L388.9,42z"></path>		<path class="st48" d="M382,32.1c-0.9,4.6-4.7,9.6-10.2,9.8c-9.6,0.4-9.5-11.7-9.9-14.7c-0.6-4.6-1.7-8.2-0.4-9.6   c0.9-0.9,8.2-4.1,9.7-4.3c1.8-0.3,8.4,2.9,9.5,4C381.6,18.1,383,27.1,382,32.1L382,32.1z"></path>		<path class="st48" d="M384.8,23.2c1.9,1.2-0.8,8.6-3.2,5.7C379.3,25.9,382.5,21.7,384.8,23.2z"></path>		<path class="st25" d="M382.2,26.6c0-1.4,1.9-2.6,2.3-2.6"></path>		<path class="st25" d="M383.9,26.3c-0.3-0.5-1-0.7-1.4-0.6"></path>		<path class="st29" d="M383.9,16c-0.5-0.9-1.7-0.7-2.2-1.7c-0.4-0.7,0.4-1.7,0.1-2.4c-0.5-0.9-2-0.9-2.3-1.1   c-0.4-0.3-0.8-1.9-1.6-2.2c-1.3-0.5-3.3,0.6-3.7,0.5c-0.6-0.2-2.1-2-3.6-1.7c-1.8,0.4-2.6,2.1-3,2.3c-0.6,0.2-2.1-0.1-2.7,0.2   c-1.4,0.5-1.7,2.6-2.1,3c-1,1-2.7,1-3.6,2c-1.1,1.3,1.6,4.5,1.7,5.4c0,0.7-0.9,0.6-1,1.8c-0.2,1.5,1.7,2.9,2.1,5.3   c-0.1-1,0-3.6,0.1-6.5c0.5,0.7,2,1.2,3.4,1c2.9-0.5,6.8-3.1,10.3-5c0.7,0.6,0.1,1.7,0.6,1.9c0.4,0.2,1-0.5,1.7-0.1   c0.3,0.2-0.1,1.1,0.2,1.4c0.1,0.1,0.5,0.2,0.7,0.3c0.1,0.1,0.2,0.1,0.3,0.2c0.2,0.7-0.6,2.2,0,2.6c0.3,0.2,0.9-0.1,1.2,0   c0.5,0.3,0.1,2.7,0.5,2.9c0.5,0.2,0.8-1.9,1.6-2.6c0.7-0.5,1.6-0.5,2-1.4c0.5-1.1-1-2.4-1.4-3C382.8,18,384.4,17,383.9,16z"></path>		<path class="st25" d="M374.5,41.4c2.6-1.4,6.6-4.2,7.1-10.1"></path>		<path class="st20" d="M316.1,189.2l9.7-10c3.2-3.3,8.3-3.3,11.6-0.2l0,0c3.3,3.2,8.4,3.1,11.6-0.2l18.7-19.3   c5.3-5.5,5.3-14.3-0.2-19.6l-72.2-70.1c-5.5-5.3-14.4-5.2-19.7,0.3l-70.1,72.2c-5.3,5.5-5.1,14.3,0.4,19.6l19.3,18.7   c3.3,3.2,3.3,8.4,0.2,11.6l0,0c-3.2,3.3-3.1,8.5,0.2,11.6l10,9.7c3.3,3.2,8.5,3.1,11.6-0.2l0,0c3.2-3.3,8.4-3.4,11.6-0.2   l19.3,18.7c5.5,5.3,14.2,5.2,19.5-0.3l18.7-19.3c3.2-3.3,3.1-8.4-0.2-11.6l0,0C313,197.6,312.9,192.4,316.1,189.2L316.1,189.2z"></path>		<path class="st8" d="M286,148.9c-5.2-5-6.6-12.9-4.5-21.2c0.2-0.6,0.9-0.9,1.5-0.6l31.1,21.3c0.6,0.4,0.5,1.3-0.1,1.6   C303.6,155.4,292.6,155.3,286,148.9L286,148.9z"></path>		<path class="st10" d="M290.8,107.9L327,143c-8.3,8.6-18.7,13.2-27.8,13.2c-3.3,0-6.5-0.6-9.3-1.9c-0.1-0.1-0.3-0.1-0.4-0.1   c-0.7,0-1.3,0.8-0.9,1.5c5,10.4,1,26-10.4,37.7L242,158.3c8.4-8.6,19-13.3,28.2-13.3c3.3,0,6.4,0.6,9.1,1.8   c0.1,0.1,0.3,0.1,0.4,0.1c0.7,0,1.3-0.8,0.9-1.5C275.6,134.9,279.4,119.5,290.8,107.9 M290.8,105.6c-0.6,0-1.2,0.2-1.6,0.7   c-10.9,11.2-15.4,26.1-11.6,37.4c-2.3-0.7-4.8-1-7.4-1c-10.2,0-21.3,5.2-29.9,14c-0.9,0.9-0.8,2.3,0.1,3.2l36.2,35.1   c0.4,0.4,1,0.6,1.6,0.6l0,0c0.6,0,1.2-0.3,1.6-0.7c11-11.3,15.6-26.3,11.9-37.6c2.4,0.7,4.9,1.1,7.6,1.1c10,0,21-5.2,29.5-13.8   c0.4-0.4,0.6-1,0.6-1.6s-0.3-1.2-0.7-1.6l-36.2-35.1C291.9,105.8,291.4,105.6,290.8,105.6L290.8,105.6z"></path>		<path class="st8" d="M278.9,189.7c2.5-2.9,4.5-6,6.1-9.1c0.2-0.3,0.2-0.8,0.1-1.1l-5.8-22.1c-0.2-0.7-0.8-1.2-1.5-1.2l-28.7-1.3   c-0.4,0-0.8,0.1-1.1,0.3c-0.9,0.7-1.7,1.4-2.5,2.2c-0.4,0.3-0.4,0.9,0,1.3l32.1,31.1C277.9,190.1,278.5,190.1,278.9,189.7   L278.9,189.7z"></path>		<path class="st8" d="M284.7,147.4c1.4,1.8-6,8.7-8.1,8.6c-3.4-0.1,1.1,5.8,1.1,5.8s3.2,1.4,1.9-3.4c-0.3-1.1,6.7-9.1,7.8-8.3   c3.9,2.7,2.5-6.2,2.5-6.2L284.7,147.4L284.7,147.4z"></path>		<path class="st10" d="M324.9,146.1l-37.2-36c-0.7-0.7-0.7-1.8,0-2.5l2.6-2.7c0.7-0.7,1.8-0.7,2.5,0l37.2,36c0.7,0.7,0.7,1.8,0,2.5   l-2.6,2.7C326.7,146.7,325.6,146.8,324.9,146.1z"></path>		<path class="st10" d="M279,193.4l-37.2-36c-0.7-0.7-1.8-0.7-2.5,0l-2.6,2.7c-0.7,0.7-0.7,1.8,0,2.5l37.2,36c0.7,0.7,1.8,0.7,2.5,0   l2.6-2.7C279.7,195.2,279.7,194.1,279,193.4z"></path>		<path class="st9" d="M402.3,110.6c-3.8,11.9-31.1,23.6-33.6,22.6c-1-0.4-3.6-3.1-3.9-4.2c-0.5-2.6,22.3-32.6,25-35.3   C392.6,90.7,404.9,102.4,402.3,110.6z"></path>		<path class="st48" d="M365.4,129.1c-1,0.6-3,0-4.1,0.3c-1.7,0.5-3.8,3-4.5,3.7c-0.8,0.8-2,1.5-1.8,1.7c0.2,0.3,0.9,0.6,1.4,0.5   c1.8-0.5,2.1-2.5,2.8-1.7c0.3,0.3-5.2,5.3-6.8,7.5c-0.2,0.3-0.1,1.4,0.6,1.5c0.2,0,4.7-4.2,5.1-3.9s-4.1,3.8-4,4.8   c0.1,0.9,4.3,1.1,4.8,0.9c2.2-0.7,7.6-6.8,8.7-8.8c0.4-0.7,0.7-2.1,1-2.7c0.1-0.2,0.1-0.4,0.4-0.7   C369.3,131.7,366,128.7,365.4,129.1L365.4,129.1z"></path>		<path class="st20" d="M355.1,144c0,0,0.1-0.1,0.2-0.2c0.1-0.1,0.3-0.3,0.5-0.5c0.4-0.4,1-0.9,1.5-1.4c0.3-0.3,0.6-0.5,0.8-0.8   c0.3-0.2,0.5-0.5,0.7-0.6c0.4-0.4,0.7-0.6,0.7-0.6h0.1v0.1c0,0-0.2,0.3-0.6,0.7s-0.9,0.9-1.5,1.5c-0.3,0.3-0.6,0.5-0.8,0.7   c-0.3,0.2-0.5,0.4-0.7,0.6c-0.2,0.2-0.4,0.3-0.6,0.4c-0.1,0.1-0.2,0.1-0.2,0.1H355.1C355.1,144.1,355.1,144.1,355.1,144L355.1,144   z"></path>		<path class="st20" d="M357.4,144.3c0,0,0.1,0,0.2-0.1s0.3-0.2,0.4-0.4c0.2-0.2,0.4-0.3,0.6-0.5s0.5-0.4,0.7-0.6   c0.2-0.2,0.5-0.4,0.7-0.6c0.2-0.2,0.4-0.4,0.6-0.6c0.2-0.2,0.3-0.3,0.4-0.4c0.1-0.1,0.1-0.2,0.1-0.2l0,0c0,0,0.1-0.1,0.1,0v0.1   c0,0,0,0,0,0.1l-0.1,0.1c-0.1,0.1-0.2,0.3-0.4,0.5c-0.3,0.4-0.7,0.8-1.2,1.3c-0.5,0.4-1,0.8-1.3,1.1c-0.2,0.1-0.4,0.2-0.5,0.3   s-0.2,0.1-0.2,0.1h-0.1C357.3,144.4,357.3,144.4,357.4,144.3L357.4,144.3z"></path>		<path class="st49" d="M372.8,130.9c-0.6,0.4-2.3,1.5-2.8,1.7"></path>		<path class="st49" d="M372.1,129.5c-0.6,0.5-2.2,1.7-2.7,2"></path>		<path class="st49" d="M370.8,127.7c-0.5,0.5-2,1.9-2.4,2.3"></path>		<path class="st49" d="M369.8,126.8c-0.4,0.6-1.7,2.1-2.1,2.6"></path>		<path class="st49" d="M368.7,126.2c-0.3,0.6-1.4,2.3-1.8,2.8"></path>		<path class="st49" d="M367,125.5c-0.3,0.6-1.2,2-1.6,2.8"></path>		<path class="st49" d="M373.5,130.8c-1.1-3.8-5.6-6.1-6.5-6.2"></path>		<path class="st49" d="M365.4,129.1c1.2,0.3,3.8,2.4,3.7,4"></path>		<path class="st49" d="M419.8,69.3c-1.3,8.7-4.6,24.7-11.1,35.1c-3.8,6-7.4,9.5-9.4,11.4"></path>		<path class="st49" d="M396.4,70.7c0.1,2.7-3.1,14.8-5.7,19.5c-1.6,2.8-4.6,8.5-6.5,10.5"></path>	</g>	<rect x="516.8" y="357.1" class="st52" width="138.5" height="78"></rect></g><g id="Logo_1">	<path class="st10" d="M221.1,286.6h118.5c1,0,1.9,0.8,1.9,1.9v29.9c0,1-0.8,1.9-1.9,1.9H221.1c-1,0-1.9-0.8-1.9-1.9v-29.9  C219.2,287.4,220.1,286.6,221.1,286.6z"></path>	<g>		<g>			<path d="M275.9,300.7c-0.9-2.7-3.4-4.2-6.2-3.8c-1.9,0.3-3.3,1.4-4.1,3.2c-0.8,1.7-0.8,3.4-0.3,5.1c0.7,2.5,2.8,4.1,5.3,4.1    c0.1,0,0.3,0,0.4,0s0.2,0,0.3,0c1.8-0.2,3.2-1.1,4.1-2.7C276.4,304.7,276.5,302.8,275.9,300.7z M273.4,305.9    c-0.7,1.1-1.6,1.6-2.9,1.6s-2.3-0.7-2.9-1.8c-0.3-0.6-0.5-1.3-0.5-2c-0.1-1,0-1.9,0.4-2.8c0.5-1.1,1.3-1.8,2.5-2    c1.5-0.2,2.8,0.4,3.5,1.8c0.4,0.8,0.6,1.6,0.6,2.7C274.1,304.1,273.9,305,273.4,305.9z"></path>			<path d="M317.5,309.1c-1.5-4-3-7.9-4.5-11.9c0-0.1-0.1-0.1-0.2-0.1c-0.7,0-1.4,0-2.1,0c-0.1,0-0.2,0-0.3,0.2    c-1.4,3.8-2.8,7.5-4.3,11.3c-0.1,0.2-0.2,0.4-0.2,0.7h0.1c0.6,0,1.2,0,1.8,0c0.1,0,0.2,0,0.2-0.1c0.3-0.8,0.6-1.7,0.9-2.5    c0-0.1,0.1-0.2,0.2-0.2c1.6,0,3.3,0,4.9,0c0.1,0,0.2,0,0.2,0.1c0.3,0.8,0.6,1.7,0.9,2.5c0,0.1,0.1,0.1,0.2,0.1c0.6,0,1.3,0,1.9,0    C317.4,309.2,317.4,309.2,317.5,309.1L317.5,309.1z M309.7,304.5c0.6-1.7,1.3-3.4,1.9-5.1c0.6,1.7,1.3,3.4,1.9,5.1H309.7z"></path>			<path d="M285.7,302.4c-0.7-1.7-2.3-2.4-4.1-2.1c-0.7,0.1-1.3,0.5-1.9,1.1c0-0.3,0-0.6,0-0.8c0-0.1,0-0.1-0.1-0.1    c-0.6,0-1.2,0-1.7,0c-0.1,0-0.1,0-0.1,0.1c0,3.9,0,7.7,0,11.6c0,0.1,0,0.1,0.1,0.1c0.6,0,1.2,0,1.7,0c0.1,0,0.2,0,0.2-0.2    c0-1.2,0-2.4,0-3.6v-0.2c0.1,0.1,0.3,0.2,0.4,0.4c0.1,0.1,0.3,0.2,0.4,0.3c1.3,0.8,3.7,0.7,4.9-1.3    C286.5,305.9,286.5,304.1,285.7,302.4z M283.9,306.2c-0.3,0.9-1.1,1.5-2.1,1.4s-1.7-0.7-2-1.6c0-0.2-0.1-0.3-0.1-0.5s0-0.5,0-0.7    c0-0.5,0-1,0.2-1.4c0.3-0.9,1-1.4,2-1.4s1.7,0.5,2.1,1.4C284.3,304.3,284.3,305.2,283.9,306.2z"></path>			<path d="M289.6,305.2h2.9c1,0,2,0,3,0c0.1,0,0.1,0,0.1-0.1c0-0.6,0-1.2-0.1-1.8c-0.2-0.9-0.6-1.8-1.4-2.4    c-0.8-0.7-1.8-0.9-2.9-0.8c-1.4,0.1-2.5,0.8-3.2,2.1c-0.7,1.3-0.8,2.7-0.4,4c0.3,1.1,0.9,2,1.9,2.5c0.9,0.5,1.8,0.6,2.8,0.5    c1.5-0.2,2.5-1,3.1-2.3c0-0.1,0-0.1-0.1-0.2c-0.5-0.2-1-0.4-1.5-0.6c-0.1,0-0.1,0-0.1,0.1c-0.1,0.2-0.2,0.4-0.3,0.5    c-0.7,0.9-2.1,1-3.1,0.4c-0.6-0.4-0.9-1.1-1-1.8C289.3,305.2,289.3,305.2,289.6,305.2z M289.5,303.5c0.3-0.8,0.7-1.4,1.6-1.6    c0.7-0.1,1.3-0.1,1.9,0.4c0.4,0.3,0.5,0.8,0.6,1.3c0,0.1-0.1,0.1-0.1,0.1c-0.6,0-1.3,0-1.9,0s-1.3,0-1.9,0    C289.5,303.7,289.5,303.7,289.5,303.5z"></path>			<path d="M304.5,309c0,0.1,0,0.2-0.2,0.2c-0.6,0-1.1,0-1.7,0c-0.1,0-0.2,0-0.2-0.2c0-1.7,0-3.3,0-5c0-0.3,0-0.6-0.1-0.9    c-0.2-0.7-0.8-1.1-1.5-1.1c-1,0.1-1.8,0.8-1.8,1.9c0,1.7,0,3.3,0,5c0,0.2,0,0.2-0.2,0.2c-0.6,0-1.1,0-1.7,0c-0.1,0-0.1,0-0.1-0.1    c0-2.9,0-5.7,0-8.6c0-0.1,0-0.2,0.2-0.2c0.6,0,1.2,0,1.7,0c0.1,0,0.1,0,0.1,0.1c0,0.3,0,0.5,0,0.8c0.3-0.3,0.6-0.6,0.9-0.7    c1-0.5,1.9-0.5,2.9-0.1c0.9,0.4,1.3,1.2,1.5,2.1c0.1,0.3,0.1,0.6,0.1,0.9C304.5,305.3,304.5,307.2,304.5,309z"></path>			<path d="M321,309.1c0,0.1,0,0.1-0.1,0.1c-0.6,0-1.3,0-1.9,0c-0.1,0-0.1,0-0.1-0.2c0-2,0-3.9,0-5.9s0-3.9,0-5.9    c0-0.1,0-0.2,0.2-0.2c0.6,0,1.3,0,1.9,0c0.1,0,0.1,0,0.1,0.1C321,301.2,321,305.1,321,309.1z"></path>		</g>		<path class="st53" d="M260.9,301.3c0.5-1.6,0.3-3.3-0.5-4.7c-1.3-2.2-3.8-3.3-6.2-2.8c-2.1-2.4-5.8-2.6-8.2-0.4   c-0.8,0.7-1.3,1.5-1.6,2.5c-1.6,0.3-3,1.3-3.8,2.8c-1.3,2.2-1,4.9,0.7,6.8c-0.5,1.6-0.3,3.3,0.5,4.7c1.3,2.2,3.8,3.3,6.2,2.8   c1.1,1.2,2.7,1.9,4.3,1.9c2.5,0,4.7-1.6,5.5-4c1.6-0.3,3-1.3,3.8-2.8C262.9,305.9,262.6,303.2,260.9,301.3L260.9,301.3z    M252.3,313.4c-1,0-2-0.4-2.7-1l0.1-0.1l4.6-2.6c0.2-0.1,0.4-0.4,0.4-0.7v-6.4l1.9,1.1l0,0v5.3   C256.6,311.5,254.7,313.4,252.3,313.4z M243.1,309.4c-0.5-0.9-0.7-1.9-0.5-2.9l0.1,0.1l4.6,2.6c0.2,0.1,0.5,0.1,0.7,0l5.6-3.2v2.2   c0,0,0,0,0,0.1L249,311C246.9,312.2,244.3,311.5,243.1,309.4L243.1,309.4z M241.9,299.5c0.5-0.9,1.3-1.5,2.3-1.9v5.4   c0,0.3,0.1,0.5,0.4,0.6l5.6,3.2l-1.9,1.1c0,0,0,0-0.1,0l-4.6-2.7C241.4,304.1,240.7,301.5,241.9,299.5L241.9,299.5z M257.7,303.2   l-5.6-3.2l1.9-1.1c0,0,0,0,0.1,0l4.6,2.7c2.1,1.2,2.8,3.8,1.6,5.9c-0.5,0.9-1.3,1.5-2.2,1.9V304   C258.1,303.5,258,303.3,257.7,303.2L257.7,303.2z M259.7,300.3l-0.1-0.1l-4.6-2.7c-0.2-0.1-0.5-0.1-0.8,0l-5.6,3.2v-2.2   c0,0,0,0,0-0.1l4.6-2.7c2.1-1.2,4.7-0.5,5.9,1.6C259.6,298.3,259.8,299.3,259.7,300.3L259.7,300.3z M247.6,304.2l-1.9-1.1   c0,0,0,0,0-0.1v-5.3c0-2.4,1.9-4.3,4.3-4.3c1,0,2,0.4,2.7,1l-0.1,0.1l-4.6,2.6c-0.2,0.1-0.4,0.4-0.4,0.7V304.2z M248.6,302   l2.5-1.4l2.5,1.4v2.9l-2.5,1.4l-2.5-1.4V302z"></path>	</g></g><g id="Logo_2">	<path class="st10" d="M286,429.4h118.5c1,0,1.9,0.8,1.9,1.9v29.9c0,1-0.8,1.9-1.9,1.9H286c-1,0-1.9-0.8-1.9-1.9v-29.9  C284.1,430.3,285,429.4,286,429.4z"></path>	<g>		<g>			<g>				<defs>					<rect id="SVGID_1_" x="296.6" y="435" width="97.3" height="22.5"></rect>				</defs>				<clipPath id="SVGID_00000021833561826496165350000004821930922063678874_">					<use xlink:href="#SVGID_1_" style="overflow:visible;"></use>				</clipPath>				<g style="clip-path:url(#SVGID_00000021833561826496165350000004821930922063678874_);">											<linearGradient id="SVGID_00000160148284288882535630000007742234782724111545_" gradientUnits="userSpaceOnUse" x1="303.5723" y1="-423.4942" x2="318.6183" y2="-407.1302" gradientTransform="matrix(1 0 0 -1 0 32)">						<stop offset="0" style="stop-color:#FF61D3"></stop>						<stop offset="0.5" style="stop-color:#B318FF"></stop>						<stop offset="1" style="stop-color:#00F0FF"></stop>					</linearGradient>					<path style="fill:url(#SVGID_00000160148284288882535630000007742234782724111545_);" d="M323.4,445.9l-1.1-0.6      c-0.5-2.3-1.6-4.4-3.2-6c-0.9-0.9-1.9-1.7-3.1-2.3v-0.7c0-0.4-0.7-0.7-1.8-0.9c-1-0.2-2.4-0.3-4-0.3c-0.5,0-1.1,0-1.6,0      c-2.4,0.1-4.2,0.6-4.2,1.2v0.7c-0.8,0.4-1.5,0.9-2.2,1.5c-2.1,1.7-3.5,4.2-4.1,6.9L297,446c-0.5,0.3-0.8,0.8-0.7,1.4l1,5.5      c0.1,0.6,0.6,1,1.1,1.1l1.6,0.2c0.9,1,2,1.7,3.3,2.3c1.7,0.7,3.8,1.1,6,1.2c0.2,0,0.4,0,0.7,0c1.7,0,3.3-0.2,4.8-0.6      c1.9-0.5,3.6-1.3,4.9-2.5c0.1-0.1,0.3-0.3,0.4-0.4l1.5-0.1c0.6-0.1,1-0.5,1.1-1.1l1-5.5C324.2,446.7,323.9,446.2,323.4,445.9z"></path>					<path class="st4" d="M310.4,454.5c-2.9,0-5.3-0.6-6.9-1.8c-1.6-1.1-2.3-2.7-2.3-4.9c0-5.1,4.2-9.3,9.3-9.3      c5.1,0,9.3,4.2,9.3,9.3c0,2.2-0.8,3.8-2.3,4.9C315.7,453.9,313.3,454.5,310.4,454.5z"></path>					<path class="st56" d="M310.4,452.4c-1.8,0-3.5-1.1-4.3-2.7l1.5-0.7c0.5,1.1,1.6,1.8,2.8,1.8s2.3-0.7,2.8-1.8l1.5,0.7      C313.9,451.3,312.2,452.4,310.4,452.4z"></path>					<path class="st56" d="M335.2,452.6c-0.8,0-1.6-0.2-2.3-0.5c-0.7-0.3-1.3-0.8-1.7-1.4l1.4-1.7c0.7,1,1.6,1.5,2.6,1.5      c1.4,0,2.1-0.8,2.1-2.4v-6.8v-2.1h2.4v8.7c0,1.5-0.4,2.7-1.1,3.5C337.7,452.3,336.6,452.6,335.2,452.6z"></path>					<path class="st56" d="M346,442.3c1.5,0,2.6,0.4,3.4,1.1s1.2,1.8,1.2,3.2v5.9h-2.2v-1.2c-0.3,0.4-0.7,0.8-1.2,1      s-1.2,0.3-1.9,0.3c-0.8,0-1.4-0.1-2-0.4s-1-0.6-1.3-1.1s-0.5-1-0.5-1.6c0-0.9,0.3-1.6,1-2.2s1.7-0.8,3.2-0.8h2.6v-0.1      c0-0.7-0.2-1.2-0.6-1.6s-1-0.6-1.9-0.6c-0.6,0-1.1,0.1-1.7,0.3c-0.5,0.2-1,0.4-1.4,0.7l-0.9-1.7c0.5-0.4,1.2-0.7,1.9-0.9      C344.4,442.4,345.1,442.3,346,442.3z M345.6,450.9c0.6,0,1.1-0.1,1.6-0.4s0.8-0.7,1-1.2v-1.2h-2.4c-1.4,0-2,0.4-2,1.3      c0,0.4,0.2,0.8,0.5,1C344.6,450.7,345,450.9,345.6,450.9z"></path>					<path class="st56" d="M356.7,452.6c-0.8,0-1.6-0.1-2.4-0.3c-0.8-0.2-1.4-0.5-1.9-0.8l0.9-1.8c0.5,0.3,1,0.5,1.6,0.7      s1.3,0.3,1.9,0.3c1.4,0,2.1-0.4,2.1-1.1c0-0.4-0.2-0.6-0.5-0.7c-0.4-0.1-0.9-0.3-1.7-0.4c-0.8-0.1-1.5-0.3-2-0.4      c-0.5-0.2-1-0.4-1.4-0.8s-0.6-1-0.6-1.7c0-1,0.4-1.7,1.2-2.3c0.8-0.6,1.9-0.9,3.2-0.9c0.7,0,1.4,0.1,2.1,0.2      c0.7,0.2,1.3,0.4,1.7,0.6L360,445c-0.9-0.5-1.8-0.8-2.9-0.8c-0.7,0-1.2,0.1-1.6,0.3c-0.4,0.2-0.5,0.5-0.5,0.8      c0,0.4,0.2,0.6,0.6,0.8c0.4,0.2,1,0.3,1.8,0.4s1.5,0.3,2,0.4c0.5,0.2,1,0.4,1.3,0.8c0.4,0.4,0.6,0.9,0.6,1.7      c0,0.9-0.4,1.7-1.2,2.3C359.2,452.3,358.1,452.6,356.7,452.6z"></path>					<path class="st56" d="M368.8,442.3c1,0,1.9,0.2,2.6,0.6c0.8,0.4,1.4,1,1.8,1.8s0.7,1.7,0.7,2.7s-0.2,1.9-0.7,2.7      c-0.4,0.8-1,1.4-1.8,1.8s-1.6,0.6-2.6,0.6c-1.4,0-2.4-0.5-3.2-1.4v4.9h-2.4v-13.7h2.2v1.3c0.4-0.5,0.9-0.8,1.4-1.1      C367.5,442.4,368.1,442.3,368.8,442.3z M368.6,450.6c0.9,0,1.6-0.3,2.1-0.9c0.6-0.6,0.8-1.3,0.8-2.3s-0.3-1.7-0.8-2.3      c-0.6-0.6-1.3-0.9-2.1-0.9c-0.6,0-1.1,0.1-1.5,0.4c-0.5,0.3-0.8,0.6-1.1,1.1c-0.3,0.5-0.4,1-0.4,1.7s0.1,1.2,0.4,1.7      s0.6,0.8,1.1,1.1C367.5,450.4,368,450.6,368.6,450.6z"></path>					<path class="st56" d="M385.6,447.5c0,0.2,0,0.4,0,0.7h-7.9c0.1,0.7,0.5,1.3,1.1,1.8c0.6,0.4,1.3,0.6,2.2,0.6      c1.1,0,2-0.4,2.7-1.1l1.3,1.5c-0.5,0.5-1,0.9-1.7,1.2c-0.7,0.3-1.5,0.4-2.3,0.4c-1.1,0-2.1-0.2-2.9-0.7c-0.8-0.4-1.5-1-2-1.8      s-0.7-1.7-0.7-2.7s0.2-1.9,0.7-2.6c0.5-0.8,1.1-1.4,1.9-1.8s1.7-0.7,2.7-0.7s1.9,0.2,2.6,0.7c0.8,0.4,1.4,1,1.8,1.8      C385.4,445.5,385.6,446.4,385.6,447.5z M380.5,444.2c-0.8,0-1.4,0.2-1.9,0.7c-0.5,0.4-0.8,1-0.9,1.8h5.7      c-0.1-0.7-0.4-1.3-0.9-1.8C381.9,444.4,381.3,444.2,380.5,444.2z"></path>					<path class="st56" d="M390.1,443.9c0.7-1.1,1.9-1.6,3.6-1.6v2.2c-0.2,0-0.4-0.1-0.5-0.1c-0.9,0-1.6,0.3-2.1,0.8      s-0.8,1.3-0.8,2.3v4.9h-2.4v-10.1h2.2L390.1,443.9L390.1,443.9z"></path>				</g>			</g>		</g>	</g></g><g id="Logo_3">	<path class="st10" d="M527.4,380.1H646c1,0,1.9,0.8,1.9,1.9v30c0,1-0.8,1.9-1.9,1.9H527.4c-1,0-1.9-0.8-1.9-1.9v-30  C525.6,381,526.4,380.1,527.4,380.1z"></path>	<g>					<radialGradient id="SVGID_00000152965436445034015400000007033403982243347351_" cx="-417.138" cy="819.0762" r="9.524839e-02" gradientTransform="matrix(-55.2592 -67.5039 -63.4753 51.9613 29498.166 -70323.4922)" gradientUnits="userSpaceOnUse">			<stop offset="9.600000e-02" style="stop-color:#00AEFF"></stop>			<stop offset="0.773" style="stop-color:#2253CE"></stop>			<stop offset="1" style="stop-color:#0736C4"></stop>		</radialGradient>		<path style="fill:url(#SVGID_00000152965436445034015400000007033403982243347351_);" d="M556,388.9c-0.1-0.5-0.4-0.9-0.8-1.2   c-0.4-0.3-0.9-0.4-1.3-0.4h-0.6c-0.5,0-1,0.2-1.4,0.5s-0.7,0.8-0.8,1.3l-1.1,6.1l0.3-0.9c0.1-0.5,0.4-0.9,0.8-1.2   c0.4-0.3,0.9-0.4,1.3-0.4h3.8l1.6,0.6l1.5-0.6h-0.4c-0.5,0-0.9-0.2-1.3-0.4c-0.4-0.3-0.7-0.7-0.8-1.2L556,388.9z"></path>					<radialGradient id="SVGID_00000106126785887129873780000014663972364600215210_" cx="-385.2089" cy="818.8847" r="9.524839e-02" gradientTransform="matrix(49.8133 63.3924 61.4923 -48.3202 -30621.7031 64389.1211)" gradientUnits="userSpaceOnUse">			<stop offset="0" style="stop-color:#FFB657"></stop>			<stop offset="0.634" style="stop-color:#FF5F3D"></stop>			<stop offset="0.923" style="stop-color:#C02B3C"></stop>		</radialGradient>		<path style="fill:url(#SVGID_00000106126785887129873780000014663972364600215210_);" d="M546.4,404.9c0.1,0.5,0.4,0.9,0.8,1.2   c0.4,0.3,0.9,0.4,1.3,0.4h1.4c0.6,0,1.1-0.2,1.6-0.6c0.4-0.4,0.7-1,0.7-1.5l0.1-5.8l-0.3,1.1c-0.1,0.5-0.4,0.9-0.8,1.2   c-0.4,0.3-0.9,0.4-1.3,0.4h-3.8l-1.4-0.7l-1.5,0.7h0.4c0.5,0,1,0.2,1.3,0.4c0.4,0.3,0.7,0.7,0.8,1.2L546.4,404.9L546.4,404.9z"></path>					<linearGradient id="SVGID_00000096039666741423377040000007888375597326853510_" gradientUnits="userSpaceOnUse" x1="546.7526" y1="-356.8718" x2="547.8513" y2="-369.5854" gradientTransform="matrix(1 0 0 -1 0 32)">			<stop offset="0.156" style="stop-color:#0D91E1"></stop>			<stop offset="0.487" style="stop-color:#52B471"></stop>			<stop offset="0.652" style="stop-color:#98BD42"></stop>			<stop offset="0.937" style="stop-color:#FFC800"></stop>		</linearGradient>		<path style="fill:url(#SVGID_00000096039666741423377040000007888375597326853510_);" d="M553.7,387.3H546c-2.2,0-3.5,2.9-4.4,5.8   c-1,3.4-2.4,8.1,1.5,8.1h3.3c0.5,0,1-0.2,1.3-0.4c0.4-0.3,0.7-0.7,0.8-1.2c0.8-2.7,1.6-5.5,2.4-8.2c0.4-1.4,0.7-2.5,1.3-3.3   C552.6,387.6,553,387.3,553.7,387.3z"></path>					<linearGradient id="SVGID_00000173839661222829421030000001169706227224768153_" gradientUnits="userSpaceOnUse" x1="546.8627" y1="-355.2792" x2="547.463" y2="-369.1488" gradientTransform="matrix(1 0 0 -1 0 32)">			<stop offset="0" style="stop-color:#3DCBFF"></stop>			<stop offset="0.247" style="stop-color:#0588F7;stop-opacity:0"></stop>		</linearGradient>		<path style="fill:url(#SVGID_00000173839661222829421030000001169706227224768153_);" d="M553.7,387.3H546c-2.2,0-3.5,2.9-4.4,5.8   c-1,3.4-2.4,8.1,1.5,8.1h3.3c0.5,0,1-0.2,1.3-0.4c0.4-0.3,0.7-0.7,0.8-1.2c0.8-2.7,1.6-5.5,2.4-8.2c0.4-1.4,0.7-2.5,1.3-3.3   C552.6,387.6,553,387.3,553.7,387.3z"></path>					<radialGradient id="SVGID_00000061467854386664693730000012812393034392401810_" cx="-397.8445" cy="822.6541" r="9.524839e-02" gradientTransform="matrix(-63.8835 182.6885 218.855 76.5305 -204898.2656 10114.7695)" gradientUnits="userSpaceOnUse">			<stop offset="6.600000e-02" style="stop-color:#8C48FF"></stop>			<stop offset="0.5" style="stop-color:#F2598A"></stop>			<stop offset="0.896" style="stop-color:#FFB152"></stop>		</radialGradient>		<path style="fill:url(#SVGID_00000061467854386664693730000012812393034392401810_);" d="M548.4,406.5h7.7c2.2,0,3.5-2.9,4.4-5.8   c1-3.4,2.4-8.1-1.5-8.1h-3.3c-0.5,0-1,0.2-1.3,0.4s-0.7,0.7-0.8,1.2c-0.8,2.8-1.6,5.5-2.4,8.2c-0.4,1.4-0.7,2.5-1.3,3.3   C549.6,406.2,549.1,406.5,548.4,406.5z"></path>					<linearGradient id="SVGID_00000047049268006327378630000002708732063454626702_" gradientUnits="userSpaceOnUse" x1="555.0137" y1="-359.7714" x2="555.0056" y2="-363.5502" gradientTransform="matrix(1 0 0 -1 0 32)">			<stop offset="5.800000e-02" style="stop-color:#F8ADFA"></stop>			<stop offset="0.708" style="stop-color:#A86EDD;stop-opacity:0"></stop>		</linearGradient>		<path style="fill:url(#SVGID_00000047049268006327378630000002708732063454626702_);" d="M548.4,406.5h7.7c2.2,0,3.5-2.9,4.4-5.8   c1-3.4,2.4-8.1-1.5-8.1h-3.3c-0.5,0-1,0.2-1.3,0.4s-0.7,0.7-0.8,1.2c-0.8,2.8-1.6,5.5-2.4,8.2c-0.4,1.4-0.7,2.5-1.3,3.3   C549.6,406.2,549.1,406.5,548.4,406.5z"></path>		<path d="M601.3,392.2c-1.5-0.8-3.1-0.6-4.6,0.7c-0.2-0.3,0-0.8-0.2-0.9s-0.6,0-0.9,0c-0.5,0-1.2-0.2-1.5,0.1   c-0.3,0.3-0.1,1-0.1,1.5c0,4.2,0,8.4,0,12.6c0,0.4,0.1,0.5,0.5,0.5c0.7,0,1.3,0,2,0c0.3,0,0.4-0.1,0.3-0.3c0-0.6,0-1.1,0-1.7v-2.8   c0,0,0.1,0,0.1,0.1c2,1.7,4.7,1.2,5.9-1.1c1.1-2.1,1-4.2,0.3-6.4C602.8,393.5,602.2,392.7,601.3,392.2z M600.3,399.5   c-0.2,0.6-0.8,1-1.5,1c-0.8,0-1.4-0.2-1.9-0.8c-0.1-0.1-0.1-0.3-0.1-0.5c0-0.6,0-1.3,0-2c0-0.6,0-1.3,0-1.9c0-0.3,0.1-0.5,0.3-0.7   c0.9-1,2.7-0.8,3.3,0.4C600.9,396.6,600.9,398.1,600.3,399.5z"></path>		<path d="M574,390.6c0.6-0.2,1.2-0.2,1.8-0.1c0.9,0.2,1.5,0.7,1.8,1.6c0.1,0.2,0.1,0.4,0.1,0.7c0,0.2,0.1,0.3,0.4,0.3   c0.8,0,1.5,0,2.3,0c0.3,0,0.3-0.1,0.3-0.3c-0.2-1.4-0.7-2.6-1.8-3.5c-1.4-1.2-3.1-1.4-4.9-1.2c-2,0.2-3.4,1.3-4.2,3   c-0.7,1.4-0.8,2.8-0.8,4.3c0,0.8,0,1.6,0.2,2.3c0.3,1.6,1,3,2.3,4c1.9,1.3,4,1.3,6,0.6c1.8-0.7,2.8-2.1,3.1-4   c0.1-0.3,0-0.5-0.4-0.5c-0.7,0-1.4,0-2.1,0c-0.3,0-0.4,0.1-0.5,0.4c-0.1,0.6-0.3,1.2-0.8,1.6c-1.5,1.2-4,0.5-4.6-1.3   c-0.5-1.9-0.5-3.9-0.1-5.8C572.4,391.8,573,391,574,390.6z"></path>		<path d="M624.9,393.9c-1.1-1.6-3.1-2.4-5.1-2.1c-2,0.4-3.2,1.5-3.8,3.3c-0.4,1.2-0.4,2.5-0.1,3.8c0.8,3.5,5.1,5.1,7.9,2.9   c1.5-1.1,2-2.7,2-4.7C625.8,396.1,625.6,395,624.9,393.9z M622.6,399.2c-0.3,0.9-1,1.3-1.9,1.4c-0.9,0-1.7-0.4-2-1.3   c-0.5-1.3-0.5-2.7,0-4c0.3-0.9,1.1-1.3,2.1-1.2c0.9,0.1,1.6,0.7,1.8,1.8c0.1,0.4,0.1,0.9,0.2,1.3   C622.9,397.9,622.9,398.6,622.6,399.2L622.6,399.2z"></path>		<path d="M586.2,391.9c-2,0.3-3.3,1.5-3.8,3.4c-0.3,1.1-0.4,2.2-0.2,3.3c0.3,1.8,1.1,3.3,2.9,3.9c1.8,0.7,3.7,0.6,5.3-0.6   c1.4-1.1,1.9-2.7,1.9-4.4c0-1.1-0.2-2.2-0.7-3.2C590.4,392.4,588.3,391.5,586.2,391.9z M588.9,399.5c-0.4,0.7-1,1.1-1.8,1.1   s-1.5-0.3-1.8-1.1c-0.6-1.5-0.6-2.9,0.1-4.4c0.4-0.8,1.1-1.1,2-1s1.4,0.7,1.7,1.5c0.2,0.6,0.3,1.2,0.2,1.8   C589.3,398.1,589.2,398.8,588.9,399.5z"></path>		<path d="M632.9,402.1c0-0.3,0-0.7,0-1c0-0.5-0.1-0.6-0.6-0.5c-1,0.1-1.3-0.2-1.3-1.2c0-1.3,0-2.5,0-3.8c0-0.4-0.2-1,0.1-1.3   s0.9-0.1,1.3-0.1l0,0c0.3,0,0.4,0,0.4-0.4c0-0.5,0-0.9,0-1.4c0-0.3-0.1-0.4-0.4-0.4c-0.4,0-0.8,0-1.1,0s-0.3-0.1-0.3-0.3   c0-0.6,0-1.3,0-1.9c0-0.3-0.1-0.4-0.4-0.4c-0.7,0-1.4,0-2.1,0c-0.3,0-0.4,0.1-0.3,0.4c0,0.6,0,1.3,0,1.9c0,0.3-0.1,0.4-0.3,0.3   c-0.1,0-0.2,0-0.3,0c-0.9,0-0.9,0-0.9,0.9c0,0.4-0.2,0.9,0.1,1.1c0.2,0.2,0.7,0.1,1.1,0.1c0.3,0,0.4,0.1,0.4,0.4   c0,0.9,0,1.9,0,2.8l0,0c0,1,0,1.9,0,2.9c0.1,1.3,0.7,2.2,1.7,2.6c0.8,0.3,1.7,0.2,2.5,0.1C632.7,402.7,632.9,402.5,632.9,402.1z"></path>		<path d="M613.7,395.1c0-2.4,0-4.8,0-7.2c0-0.3-0.1-0.4-0.4-0.4c-0.7,0-1.4,0-2.1,0c-0.3,0-0.4,0.1-0.4,0.4c0,0.4,0,0.8,0,1.1   c0,4.4,0,8.8,0,13.2c0,0.4,0.1,0.5,0.5,0.5c0.6,0,1.2,0,1.9,0c0.4,0,0.6-0.1,0.6-0.5C613.7,399.8,613.7,397.4,613.7,395.1z"></path>		<path d="M608,392c-0.7,0-1.4,0-2.1,0c-0.3,0-0.4,0.1-0.4,0.4c0,1.6,0,3.3,0,4.9c0,1.7,0,3.3,0,5c0,0.3,0,0.4,0.3,0.4   c0.7,0,1.5,0,2.2,0c0.3,0,0.3-0.1,0.3-0.3c0-3.3,0-6.7,0-10C608.3,392,608.3,392,608,392z"></path>		<path d="M606.9,387.7c-0.9,0-1.6,0.6-1.6,1.5s0.6,1.5,1.6,1.5s1.6-0.6,1.6-1.5C608.5,388.3,607.9,387.7,606.9,387.7z"></path>	</g></g><g id="Logo_4">	<path class="st10" d="M508.7,51.4h118.5c1,0,1.9,0.8,1.9,1.9v29.9c0,1-0.8,1.9-1.9,1.9H508.7c-1,0-1.9-0.8-1.9-1.9v-30  C506.8,52.2,507.7,51.4,508.7,51.4z"></path>	<g>		<path class="st4" d="M529.9,77.3c-1.8,0-3.5-0.5-5-1.5s-2.6-2.4-3.3-4.1s-0.9-3.5-0.5-5.2c0.3-1.8,1.2-3.4,2.4-4.7   c0.8-0.9,1.8-1.5,2.9-2c1.1-0.5,2.3-0.7,3.4-0.7h0.1c1.6,0,3.2,0.4,4.6,1.3c1.4,0.8,2.5,2.1,3.3,3.5c0.8,1.5,1.1,3.1,1,4.7   s-0.6,3.2-1.5,4.6c-0.1,0.2-0.1,0.4-0.1,0.5c0.1,0.7,0.3,1.3,0.7,1.9l0.2,0.4v0.1v0.1l-0.1,0.1c0,0-0.1,0-0.1,0.1l-0.4,0.1   c-0.3,0.1-0.7,0.1-1,0.1l0,0c-0.7,0-1.4-0.1-2.1-0.4c-0.1,0-0.2,0-0.2,0c-0.1,0-0.2,0-0.3,0.1C532.6,77,531.3,77.3,529.9,77.3   L529.9,77.3z"></path>		<path class="st63" d="M531.5,66.8c0,0.3-0.1,0.6-0.3,0.9s-0.4,0.5-0.7,0.6s-0.6,0.2-0.9,0.1c-0.3-0.1-0.6-0.2-0.8-0.4   c-0.2-0.2-0.4-0.5-0.4-0.8c-0.1-0.3,0-0.6,0.1-0.9s0.3-0.6,0.6-0.7c0.3-0.2,0.6-0.3,0.9-0.3c0.2,0,0.4,0,0.6,0.1   c0.2,0.1,0.4,0.2,0.5,0.3c0.1,0.1,0.3,0.3,0.4,0.5C531.5,66.4,531.5,66.6,531.5,66.8z"></path>		<path class="st64" d="M531.6,72.6c-0.1-0.1-0.3-0.2-0.4-0.2c-0.2,0-0.3,0-0.5,0.1c-0.2,0.2-0.5,0.3-0.8,0.3s-0.6-0.1-0.8-0.3   c-0.1-0.1-0.3-0.2-0.4-0.2c-0.2,0-0.3,0.1-0.4,0.2c-0.1,0.1-0.1,0.2-0.2,0.3c0,0.1,0,0.2,0,0.4c0,0.1,0.1,0.2,0.2,0.3   c0.5,0.4,1,0.6,1.6,0.6s1.1-0.2,1.6-0.5c0.1-0.1,0.1-0.1,0.2-0.2s0.1-0.2,0.1-0.2c0-0.1,0-0.2,0-0.2   C531.7,72.8,531.7,72.7,531.6,72.6L531.6,72.6z"></path>		<path class="st65" d="M529.9,62.7c-0.8,0-1.6,0.3-2.3,0.7c-0.7,0.5-1.2,1.1-1.5,1.9s-0.4,1.6-0.2,2.4s0.6,1.5,1.1,2.1   c0.6,0.6,1.3,1,2.1,1.1c0.8,0.2,1.6,0.1,2.3-0.2c0.7-0.3,1.4-0.8,1.8-1.5c0.4-0.7,0.7-1.5,0.7-2.3c0-1.1-0.4-2.1-1.2-2.9   C532.1,63.1,531,62.7,529.9,62.7z M529.9,69.7c-0.6,0-1.1-0.2-1.6-0.5s-0.8-0.8-1-1.3s-0.3-1.1-0.1-1.7c0.1-0.6,0.4-1.1,0.8-1.5   s0.9-0.7,1.5-0.8c0.5-0.1,1.1,0,1.6,0.2c0.5,0.2,1,0.6,1.3,1.1s0.5,1,0.5,1.6c0,0.8-0.3,1.5-0.8,2   C531.4,69.4,530.7,69.7,529.9,69.7z"></path>		<path class="st64" d="M538.8,76c-0.4-0.6-0.7-1.3-0.8-2c0-0.1,0-0.2,0-0.3c0-0.1,0-0.2,0.1-0.2c1-1.6,1.5-3.4,1.5-5.3   c0-2.6-1-5-2.8-6.8s-4.2-2.8-6.8-2.8h-0.1c-1.8,0-3.6,0.6-5.2,1.6c-1.5,1-2.8,2.4-3.5,4.1c-0.8,1.7-1,3.6-0.8,5.4s1,3.6,2.2,5   c0.9,1.1,2,1.9,3.3,2.5s2.6,0.9,4,0.9h0.1c1.3,0,2.7-0.3,3.9-0.8c0.1-0.1,0.3-0.1,0.4,0c0.7,0.2,1.4,0.3,2.2,0.3l0,0   c0.6,0,1.3-0.1,1.9-0.3c0.2-0.1,0.4-0.2,0.5-0.4c0.1-0.2,0.1-0.4,0.1-0.6C538.8,76.1,538.8,76.1,538.8,76z M537.2,76.1   c-0.9,0.1-1.8,0-2.6-0.3c-0.3-0.1-0.7-0.1-1,0.1c-1.1,0.5-2.3,0.8-3.5,0.8l0,0c-1.7,0-3.3-0.5-4.6-1.4c-1.4-0.9-2.5-2.2-3.1-3.8   s-0.8-3.2-0.5-4.9c0.3-1.6,1.1-3.1,2.3-4.3c0.8-0.8,1.7-1.4,2.7-1.9c1-0.4,2.1-0.7,3.2-0.7h0.1c1.5,0,3,0.4,4.3,1.2   s2.4,1.9,3.1,3.3c0.7,1.4,1.1,2.9,1,4.4s-0.6,3-1.4,4.3c-0.2,0.3-0.3,0.7-0.2,1c0.1,0.7,0.3,1.3,0.6,1.9c0,0,0,0,0,0.1V76   C537.3,76.1,537.3,76.1,537.2,76.1L537.2,76.1z"></path>		<path class="st63" d="M546.8,72.9h6.5v2.6h-9.2V61h2.7V72.9z"></path>		<path class="st63" d="M561.8,65.5h2.3v10h-2.4l-0.2-1.5c-0.6,1.1-1.7,1.8-3.3,1.8c-2.3,0-4.6-1.8-4.6-5.2c0-3.4,2.3-5.2,4.6-5.2   c1.6,0,2.7,0.7,3.3,1.8L561.8,65.5z M561.5,70.5c0-1.8-1.3-2.9-2.5-2.9c-1.5,0-2.7,1.1-2.7,2.9s1.2,2.9,2.7,2.9   C560.2,73.4,561.5,72.4,561.5,70.5z"></path>		<path class="st63" d="M565.1,75.5v-5.7c0-2.6,1.7-4.5,4.6-4.5c3,0,4.6,1.9,4.6,4.5v5.7h-2.7V70c0-1.5-0.7-2.4-2-2.4s-2,0.9-2,2.4   v5.5H565.1z"></path>		<path class="st63" d="M582.9,61h2.7v14.5h-2.4L583,74c-0.6,1.1-1.7,1.8-3.2,1.8c-2.3,0-4.5-1.8-4.5-5.2c0-3.4,2.3-5.2,4.5-5.2   c1.5,0,2.6,0.6,3.2,1.6L582.9,61L582.9,61z M582.9,70.5c0-1.9-1.3-2.9-2.5-2.9c-1.5,0-2.6,1.1-2.6,2.9s1.1,2.9,2.6,2.9   C581.6,73.4,582.9,72.4,582.9,70.5z"></path>		<path class="st63" d="M596.9,70.5c0,3.4-2.3,5.2-4.5,5.2c-1.5,0-2.7-0.7-3.2-1.8l-0.2,1.5h-2.4V61h2.7v5.9c0.6-1,1.7-1.6,3.2-1.6   C594.7,65.3,596.9,67.1,596.9,70.5z M594.3,70.5c0-1.8-1.1-2.9-2.6-2.9c-1.2,0-2.5,0.9-2.5,2.9c0,1.9,1.3,2.9,2.5,2.9   C593.2,73.4,594.3,72.3,594.3,70.5z"></path>		<path class="st63" d="M597.6,70.5c0-3,2.2-5.2,5.3-5.2s5.3,2.2,5.3,5.2s-2.2,5.2-5.3,5.2S597.6,73.5,597.6,70.5z M605.5,70.5   c0-1.7-1.1-2.9-2.7-2.9c-1.5,0-2.7,1.2-2.7,2.9c0,1.7,1.1,2.9,2.7,2.9S605.5,72.2,605.5,70.5z"></path>		<path class="st63" d="M615.6,67.6h-2.9v3.7c0,1.3,0.5,1.9,1.8,1.9c0.1,0,0.4,0,0.8,0v2.2c-0.5,0.1-1,0.2-1.6,0.2   c-2.2,0-3.7-1.4-3.7-3.9v-4.1h-1.8v-2.1h1.8v-3.4h2.7v3.4h2.9V67.6z"></path>	</g></g></svg>