<svg xmlns="http://www.w3.org/2000/svg" width="341" height="49" viewBox="0 0 341 49" fill="none"><path d="M57.5467 26.3872V1.21289H64.7436V37.4343H57.5467L37.4072 13.8593V37.4343H30.2103V6.60316L26.6562 1.21289H35.6894L57.5763 26.3872H57.5467Z" fill="#1F271B"></path><path d="M100.698 7.0192C97.2037 7.0192 93.3535 8.82583 93.3535 10.9286C93.3535 13.0314 94.1827 14.5715 101.261 14.5715C116.721 14.5715 119.091 19.8137 119.091 25.6778C119.091 34.3556 111.124 38.5316 100.758 38.5316C94.4789 38.5316 88.3186 35.5107 84.3203 30.8312L89.5033 25.589C91.6653 27.8991 94.3308 31.542 100.758 31.542C107.185 31.542 111.953 29.4392 111.953 25.6778C111.953 22.3904 108.31 21.6796 100.758 21.6796C92.0799 21.6796 85.8012 18.8067 85.8012 10.899C85.8012 4.32407 92.7315 0 100.758 0C106 0 110.976 0.918123 116.277 4.53138L111.449 10.129C108.665 7.81886 104.874 6.98959 100.669 6.98959L100.698 7.0192Z" fill="#1F271B"></path><path d="M138.664 37.4343V1.21289H145.802V15.6955C147.134 15.0736 148.586 14.7774 150.067 14.7774C153.087 14.7774 157.352 15.814 160.966 15.814C162.506 15.814 164.046 15.6067 165.497 14.8959V1.21289H172.635V37.4343H165.497V22.2705C164.105 22.9813 162.713 23.1886 161.232 23.1886C157.471 23.1886 153.887 22.2113 150.333 22.2113C148.734 22.2113 147.253 22.4186 145.802 23.0405V37.4343H138.664Z" fill="#1F271B"></path><path d="M212.857 0.384766L232.434 37.4355H224.526L221.653 31.986H217.329C208.385 31.986 199.085 35.4808 197.9 37.0209L197.693 37.4355H190.141L207.496 4.91615L205.127 0.384766H212.886H212.857ZM218.247 25.411L211.198 11.9946L202.609 28.5801C204.919 27.3954 209.806 25.4407 217.299 25.4407H218.277L218.247 25.411Z" fill="#1F271B"></path><path d="M281.919 29.6747H284.436V37.4343H281.297C277.535 37.4343 274.1 37.1678 270.723 31.6887L265.126 22.5963H264.622C258.966 22.5963 257.426 23.159 254.493 24.6991V37.4343H247.148V1.21289H270.516C277.15 1.21289 281.919 5.83313 281.919 12.1119C281.919 17.6503 278.839 21.0562 273.596 22.6851L275.847 26.4761C277.595 29.4082 280.112 29.7043 281.919 29.7043V29.6747ZM274.574 11.9046C274.574 8.67635 271.79 8.40979 269.272 8.40979H254.523V17.5022C257.307 15.9621 260.891 15.3994 264.652 15.3994H270.516C272.678 15.3994 274.574 14.2147 274.574 11.9046Z" fill="#1F271B"></path><path d="M0 37.4343V1.71638L0.266552 1.21289C5.24219 3.87841 7.70039 6.78087 7.70039 9.94987V37.4343" fill="#1F271B"></path><path d="M333.429 32.4292C332.303 32.3403 331.178 32.2219 330.023 32.133C327.742 32.8438 325.906 34.5024 323.833 35.6871C323.744 35.8055 323.655 35.924 323.507 36.0128C319.153 38.708 309.35 33.2945 307.366 29.9477C304.552 25.2387 302.39 13.2374 307.366 8.88376C310.742 5.92207 326.587 5.91124 330.585 7.56978C335.146 9.46526 335.62 16.2528 334.939 21.2284C338.908 21.2284 330.526 27.3647 330.023 28.4901C330.2 28.4013 330.348 27.3943 330.585 27.4239C331.681 27.6016 332.777 27.8386 333.843 28.0755C334.88 28.2532 335.887 28.3717 336.923 28.4901C339.619 20.5528 337.871 13.8594 331.652 8.40989C330.793 7.66947 329.401 6.69211 327.476 5.50743C318.354 1.98302 311.246 3.10846 306.181 8.88376C305.618 9.50571 304.7 10.8385 303.456 12.8524C300.643 21.5894 301.946 28.3421 307.366 33.1104L314.563 39.4188L314.385 39.6261L313.023 39.9223C306.862 39.2707 302.39 40.5442 299.547 43.8021L299.784 44.3944L301.057 45.5199C311.868 50.5251 320.989 48.8073 328.394 40.3369L334.139 33.7916C334.406 33.4658 334.673 33.14 334.939 32.7846C334.436 32.6957 333.932 32.6069 333.429 32.4884V32.4292Z" fill="#C0C733"></path><path d="M298.508 19.1616C298.508 6.72246 308.874 0.414062 319.684 0.414062C330.494 0.414062 340.86 7.19633 340.86 19.3689C340.86 31.5414 330.613 38.531 319.773 38.531C308.903 38.531 298.537 31.3341 298.537 19.1616H298.508ZM305.971 19.2208C305.971 26.9804 312.813 31.2453 319.595 31.2453C326.377 31.2453 333.367 27.5728 333.367 19.4873C333.367 11.4019 326.585 7.72944 319.684 7.72944C312.902 7.72944 306.001 11.1946 306.001 19.2208H305.971Z" fill="#1F271B"></path></svg>