<svg xmlns="http://www.w3.org/2000/svg" width="254" height="36" viewBox="0 0 254 36" fill="none"><path d="M42.8645 19.6647V0.910156H48.2261V27.8946H42.8645L27.8609 10.3315V27.8946H22.4993V4.92583L19.8516 0.910156H26.5811L42.8865 19.6647H42.8645Z" fill="white"></path><path d="M75.014 5.2292C72.4104 5.2292 69.5421 6.57512 69.5421 8.14167C69.5421 9.70823 70.1599 10.8556 75.4332 10.8556C86.9507 10.8556 88.7158 14.7609 88.7158 19.1296C88.7158 25.5944 82.7806 28.7055 75.0581 28.7055C70.3805 28.7055 65.7912 26.4549 62.8125 22.9688L66.6737 19.0634C68.2844 20.7844 70.2702 23.4983 75.0581 23.4983C79.846 23.4983 83.3984 21.9318 83.3984 19.1296C83.3984 16.6805 80.6845 16.151 75.0581 16.151C68.5933 16.151 63.9157 14.0107 63.9157 8.11961C63.9157 3.22137 69.0787 0 75.0581 0C78.9635 0 82.6702 0.683989 86.6197 3.37582L83.0233 7.54594C80.9492 5.82494 78.125 5.20714 74.9919 5.20714L75.014 5.2292Z" fill="white"></path><path d="M103.305 27.8946V0.910156H108.622V11.6995C109.615 11.2362 110.696 11.0155 111.799 11.0155C114.05 11.0155 117.227 11.7878 119.919 11.7878C121.066 11.7878 122.214 11.6333 123.295 11.1038V0.910156H128.612V27.8946H123.295V16.5978C122.258 17.1273 121.221 17.2818 120.118 17.2818C117.315 17.2818 114.646 16.5536 111.998 16.5536C110.806 16.5536 109.703 16.7081 108.622 17.1714V27.8946H103.305Z" fill="white"></path><path d="M158.579 0.285156L173.164 27.8874H167.273L165.133 23.8276H161.911C155.248 23.8276 148.32 26.4312 147.437 27.5785L147.283 27.8874H141.656L154.586 3.66097L152.821 0.285156H158.602H158.579ZM162.595 18.9294L157.344 8.93431L150.945 21.2902C152.666 20.4077 156.307 18.9514 161.889 18.9514H162.617L162.595 18.9294Z" fill="white"></path><path d="M210.021 22.1138H211.896V27.8946H209.557C206.755 27.8946 204.196 27.696 201.68 23.6142L197.51 16.8405H197.135C192.921 16.8405 191.773 17.2597 189.589 18.407V27.8946H184.117V0.910156H201.526C206.468 0.910156 210.021 4.35216 210.021 9.02976C210.021 13.1558 207.726 15.6931 203.82 16.9067L205.497 19.7309C206.799 21.9152 208.675 22.1359 210.021 22.1359V22.1138ZM204.549 8.87532C204.549 6.47032 202.475 6.27175 200.599 6.27175H189.611V13.0454C191.685 11.8981 194.355 11.4789 197.157 11.4789H201.526C203.136 11.4789 204.549 10.5963 204.549 8.87532Z" fill="white"></path><path d="M0 27.8946V1.28525L0.198577 0.910156C3.90536 2.89593 5.73668 5.05822 5.73668 7.41908V27.8946" fill="white"></path><path d="M248.405 24.1661C247.567 24.0999 246.729 24.0117 245.868 23.9455C244.169 24.475 242.801 25.7106 241.257 26.5932C241.19 26.6814 241.124 26.7697 241.014 26.8359C237.771 28.8437 230.467 24.8107 228.989 22.3175C226.893 18.8093 225.282 9.86853 228.989 6.6251C231.504 4.41868 243.309 4.41061 246.287 5.64621C249.685 7.05831 250.038 12.1149 249.531 15.8217C252.487 15.8217 246.177 19.665 245.802 20.5035C245.934 20.4373 246.111 20.4152 246.287 20.4373C247.104 20.5696 247.92 20.7462 248.714 20.9227C249.487 21.0551 250.237 21.1433 251.009 21.2316C253.017 15.3184 251.715 10.3319 247.082 6.27207C246.442 5.72047 245.405 4.99235 243.971 4.10979C237.175 1.48415 231.879 2.32259 228.106 6.6251C227.687 7.08845 227.003 8.08133 226.077 9.5817C223.98 16.0906 224.951 21.1213 228.989 24.6736L234.351 29.3732L234.218 29.5277L233.203 29.7483C228.614 29.2629 225.282 30.2117 223.164 32.6387L223.341 33.08L224.289 33.9185C232.343 37.6473 239.139 36.3676 244.655 30.0572L248.935 25.1811C249.134 24.9384 249.332 24.6956 249.531 24.4309C249.156 24.3647 248.781 24.2985 248.405 24.2102V24.1661Z" fill="#C0C733"></path><path d="M222.391 14.2752C222.391 5.00826 230.113 0.308594 238.166 0.308594C246.22 0.308594 253.942 5.36129 253.942 14.4297C253.942 23.498 246.308 28.7052 238.233 28.7052C230.135 28.7052 222.413 23.3436 222.413 14.2752H222.391ZM227.951 14.3193C227.951 20.1001 233.048 23.2774 238.1 23.2774C243.153 23.2774 248.36 20.5414 248.36 14.5179C248.36 8.4944 243.307 5.75844 238.166 5.75844C233.114 5.75844 227.973 8.33995 227.973 14.3193H227.951Z" fill="white"></path></svg>