<svg xmlns="http://www.w3.org/2000/svg" id="Layer_1" data-name="Layer 1" viewBox="0 0 1080 1080"><defs><style>      .cls-1 {        fill: #869c95;      }      .cls-2 {        fill: #013e5b;      }    </style></defs><g><path class="cls-2" d="M165.11,721.88l4.23-.61,18-51.43h12.14l17.87,51.43,4.23.61v7.11h-20.15v-7.11l4.11-.73-2.6-8.12h-19.17l-2.6,8.12,4.1.73v7.11h-20.15v-7.11ZM186.56,704.29h13.58l-6.67-20.84h-.24l-6.67,20.84Z"></path><polygon class="cls-2" points="225.47 728.99 225.47 721.88 231.77 720.67 231.77 678.22 225.47 677 225.47 669.85 231.77 669.85 243.63 669.85 249.97 669.85 249.97 677 243.63 678.22 243.63 719.9 260.32 719.9 260.89 712.46 269.96 712.46 269.96 728.99 225.47 728.99"></polygon><g><path class="cls-2" d="M300.79,669.85c6.71,0,11.98,1.54,15.8,4.61,3.82,3.08,5.73,7.32,5.73,12.74,0,2.98-.8,5.56-2.4,7.76-1.6,2.19-3.94,3.97-7.03,5.32,3.5,1.03,6,2.75,7.54,5.14,1.52,2.4,2.29,5.37,2.29,8.91v3.01c0,1.3.26,2.31.78,3.03.51.73,1.36,1.15,2.56,1.28l1.46.2v7.15h-6.13c-3.87,0-6.6-1.05-8.18-3.13-1.57-2.08-2.35-4.78-2.35-8.08v-3.37c0-2.87-.76-5.12-2.29-6.77-1.52-1.64-3.69-2.5-6.47-2.58h-9.72v15.6l6.35,1.22v7.11h-24.5v-7.11l6.29-1.22v-42.45l-6.29-1.21v-7.15h26.57ZM292.37,695.93h8.21c3.31,0,5.78-.71,7.44-2.11,1.64-1.4,2.47-3.43,2.47-6.09s-.82-4.78-2.46-6.36c-1.63-1.59-4.05-2.38-7.24-2.38h-8.42v16.94Z"></path><path class="cls-2" d="M330.8,721.88l4.23-.61,17.99-51.43h12.15l17.88,51.43,4.23.61v7.11h-20.16v-7.11l4.11-.73-2.6-8.12h-19.17l-2.6,8.12,4.1.73v7.11h-20.15v-7.11ZM352.26,704.29h13.56l-6.66-20.84h-.24l-6.66,20.84Z"></path><path class="cls-2" d="M417.44,669.85c6.97,0,12.39,1.36,16.29,4.06,3.9,2.71,5.85,6.76,5.85,12.14,0,2.74-.73,5.18-2.16,7.34-1.46,2.16-3.57,3.77-6.33,4.86,3.55.76,6.21,2.38,7.98,4.87,1.77,2.49,2.65,5.38,2.65,8.65,0,5.66-1.87,9.94-5.6,12.86-3.74,2.91-9.03,4.37-15.89,4.37h-29.09v-7.11l6.29-1.21v-42.45l-6.29-1.21v-7.15h26.28ZM409.33,694.63h8.53c3.16,0,5.6-.65,7.31-1.95,1.71-1.31,2.56-3.2,2.56-5.69,0-2.73-.86-4.75-2.58-6.05-1.73-1.3-4.29-1.95-7.7-1.95h-8.11v15.64ZM409.33,702.83v17.06h10.92c3.14,0,5.54-.68,7.19-2.05,1.65-1.37,2.48-3.4,2.48-6.08,0-2.9-.71-5.11-2.11-6.65-1.41-1.52-3.63-2.29-6.67-2.29h-11.81Z"></path><polygon class="cls-2" points="484.35 702.99 464.32 702.99 464.32 719.9 483.41 719.9 483.94 712.83 492.96 712.83 492.96 728.99 446.17 728.99 446.17 721.88 452.46 720.67 452.46 678.22 446.17 677 446.17 669.85 452.46 669.85 492.87 669.85 492.87 686.05 483.78 686.05 483.25 678.99 464.32 678.99 464.32 693.86 484.35 693.86 484.35 702.99"></polygon><polygon class="cls-2" points="499.29 677 499.29 669.85 523.8 669.85 523.8 677 517.46 678.22 517.46 695.27 541.58 695.27 541.58 678.22 535.24 677 535.24 669.85 541.58 669.85 553.4 669.85 559.74 669.85 559.74 677 553.4 678.22 553.4 720.67 559.74 721.88 559.74 728.99 535.24 728.99 535.24 721.88 541.58 720.67 541.58 704.42 517.46 704.42 517.46 720.67 523.8 721.88 523.8 728.99 499.29 728.99 499.29 721.88 505.59 720.67 505.59 678.22 499.29 677"></polygon><polygon class="cls-2" points="584.68 677 584.68 669.85 609.17 669.85 609.17 677 602.84 678.22 602.84 720.67 609.17 721.88 609.17 728.99 584.68 728.99 584.68 721.88 591.01 720.67 591.01 678.22 584.68 677"></polygon><polygon class="cls-2" points="674.12 669.85 674.12 677 667.79 678.22 667.79 728.99 655.96 728.99 632.09 689.18 631.84 689.23 631.84 720.67 638.17 721.88 638.17 728.99 613.68 728.99 613.68 721.88 619.98 720.67 619.98 678.22 613.68 677 613.68 669.85 619.98 669.85 631.84 669.85 655.72 709.66 655.96 709.62 655.96 678.22 649.63 677 649.63 669.85 667.79 669.85 674.12 669.85"></polygon><polygon class="cls-2" points="730.01 669.85 730.01 685.61 720.92 685.61 720.43 678.99 709.54 678.99 709.54 720.67 715.88 721.88 715.88 728.99 691.35 728.99 691.35 721.88 697.68 720.67 697.68 678.99 686.84 678.99 686.35 685.61 677.29 685.61 677.29 669.85 730.01 669.85"></polygon><path class="cls-2" d="M747.24,673.38c0,2.72-.72,5.56-2.16,8.56-1.43,2.99-3.18,5.44-5.24,7.33l-5.85-3.21c1.05-1.87,1.87-3.81,2.44-5.82.56-2.02.86-4.3.86-6.85v-7.76h9.95v7.76Z"></path><polygon class="cls-2" points="753 728.99 753 721.88 759.3 720.67 759.3 678.22 753 677 753 669.85 759.3 669.85 771.17 669.85 777.5 669.85 777.5 677 771.17 678.22 771.17 719.9 787.86 719.9 788.42 712.46 797.49 712.46 797.49 728.99 753 728.99"></polygon><path class="cls-2" d="M864.69,689.79h-8.81l-1.22-7.89c-1.16-1.16-2.63-2.08-4.4-2.76-1.77-.67-3.87-1.01-6.28-1.01-5.14,0-9.1,1.87-11.88,5.61-2.77,3.73-4.16,8.61-4.16,14.63v2.07c0,6.01,1.38,10.9,4.14,14.66,2.77,3.77,6.66,5.64,11.7,5.64,2.33,0,4.46-.33,6.4-1.01,1.93-.67,3.44-1.6,4.49-2.77l1.22-7.88h8.81v11.69c-2.37,2.77-5.42,4.97-9.12,6.61-3.69,1.63-7.83,2.46-12.41,2.46-7.94,0-14.43-2.75-19.5-8.25-5.06-5.5-7.6-12.55-7.6-21.16v-2c0-8.58,2.51-15.64,7.55-21.16,5.04-5.52,11.56-8.28,19.55-8.28,4.57,0,8.7.83,12.39,2.49,3.68,1.66,6.72,3.87,9.13,6.6v11.7Z"></path><path class="cls-2" d="M870.42,706.61c0-6.56,1.83-11.92,5.51-16.11,3.67-4.18,8.74-6.27,15.21-6.27s11.58,2.09,15.25,6.26c3.67,4.17,5.51,9.55,5.51,16.13v.85c0,6.6-1.83,11.99-5.51,16.14-3.67,4.16-8.73,6.24-15.17,6.24s-11.62-2.08-15.29-6.24c-3.68-4.15-5.51-9.54-5.51-16.14v-.85ZM882.28,707.47c0,4,.71,7.22,2.11,9.64,1.41,2.42,3.69,3.63,6.83,3.63s5.3-1.21,6.73-3.64c1.42-2.44,2.13-5.65,2.13-9.63v-.85c0-3.9-.71-7.08-2.16-9.55-1.43-2.46-3.7-3.69-6.78-3.69s-5.34,1.23-6.75,3.69c-1.4,2.47-2.11,5.65-2.11,9.55v.85Z"></path><path class="cls-2" d="M192.11,770.84v12.42h9.87v-12.42h-9.87ZM178.09,770.84v12.42h9.98v-12.42h-9.98Z"></path><path class="cls-2" d="M267.92,775.51v43.64h-22.51v-28.24h-14.12v28.24h-20.28v-27.82c-1.49-.32-4.46-.53-8.81-.85-4.35-.21-8.39-.32-12.11-.32-6.58,0-11.57.42-15.08,1.49-3.4.96-5.95,2.87-7.54,5.73-1.59,2.87-2.34,7.22-2.34,13.06,0,6.27.85,10.94,2.55,14.02,1.7,3.08,4.14,5.1,7.43,6.16,3.29.96,7.86,1.49,13.7,1.49h93.23v-56.6h-14.12ZM196.89,819.16h-7.75c-2.44,0-4.35-.21-5.73-.53-1.27-.32-2.34-1.06-3.08-2.34-.74-1.17-1.06-3.08-1.06-5.73,0-2.23.32-3.93,1.06-4.99.64-1.06,1.7-1.8,3.08-2.12,1.49-.21,3.61-.43,6.58-.43,1.06,0,3.4.11,6.9.32v15.82Z"></path><path class="cls-2" d="M240.21,838.69v12.42h9.98v-12.42h-9.98ZM226.3,838.69v12.42h9.98v-12.42h-9.98Z"></path><path class="cls-2" d="M331.79,835.27c-.52,3.84-2.2,7.66-5.01,11.47-2.83,3.8-7.31,5.71-13.44,5.71-3.56,0-8.77-.61-15.62-1.8v-12.83c7.51,1.16,12.25,1.74,14.22,1.74,2.41,0,4.02-.58,4.85-1.74.81-1.15,1.2-3.06,1.15-5.75h-7.89c-5.26,0-9.25-1.02-11.96-3.05-2.71-2.02-4.47-4.45-5.31-7.27-.82-2.82-1.23-5.99-1.23-9.49,0-6.64.89-11.62,2.67-14.97,1.78-3.34,4.06-5.51,6.82-6.53,2.77-1.02,6.15-1.52,10.16-1.52s7.67.24,11.51.74c3.84.5,7.12,1.04,9.87,1.64v31.82c0,4.05-.26,8-.78,11.83h0ZM307.29,817.19c1.07,1.32,3.14,1.97,6.21,1.97h4.94v-16.85c-1.76-.12-3.38-.17-4.85-.17s-2.69.17-3.79.5c-1.08.32-2.05,1.17-2.87,2.51-.82,1.34-1.23,3.41-1.23,6.21,0,2.57.53,4.52,1.6,5.83h0Z"></path><path class="cls-2" d="M413.07,775.51v56.6h-73.69v-12.95h26.12c-.11-5.95-1.38-10.3-3.72-12.95-2.34-2.76-5.2-4.04-8.39-4.04h-9.45l-1.06-11.26c6.16-1.27,10.83-1.91,14.12-1.91,4.78,0,8.81,1.17,12.21,3.61,3.4,2.44,6.05,5.84,7.75,10.3,1.81,4.57,2.65,9.88,2.65,16.03v.21h19.33v-43.64h14.12Z"></path><rect class="cls-2" x="425.06" y="775.5" width="14.13" height="56.56"></rect><path class="cls-2" d="M531.89,838.69v13.17h12.74v-13.17h-12.74Z"></path><path class="cls-2" d="M545.06,790.91v41.2h-48.53c-2.76-.42-5.31-.64-7.33-.64-2.12,0-3.93.64-5.2,1.91-1.27,1.17-2.02,2.87-2.02,4.99s.64,3.61,1.91,4.99c1.27,1.27,3.19,1.91,5.73,1.91,1.38,0,3.5-.11,6.58-.32,3.08-.32,6.16-.64,9.03-1.06l1.59,10.72c-2.76.85-6.05,1.7-9.87,2.34-3.93.74-7.33,1.06-10.09,1.06-5.95,0-10.51-1.91-13.91-5.63-3.29-3.72-4.99-8.81-4.99-15.08,0-5.73,1.49-10.09,4.46-13.27,2.97-3.19,7.43-4.78,13.38-4.78,2.55,0,6.16.32,10.72.85v-11.89c0-2.23-.32-3.82-1.06-4.78-.74-.96-2.23-1.49-4.46-1.49-.85.11-2.55.11-5.1.11h-12.53l-.42-9.13c2.87-.85,6.37-1.49,10.72-2.02,4.35-.53,8.07-.74,11.36-.74,4.04,0,7.22.53,9.45,1.49,2.34,1.06,3.93,2.55,4.78,4.46.96,1.91,1.38,4.25,1.49,7.22v15.82h20.17v-28.24h14.12Z"></path><rect class="cls-2" x="556.26" y="775.5" width="14.13" height="56.56"></rect><path class="cls-2" d="M640.84,775.51v56.6h-39.92c-.21,6.16-1.38,11.15-3.72,14.76-2.34,3.72-5.73,5.52-10.19,5.52-1.17,0-3.19-.11-5.95-.32v-12.74l1.27.11c2.97,0,4.46-2.23,4.46-6.69v-41.84h14.12v28.24h25.8v-43.64h14.12Z"></path><rect class="cls-2" x="652.85" y="775.5" width="14.14" height="56.56"></rect><path class="cls-2" d="M722.7,770.84v12.42h9.98v-12.42h-9.98ZM708.79,770.84v12.42h9.87v-12.42h-9.87Z"></path><path class="cls-2" d="M799.16,802.49c-.74-3.08-2.34-6.05-4.88-8.92-2.55-2.87-6.48-4.25-11.57-4.25h-13.91l.42-.74c1.27-2.55,2.76-5.1,4.35-7.64,1.59-2.55,2.55-4.04,2.97-4.57l-10.62-5.95c-1.27,1.27-2.87,3.08-4.67,5.42-1.8,2.34-3.29,4.67-4.35,7.01l-5.42,10.41,6.69,9.03h21.87c.74-.11,1.49.11,2.44.64,1.06.64,1.81,1.49,2.55,2.65.64,1.27.96,2.76.96,4.67v8.92h-44.38v-27.82c-1.49-.32-4.35-.53-8.81-.85-4.35-.21-8.39-.32-12-.32-6.58,0-11.57.42-15.08,1.49-3.5.96-5.95,2.87-7.54,5.73-1.59,2.87-2.44,7.22-2.44,13.06,0,6.27.85,10.94,2.55,14.02,1.7,3.08,4.25,5.1,7.54,6.16,3.29.96,7.86,1.49,13.7,1.49h80.7v-21.87c0-2.12-.43-4.67-1.06-7.75ZM727.48,819.16h-7.75c-2.44,0-4.35-.21-5.63-.53-1.27-.32-2.34-1.06-3.08-2.34-.74-1.17-1.17-3.08-1.17-5.73,0-2.23.42-3.93,1.06-4.99.74-1.06,1.8-1.8,3.19-2.12,1.38-.21,3.61-.43,6.48-.43,1.17,0,3.5.11,6.9.32v15.82Z"></path><path class="cls-2" d="M886.44,771.48v11.79h9.87v-11.79h-9.87ZM879.96,759.27v10.94h9.03v-10.94h-9.03ZM872.42,771.48v11.79h9.98v-11.79h-9.98Z"></path><path class="cls-2" d="M911.92,809.17v22.94h-18.05c-1.91,0-3.82-.42-5.73-1.06-1.8-.64-3.08-1.17-3.82-1.7-2.34,1.8-5.2,2.76-8.39,2.76h-47.68c-.21,6.16-1.49,11.15-3.72,14.76-2.34,3.72-5.73,5.52-10.19,5.52-1.27,0-3.19-.11-5.95-.32v-12.74l1.27.11c2.87,0,4.35-2.23,4.35-6.69v-41.84h14.23v28.24h27.71v-24.1h14.12v24.1h.96c1.8,0,3.29-.64,4.35-2.02,1.06-1.27,1.59-3.08,1.59-5.31v-16.78h14.23v16.78c0,2.23-.21,4.35-.74,6.58.85.53,1.7.74,2.76.74h4.57v-11.36c.11-.85.11-2.12.11-3.72,0-2.97-.21-7.22-.64-12.74l12.53-.53c1.38,10.19,2.12,16.35,2.12,18.37Z"></path><path class="cls-2" d="M669.61,364.37c-2.55.96-5.31,1.38-8.18,1.38-.85,0-1.7,0-2.44-.11h2.44c2.87,0,5.63-.42,8.18-1.27Z"></path><path class="cls-2" d="M545.06,120.47c-137.61,0-249.21,111.6-249.21,249.21,0,89.41,47.25,167.88,117.97,211.84,4.88,2.97,9.77,5.84,14.76,8.49,32.39,17.1,69.02,27.4,107.78,28.67,2.97.11,5.84.11,8.71.11h2.87c136.34-1.49,246.34-112.45,246.34-249.11s-111.6-249.21-249.21-249.21ZM702.32,525.14c-34.83,35.25-79.42,57.34-127.74,63.6v-138.99c0-10.19,8.71-18.58,19.54-18.58h71.99c9.24,0,16.99-6.05,19.01-14.23.32-1.49.53-2.87.53-4.35v-36c-2.55,7.86-11.26,16.46-19.64,16.46h-81.23c-10.83,0-19.54,8.28-19.54,18.58v178.18c-5.73.64-11.47.85-17.31.96v-159.27h.11v-43.11c0-12.53,10.83-22.72,24.21-22.72h89.19c2.87,0,5.63-.42,8.18-1.27,2.55-.85,4.88-2.02,7.01-3.61,4.04-3.08,7.11-7.43,8.39-12.42.43-1.7.64-3.5.64-5.31v-43.75c-3.19,9.56-13.91,19.96-24.42,19.96h-100.66c-13.38,0-24.21,10.19-24.21,22.62v248.68c-4.99-.11-9.98-.53-14.97-1.06v-271.72c0-14.12,12.95-25.7,28.88-25.7h106.5c13.59,0,25.06-8.39,28.03-19.75.53-1.91.85-3.93.85-5.95v-49.8c-3.82,10.94-16.67,22.72-29.09,22.72h-120.2c-15.93,0-28.88,11.57-28.88,25.7v322.58c-5.63-.96-11.26-2.12-16.78-3.5V248.32c0-14.87-12.32-26.97-27.4-26.97h-67.43c.64.74,4.67,4.78,5.31,5.63,3.93,4.57,10.62,11.15,12.64,23.36v297.21c-24.85-18.26-45.87-41.84-61.16-68.7-18.79-33.13-28.67-70.82-28.67-109.16,0-59.14,22.94-114.57,64.67-156.41,41.84-41.73,97.37-64.77,156.41-64.77s114.57,23.04,156.41,64.77c41.73,41.84,64.77,97.26,64.77,156.41s-22.72,113.83-63.92,155.45Z"></path></g></g><g><polygon class="cls-1" points="165.14 947.82 165.14 909.93 190.32 909.93 190.32 916.31 172.79 916.31 172.79 925.52 186.99 925.52 186.99 931.79 172.79 931.79 172.79 941.44 190.32 941.44 190.32 947.82 165.14 947.82"></polygon><polygon class="cls-1" points="199.26 947.82 192.65 919.97 200.59 919.97 205.25 941.55 206.86 941.55 211.63 919.97 219.12 919.97 212.52 947.82 199.26 947.82"></polygon><path class="cls-1" d="M233.82,948.43c-3.07,0-5.51-.52-7.3-1.55-1.79-1.04-3.08-2.61-3.86-4.72-.77-2.11-1.17-4.75-1.17-7.93,0-3.44.49-6.25,1.47-8.43.98-2.18,2.41-3.8,4.3-4.86,1.88-1.05,4.22-1.58,6.99-1.58,4.1,0,7.21,1.04,9.29,3.11,2.09,2.07,3.13,5.34,3.13,9.82l-.33,4.11h-17.42c.04,2.07.46,3.63,1.28,4.66.81,1.03,2.22,1.55,4.22,1.55,1.15,0,2.4-.03,3.77-.08,1.37-.05,2.73-.12,4.08-.19,1.35-.07,2.51-.15,3.47-.22l.17,5.16c-.93.15-2.09.32-3.5.5-1.41.18-2.86.34-4.35.47-1.5.13-2.91.19-4.24.19M228.94,931.68h10.38c0-2.52-.4-4.27-1.19-5.27-.8-1-2.08-1.5-3.86-1.5s-3.06.52-3.97,1.55c-.91,1.04-1.36,2.78-1.36,5.22"></path><path class="cls-1" d="M251.57,947.82v-27.85h7.38v1.77c.59-.37,1.31-.73,2.16-1.08.85-.35,1.75-.66,2.69-.92.94-.26,1.86-.39,2.75-.39,2.59,0,4.6.45,6.02,1.35,1.42.91,2.43,2.39,3.02,4.44.59,2.05.89,4.8.89,8.24v14.42h-7.44v-14.03c0-1.93-.11-3.47-.33-4.63-.22-1.17-.65-2-1.28-2.52-.63-.52-1.55-.78-2.77-.78-.67,0-1.36.06-2.08.19-.72.13-1.41.31-2.05.53-.65.22-1.17.44-1.58.67v20.58h-7.38Z"></path><path class="cls-1" d="M291.9,948.49c-2.04,0-3.68-.3-4.94-.89-1.26-.59-2.16-1.62-2.69-3.08-.53-1.46-.8-3.51-.8-6.13v-12.26h-3.28v-6.16h3.28v-7.38h7.38v7.38h7.1v6.16h-7.1v10.32c0,1.44.06,2.57.19,3.38.13.82.42,1.39.86,1.72.44.34,1.13.5,2.05.5.26,0,.64-.02,1.16-.06.52-.04,1.04-.07,1.56-.11.52-.04.94-.07,1.28-.11l.22,5.93c-.89.15-1.95.31-3.19.5-1.24.19-2.26.28-3.08.28"></path><polygon class="cls-1" points="331.62 954.2 333.62 940 341.72 940 337.73 954.2 331.62 954.2"></polygon><path class="cls-1" d="M366.15,948.38c-3.18,0-5.81-.41-7.88-1.25-2.07-.83-3.69-2.07-4.86-3.71-1.16-1.64-1.99-3.68-2.46-6.1-.48-2.42-.72-5.22-.72-8.4,0-3.37.27-6.28.81-8.74.53-2.46,1.42-4.5,2.66-6.1,1.23-1.61,2.87-2.81,4.88-3.6,2.02-.8,4.51-1.2,7.46-1.2,1.52,0,3.1.09,4.75.25,1.64.17,3.22.38,4.71.64,1.5.26,2.75.52,3.75.78l-.11,5.99c-1.04-.19-2.29-.35-3.75-.5-1.46-.15-2.95-.27-4.46-.36-1.52-.09-2.89-.14-4.11-.14-1.85,0-3.36.24-4.52.72s-2.05,1.25-2.66,2.3c-.61,1.06-1.03,2.4-1.25,4.05-.22,1.64-.33,3.62-.33,5.91,0,2.92.21,5.35.64,7.29.43,1.94,1.26,3.38,2.5,4.3,1.24.93,3.02,1.39,5.35,1.39.59,0,1.23-.02,1.92-.06.68-.04,1.35-.09,1.99-.17.65-.07,1.19-.15,1.64-.22v-8.27h-4.5v-5.83h11.76v19.58c-.82.11-1.8.25-2.94.42-1.15.17-2.34.32-3.58.47-1.24.15-2.44.28-3.61.39-1.16.11-2.19.17-3.08.17"></path><path class="cls-1" d="M385.24,909.21h7.44v6.33h-7.44v-6.33ZM385.24,919.97h7.38v27.85h-7.38v-27.85Z"></path><path class="cls-1" d="M399.88,947.82v-21.69h-2.77v-6.16h2.77v-1.61c0-2.63.25-4.7.75-6.21.5-1.52,1.36-2.59,2.58-3.22,1.22-.63,2.87-.94,4.93-.94.59,0,1.3.03,2.14.08.83.06,1.64.12,2.41.19.77.07,1.37.15,1.77.22l-.06,5.66c-.59,0-1.25,0-1.97-.02-.72-.02-1.35-.03-1.86-.03-.82,0-1.47.13-1.97.39-.5.26-.85.69-1.06,1.27-.2.59-.3,1.45-.3,2.56v1.66h6.66v6.16h-6.66v21.69h-7.38Z"></path><path class="cls-1" d="M427.51,948.49c-2.04,0-3.68-.3-4.94-.89-1.26-.59-2.16-1.62-2.69-3.08-.53-1.46-.8-3.51-.8-6.13v-12.26h-3.28v-6.16h3.28v-7.38h7.38v7.38h7.1v6.16h-7.1v10.32c0,1.44.06,2.57.19,3.38.13.82.42,1.39.86,1.72.44.34,1.13.5,2.05.5.26,0,.64-.02,1.16-.06.52-.04,1.04-.07,1.56-.11.52-.04.94-.07,1.28-.11l.22,5.93c-.89.15-1.95.31-3.19.5-1.24.19-2.26.28-3.08.28"></path><rect class="cls-1" x="450.2" y="909.93" width="7.66" height="37.89"></rect><path class="cls-1" d="M474.22,948.49c-2.04,0-3.68-.3-4.94-.89-1.26-.59-2.16-1.62-2.69-3.08-.53-1.46-.8-3.51-.8-6.13v-12.26h-3.28v-6.16h3.28v-7.38h7.38v7.38h7.1v6.16h-7.1v10.32c0,1.44.06,2.57.19,3.38.13.82.42,1.39.86,1.72.44.34,1.13.5,2.05.5.26,0,.64-.02,1.16-.06.52-.04,1.04-.07,1.56-.11.52-.04.94-.07,1.28-.11l.22,5.93c-.89.15-1.95.31-3.19.5-1.24.19-2.26.28-3.08.28"></path><path class="cls-1" d="M495.64,948.43c-3.07,0-5.51-.52-7.3-1.55-1.79-1.04-3.08-2.61-3.86-4.72-.77-2.11-1.17-4.75-1.17-7.93,0-3.44.49-6.25,1.47-8.43.98-2.18,2.41-3.8,4.3-4.86,1.88-1.05,4.22-1.58,6.99-1.58,4.1,0,7.21,1.04,9.29,3.11,2.09,2.07,3.13,5.34,3.13,9.82l-.33,4.11h-17.42c.04,2.07.46,3.63,1.28,4.66.81,1.03,2.22,1.55,4.22,1.55,1.15,0,2.4-.03,3.77-.08,1.37-.05,2.73-.12,4.08-.19,1.35-.07,2.51-.15,3.47-.22l.17,5.16c-.93.15-2.09.32-3.5.5-1.41.18-2.86.34-4.35.47-1.5.13-2.91.19-4.24.19M490.75,931.68h10.38c0-2.52-.4-4.27-1.19-5.27-.8-1-2.08-1.5-3.86-1.5s-3.06.52-3.97,1.55c-.91,1.04-1.36,2.78-1.36,5.22"></path><path class="cls-1" d="M513.39,947.82v-27.85h7.38v1.77c.85-.52,1.99-1.05,3.44-1.58,1.44-.53,2.81-.8,4.11-.8,1.7,0,3.09.23,4.16.69,1.07.47,1.96,1.14,2.66,2.03.67-.41,1.5-.82,2.5-1.22,1-.41,2.09-.76,3.28-1.06,1.18-.29,2.33-.44,3.44-.44,2.74,0,4.83.48,6.27,1.44,1.44.96,2.44,2.47,2.99,4.52.56,2.05.83,4.72.83,8.02v14.48h-7.38v-13.82c0-1.92-.1-3.48-.3-4.69-.2-1.2-.61-2.08-1.22-2.64-.61-.55-1.52-.83-2.75-.83-1.07,0-2.13.15-3.16.45-1.04.29-1.85.59-2.44.88.18.78.32,1.78.41,2.99.09,1.22.14,2.5.14,3.83v13.82h-7.38v-13.71c0-1.96-.1-3.55-.3-4.77-.21-1.22-.62-2.11-1.25-2.66-.63-.55-1.54-.83-2.72-.83-1.04,0-2.05.15-3.03.45-.98.29-1.75.59-2.3.88v20.64h-7.38Z"></path><path class="cls-1" d="M570.37,948.43c-1.22,0-2.52-.06-3.91-.19-1.39-.13-2.68-.29-3.88-.47-1.2-.18-2.23-.37-3.08-.55l.22-5.49c.96.11,2.04.24,3.24.39,1.2.15,2.39.27,3.55.36,1.17.09,2.12.13,2.86.13,1.11,0,2.03-.09,2.75-.28.72-.18,1.27-.49,1.64-.91.37-.42.55-1.05.55-1.86,0-.63-.16-1.11-.47-1.44-.32-.33-.91-.62-1.78-.86-.87-.23-2.13-.49-3.8-.75-2.07-.29-3.78-.72-5.13-1.28-1.35-.55-2.34-1.38-2.97-2.47-.63-1.09-.94-2.58-.94-4.46,0-2.29.5-4.09,1.5-5.38,1-1.29,2.33-2.21,3.99-2.75,1.66-.53,3.47-.81,5.44-.81,1.29,0,2.63.06,3.99.19,1.37.13,2.66.29,3.88.47,1.22.19,2.23.37,3.05.56l-.22,5.6c-.93-.15-2-.29-3.22-.41-1.22-.13-2.43-.23-3.63-.31-1.2-.07-2.21-.11-3.03-.11s-1.61.09-2.27.25c-.67.17-1.17.43-1.52.8-.35.37-.53.93-.53,1.66,0,.52.15.94.44,1.28.3.33.86.62,1.7.86.83.24,2.04.47,3.64.7,2.29.33,4.12.8,5.49,1.39,1.37.59,2.36,1.44,2.97,2.55.61,1.11.92,2.6.92,4.49,0,3.37-.99,5.73-2.97,7.08-1.98,1.35-4.8,2.02-8.46,2.02"></path><path class="cls-1" d="M611.7,948.43c-3.52,0-6.33-.42-8.43-1.28-2.11-.85-3.64-2.12-4.58-3.82-.94-1.7-1.41-3.87-1.41-6.5,0-2.14.29-3.91.86-5.29.57-1.39,1.42-2.52,2.55-3.39,1.13-.87,2.52-1.6,4.19-2.19-.74-.93-1.29-1.76-1.66-2.52-.37-.76-.61-1.55-.72-2.38-.11-.83-.17-1.79-.17-2.86,0-2.74.93-4.91,2.77-6.51,1.85-1.61,4.7-2.42,8.55-2.42,2.33,0,4.34.33,6.02.97,1.69.65,2.98,1.64,3.88,2.97.91,1.33,1.36,3.05,1.36,5.16,0,1.7-.25,3.14-.75,4.3-.5,1.17-1.35,2.18-2.55,3.05-1.2.87-2.87,1.71-5.02,2.52l6.33,6.16c.18-.48.36-1.1.53-1.86.17-.76.32-1.53.47-2.33.14-.8.26-1.51.33-2.14l6.44.17c-.19,1.22-.43,2.47-.72,3.75-.29,1.28-.62,2.49-.97,3.63-.35,1.15-.73,2.17-1.14,3.05l5.77,5.33-2.55,4.44-6.99-4.99c-1.37,1.63-3.09,2.87-5.16,3.72-2.07.85-4.48,1.28-7.21,1.28M611.92,942.22c1.41,0,2.67-.26,3.77-.78,1.11-.52,2.02-1.29,2.72-2.33l-9.49-9.04c-.96.34-1.75.76-2.36,1.28-.61.52-1.06,1.13-1.36,1.83-.29.7-.44,1.59-.44,2.66,0,2.07.56,3.65,1.69,4.74,1.13,1.09,2.95,1.64,5.46,1.64M612.64,924.58c1.11-.52,2.02-1.06,2.75-1.61.72-.55,1.26-1.18,1.61-1.89.35-.7.53-1.52.53-2.44,0-1.4-.32-2.43-.94-3.08-.63-.64-1.63-.97-2.99-.97-1.29,0-2.28.33-2.97,1-.68.67-1.02,1.7-1.02,3.11,0,.7.07,1.33.22,1.88.15.56.44,1.14.89,1.75.44.61,1.09,1.35,1.94,2.24"></path><path class="cls-1" d="M664.51,948.38c-3.18,0-5.81-.41-7.88-1.25-2.07-.83-3.69-2.07-4.86-3.71-1.16-1.64-1.99-3.68-2.46-6.1-.48-2.42-.72-5.22-.72-8.4,0-3.37.27-6.28.81-8.74.53-2.46,1.42-4.5,2.66-6.1,1.23-1.61,2.87-2.81,4.88-3.6,2.02-.8,4.51-1.2,7.46-1.2,1.52,0,3.1.09,4.75.25,1.64.17,3.22.38,4.71.64,1.5.26,2.75.52,3.75.78l-.11,5.99c-1.04-.19-2.29-.35-3.75-.5-1.46-.15-2.95-.27-4.46-.36-1.52-.09-2.89-.14-4.11-.14-1.85,0-3.36.24-4.52.72-1.17.48-2.05,1.25-2.66,2.3-.61,1.06-1.03,2.4-1.25,4.05-.22,1.64-.33,3.62-.33,5.91,0,2.92.21,5.35.64,7.29.43,1.94,1.26,3.38,2.5,4.3,1.24.93,3.03,1.39,5.35,1.39.59,0,1.23-.02,1.92-.06.68-.04,1.35-.09,1.99-.17.65-.07,1.19-.15,1.64-.22v-8.27h-4.5v-5.83h11.76v19.58c-.82.11-1.79.25-2.94.42-1.15.17-2.34.32-3.58.47-1.24.15-2.44.28-3.61.39-1.16.11-2.19.17-3.08.17"></path><path class="cls-1" d="M683.59,909.21h7.44v6.33h-7.44v-6.33ZM683.59,919.97h7.38v27.85h-7.38v-27.85Z"></path><polygon class="cls-1" points="701.51 947.82 694.91 919.97 702.85 919.97 707.51 941.55 709.12 941.55 713.88 919.97 721.38 919.97 714.77 947.82 701.51 947.82"></polygon><path class="cls-1" d="M736.08,948.43c-3.07,0-5.51-.52-7.3-1.55-1.79-1.04-3.08-2.61-3.86-4.72-.77-2.11-1.17-4.75-1.17-7.93,0-3.44.49-6.25,1.47-8.43.98-2.18,2.41-3.8,4.3-4.86,1.88-1.05,4.22-1.58,6.99-1.58,4.1,0,7.21,1.04,9.29,3.11,2.09,2.07,3.13,5.34,3.13,9.82l-.33,4.11h-17.42c.04,2.07.46,3.63,1.28,4.66.81,1.03,2.22,1.55,4.22,1.55,1.15,0,2.4-.03,3.77-.08,1.37-.05,2.73-.12,4.08-.19,1.35-.07,2.51-.15,3.47-.22l.17,5.16c-.93.15-2.09.32-3.5.5-1.41.18-2.86.34-4.35.47-1.5.13-2.91.19-4.24.19M731.19,931.68h10.38c0-2.52-.4-4.27-1.19-5.27-.8-1-2.08-1.5-3.86-1.5s-3.06.52-3.97,1.55c-.91,1.04-1.36,2.78-1.36,5.22"></path><path class="cls-1" d="M773.19,948.43c-2.89,0-5.06-.73-6.52-2.19-1.47-1.46-2.19-3.67-2.19-6.63,0-2.07.37-3.69,1.11-4.85.74-1.17,1.84-2.02,3.3-2.55,1.46-.53,3.25-.86,5.35-.97l6.77-.61v-1.67c0-1.33-.34-2.26-1-2.8-.67-.53-1.64-.8-2.94-.8-1.04,0-2.23.04-3.58.11-1.35.07-2.68.17-3.99.28s-2.45.22-3.41.33l-.22-5.21c.96-.23,2.12-.46,3.47-.7,1.35-.24,2.76-.44,4.24-.59,1.48-.15,2.85-.22,4.1-.22,2.37,0,4.34.3,5.94.89,1.59.59,2.79,1.56,3.6,2.91.82,1.35,1.22,3.17,1.22,5.47v12.7c.07.52.35.91.83,1.19.48.28,1.03.47,1.66.58l-.17,5.1c-.89.04-1.76.06-2.61.06s-1.57-.06-2.17-.17c-.85-.11-1.58-.33-2.19-.66-.61-.34-1.1-.69-1.47-1.06-.59.26-1.39.55-2.39.89-1,.33-2.08.61-3.25.83-1.17.22-2.34.33-3.52.33M774.97,942.94c.7,0,1.44-.07,2.22-.22.77-.15,1.51-.32,2.19-.53.69-.21,1.23-.4,1.64-.59v-6.38l-5.66.5c-1.22.11-2.1.47-2.64,1.08-.53.61-.8,1.47-.8,2.58s.25,1.98.75,2.6c.5.63,1.27.94,2.3.94"></path><polygon class="cls-1" points="797.99 947.82 792.67 919.97 800.54 919.97 804.15 941.55 804.98 941.55 809.48 920.58 816.58 920.58 821.24 941.55 822.07 941.55 825.68 919.97 833.05 919.97 827.9 947.82 816.74 947.82 812.8 929.9 808.86 947.82 797.99 947.82"></polygon><path class="cls-1" d="M844.48,948.43c-2.89,0-5.06-.73-6.52-2.19-1.47-1.46-2.19-3.67-2.19-6.63,0-2.07.37-3.69,1.11-4.85.74-1.17,1.84-2.02,3.3-2.55,1.46-.53,3.25-.86,5.35-.97l6.77-.61v-1.67c0-1.33-.34-2.26-1-2.8-.67-.53-1.64-.8-2.94-.8-1.04,0-2.23.04-3.58.11-1.35.07-2.68.17-3.99.28-1.31.11-2.45.22-3.41.33l-.22-5.21c.96-.23,2.12-.46,3.47-.7,1.35-.24,2.76-.44,4.24-.59,1.48-.15,2.85-.22,4.1-.22,2.37,0,4.34.3,5.94.89,1.59.59,2.79,1.56,3.6,2.91.82,1.35,1.22,3.17,1.22,5.47v12.7c.07.52.35.91.83,1.19.48.28,1.03.47,1.66.58l-.17,5.1c-.89.04-1.76.06-2.61.06s-1.57-.06-2.17-.17c-.85-.11-1.58-.33-2.19-.66-.61-.34-1.1-.69-1.47-1.06-.59.26-1.39.55-2.39.89-1,.33-2.08.61-3.25.83-1.17.22-2.34.33-3.52.33M846.26,942.94c.7,0,1.44-.07,2.22-.22.77-.15,1.51-.32,2.19-.53.69-.21,1.23-.4,1.64-.59v-6.38l-5.66.5c-1.22.11-2.1.47-2.64,1.08-.53.61-.8,1.47-.8,2.58s.25,1.98.75,2.6c.5.63,1.27.94,2.3.94"></path><polygon class="cls-1" points="872.33 959.53 875.89 947.82 869.95 947.82 863.34 919.97 871.06 919.97 876 941.55 877.44 941.55 882.38 919.97 889.81 919.97 880.21 959.53 872.33 959.53"></polygon><path class="cls-1" d="M903.46,948.43c-1.22,0-2.52-.06-3.91-.19-1.39-.13-2.68-.29-3.88-.47-1.2-.18-2.23-.37-3.08-.55l.22-5.49c.96.11,2.04.24,3.24.39,1.2.15,2.39.27,3.55.36,1.17.09,2.12.13,2.86.13,1.11,0,2.03-.09,2.75-.28.72-.18,1.27-.49,1.64-.91.37-.42.55-1.05.55-1.86,0-.63-.16-1.11-.47-1.44-.32-.33-.91-.62-1.78-.86-.87-.23-2.13-.49-3.8-.75-2.07-.29-3.78-.72-5.13-1.28-1.35-.55-2.34-1.38-2.97-2.47-.63-1.09-.94-2.58-.94-4.46,0-2.29.5-4.09,1.5-5.38,1-1.29,2.33-2.21,3.99-2.75,1.66-.53,3.47-.81,5.44-.81,1.29,0,2.63.06,3.99.19,1.37.13,2.66.29,3.88.47,1.22.19,2.23.37,3.05.56l-.22,5.6c-.93-.15-2-.29-3.22-.41-1.22-.13-2.43-.23-3.63-.31-1.2-.07-2.21-.11-3.03-.11s-1.61.09-2.27.25c-.67.17-1.17.43-1.52.8-.35.37-.53.93-.53,1.66,0,.52.15.94.44,1.28.3.33.86.62,1.7.86.83.24,2.04.47,3.64.7,2.29.33,4.12.8,5.49,1.39,1.37.59,2.36,1.44,2.97,2.55.61,1.11.92,2.6.92,4.49,0,3.37-.99,5.73-2.97,7.08-1.98,1.35-4.8,2.02-8.46,2.02"></path><path class="cls-1" d="M313.33,948.1c-1.22,0-2.52-.06-3.91-.19-1.39-.13-2.68-.29-3.88-.47-1.2-.18-2.23-.37-3.08-.55l.22-5.49c.96.11,2.04.24,3.24.39,1.2.15,2.39.27,3.55.36,1.17.09,2.12.13,2.86.13,1.11,0,2.03-.09,2.75-.28.72-.18,1.27-.49,1.64-.91.37-.42.55-1.05.55-1.86,0-.63-.16-1.11-.47-1.44-.32-.33-.91-.62-1.78-.86-.87-.24-2.13-.49-3.8-.75-2.07-.29-3.78-.72-5.13-1.28-1.35-.55-2.34-1.38-2.97-2.47-.63-1.09-.94-2.58-.94-4.46,0-2.29.5-4.09,1.5-5.38,1-1.29,2.33-2.21,3.99-2.75,1.66-.53,3.47-.81,5.44-.81,1.29,0,2.63.06,3.99.19,1.37.13,2.66.29,3.88.47,1.22.19,2.23.37,3.05.56l-.22,5.6c-.93-.15-2-.29-3.22-.41-1.22-.13-2.43-.23-3.63-.31-1.2-.07-2.21-.11-3.03-.11s-1.61.09-2.27.25c-.67.17-1.17.43-1.52.8-.35.37-.53.93-.53,1.66,0,.52.15.94.44,1.28.3.33.86.62,1.7.86.83.24,2.04.47,3.64.7,2.29.33,4.12.8,5.49,1.39s2.36,1.44,2.97,2.55c.61,1.11.92,2.6.92,4.49,0,3.37-.99,5.73-2.97,7.08-1.98,1.35-4.8,2.02-8.46,2.02"></path></g></svg>